%TF.GenerationSoftware,KiCad,Pcbnew,8.0.5*%
%TF.CreationDate,2025-02-10T13:11:14-05:00*%
%TF.ProjectId,Combined_Rev3_Board,436f6d62-696e-4656-945f-526576335f42,rev?*%
%TF.SameCoordinates,Original*%
%TF.FileFunction,Soldermask,Bot*%
%TF.FilePolarity,Negative*%
%FSLAX46Y46*%
G04 Gerber Fmt 4.6, Leading zero omitted, Abs format (unit mm)*
G04 Created by KiCad (PCBNEW 8.0.5) date 2025-02-10 13:11:14*
%MOMM*%
%LPD*%
G01*
G04 APERTURE LIST*
G04 Aperture macros list*
%AMRoundRect*
0 Rectangle with rounded corners*
0 $1 Rounding radius*
0 $2 $3 $4 $5 $6 $7 $8 $9 X,Y pos of 4 corners*
0 Add a 4 corners polygon primitive as box body*
4,1,4,$2,$3,$4,$5,$6,$7,$8,$9,$2,$3,0*
0 Add four circle primitives for the rounded corners*
1,1,$1+$1,$2,$3*
1,1,$1+$1,$4,$5*
1,1,$1+$1,$6,$7*
1,1,$1+$1,$8,$9*
0 Add four rect primitives between the rounded corners*
20,1,$1+$1,$2,$3,$4,$5,0*
20,1,$1+$1,$4,$5,$6,$7,0*
20,1,$1+$1,$6,$7,$8,$9,0*
20,1,$1+$1,$8,$9,$2,$3,0*%
G04 Aperture macros list end*
%ADD10C,0.000000*%
%ADD11C,1.500000*%
%ADD12R,1.700000X1.700000*%
%ADD13O,1.700000X1.700000*%
%ADD14C,2.100000*%
%ADD15C,2.000000*%
%ADD16RoundRect,0.237500X0.237500X-0.300000X0.237500X0.300000X-0.237500X0.300000X-0.237500X-0.300000X0*%
%ADD17RoundRect,0.237500X0.300000X0.237500X-0.300000X0.237500X-0.300000X-0.237500X0.300000X-0.237500X0*%
%ADD18RoundRect,0.150000X-0.512500X-0.150000X0.512500X-0.150000X0.512500X0.150000X-0.512500X0.150000X0*%
%ADD19R,0.450000X0.630000*%
%ADD20R,2.500000X1.500000*%
%ADD21RoundRect,0.237500X-0.237500X0.300000X-0.237500X-0.300000X0.237500X-0.300000X0.237500X0.300000X0*%
%ADD22RoundRect,0.237500X-0.237500X0.250000X-0.237500X-0.250000X0.237500X-0.250000X0.237500X0.250000X0*%
%ADD23C,1.700000*%
%ADD24R,2.000000X2.000000*%
%ADD25O,2.000000X2.000000*%
%ADD26RoundRect,0.250000X0.750000X-0.600000X0.750000X0.600000X-0.750000X0.600000X-0.750000X-0.600000X0*%
%ADD27R,0.300000X1.200000*%
%ADD28R,1.600000X2.400000*%
%ADD29RoundRect,0.237500X-0.250000X-0.237500X0.250000X-0.237500X0.250000X0.237500X-0.250000X0.237500X0*%
%ADD30RoundRect,0.237500X0.250000X0.237500X-0.250000X0.237500X-0.250000X-0.237500X0.250000X-0.237500X0*%
%ADD31RoundRect,0.150000X-0.150000X0.512500X-0.150000X-0.512500X0.150000X-0.512500X0.150000X0.512500X0*%
%ADD32RoundRect,0.076200X0.300000X0.950000X-0.300000X0.950000X-0.300000X-0.950000X0.300000X-0.950000X0*%
%ADD33RoundRect,0.076200X1.050000X1.400000X-1.050000X1.400000X-1.050000X-1.400000X1.050000X-1.400000X0*%
%ADD34RoundRect,0.375000X-0.375000X-0.375000X0.375000X-0.375000X0.375000X0.375000X-0.375000X0.375000X0*%
%ADD35C,1.670000*%
%ADD36RoundRect,0.249999X0.450001X1.075001X-0.450001X1.075001X-0.450001X-1.075001X0.450001X-1.075001X0*%
%ADD37RoundRect,0.249999X1.075001X-0.450001X1.075001X0.450001X-1.075001X0.450001X-1.075001X-0.450001X0*%
%ADD38RoundRect,0.249999X-0.450001X-1.075001X0.450001X-1.075001X0.450001X1.075001X-0.450001X1.075001X0*%
%ADD39RoundRect,0.249999X-1.078339X-0.441942X-0.441942X-1.078339X1.078339X0.441942X0.441942X1.078339X0*%
%ADD40RoundRect,0.249999X-0.441942X1.078339X-1.078339X0.441942X0.441942X-1.078339X1.078339X-0.441942X0*%
%ADD41RoundRect,0.249999X0.441942X-1.078339X1.078339X-0.441942X-0.441942X1.078339X-1.078339X0.441942X0*%
%ADD42RoundRect,0.249999X1.078339X0.441942X0.441942X1.078339X-1.078339X-0.441942X-0.441942X-1.078339X0*%
%ADD43RoundRect,0.249999X-1.075001X0.450001X-1.075001X-0.450001X1.075001X-0.450001X1.075001X0.450001X0*%
G04 APERTURE END LIST*
D10*
%TO.C,CN3*%
G36*
X99650000Y-25901600D02*
G01*
X98850000Y-25901600D01*
X98850000Y-24301600D01*
X99650000Y-24301600D01*
X99650000Y-25901600D01*
G37*
G36*
X124950000Y-25901600D02*
G01*
X124150000Y-25901600D01*
X124150000Y-24301600D01*
X124950000Y-24301600D01*
X124950000Y-25901600D01*
G37*
%TD*%
D11*
%TO.C,SW1*%
X140375000Y-93025000D03*
X146875000Y-93025000D03*
X140375000Y-88525000D03*
X146875000Y-88525000D03*
X143625000Y-93475000D03*
X143625000Y-88075000D03*
%TD*%
D12*
%TO.C,J2*%
X150375000Y-86975000D03*
D13*
X150375000Y-89515000D03*
X150375000Y-92055000D03*
X150375000Y-94595000D03*
%TD*%
D12*
%TO.C,J2*%
X135575000Y-86975000D03*
D13*
X135575000Y-89515000D03*
X135575000Y-92055000D03*
X135575000Y-94595000D03*
%TD*%
D11*
%TO.C,SW1*%
X125575000Y-93025000D03*
X132075000Y-93025000D03*
X125575000Y-88525000D03*
X132075000Y-88525000D03*
X128825000Y-93475000D03*
X128825000Y-88075000D03*
%TD*%
D14*
%TO.C,J7*%
X40550000Y-43444999D03*
%TD*%
D15*
%TO.C,CN5*%
X55750000Y-52487499D03*
X55750000Y-55027499D03*
%TD*%
D14*
%TO.C,J5*%
X43960000Y-49754999D03*
%TD*%
%TO.C,J4*%
X29490000Y-63944999D03*
%TD*%
%TO.C,J8*%
X38910000Y-62704999D03*
%TD*%
D15*
%TO.C,CN7*%
X33729999Y-37007499D03*
X36270001Y-37007499D03*
%TD*%
D14*
%TO.C,J6*%
X24830000Y-48224999D03*
%TD*%
D15*
%TO.C,CN6*%
X36270001Y-70507499D03*
X33729999Y-70507499D03*
%TD*%
D14*
%TO.C,J1*%
X45125001Y-59382500D03*
%TD*%
D15*
%TO.C,CN4*%
X14250000Y-52487499D03*
X14250000Y-55027499D03*
%TD*%
D14*
%TO.C,J2*%
X26090000Y-57574999D03*
%TD*%
%TO.C,J3*%
X31060000Y-44734999D03*
%TD*%
D16*
%TO.C,Cb7*%
X52050000Y-25782500D03*
X52050000Y-24057500D03*
%TD*%
%TO.C,Cb9*%
X54900000Y-26032500D03*
X54900000Y-24307500D03*
%TD*%
%TO.C,Cb8*%
X52050000Y-32032500D03*
X52050000Y-30307500D03*
%TD*%
%TO.C,Cb10*%
X54800000Y-31982500D03*
X54800000Y-30257500D03*
%TD*%
D17*
%TO.C,C12*%
X25162500Y-19355000D03*
X23437498Y-19355000D03*
%TD*%
D16*
%TO.C,C9*%
X28690999Y-15132502D03*
X28690999Y-13407500D03*
%TD*%
%TO.C,Cb12*%
X10650000Y-56157500D03*
X10650000Y-54432500D03*
%TD*%
D18*
%TO.C,Q1*%
X27937500Y-20245000D03*
X27937500Y-18345000D03*
X30212500Y-19295000D03*
%TD*%
D12*
%TO.C,CN2*%
X64210000Y-15520000D03*
D13*
X66750000Y-15520000D03*
X64210000Y-18060000D03*
X66750000Y-18060000D03*
X64210000Y-20600000D03*
X66750000Y-20600000D03*
X64210000Y-23140000D03*
X66750000Y-23140000D03*
X64210000Y-25680000D03*
X66750000Y-25680000D03*
X64210000Y-28220000D03*
X66750000Y-28220000D03*
X64210000Y-30760000D03*
X66750000Y-30760000D03*
X64210000Y-33300000D03*
X66750000Y-33300000D03*
X64210000Y-35840000D03*
X66750000Y-35840000D03*
X64210000Y-38380000D03*
X66750000Y-38380000D03*
X64210000Y-40920000D03*
X66750000Y-40920000D03*
X64210000Y-43460000D03*
X66750000Y-43460000D03*
X64210000Y-46000000D03*
X66750000Y-46000000D03*
X64210000Y-48540000D03*
X66750000Y-48540000D03*
X64210000Y-51080000D03*
X66750000Y-51080000D03*
X64210000Y-53620000D03*
X66750000Y-53620000D03*
X64210000Y-56160000D03*
X66750000Y-56160000D03*
X64210000Y-58700000D03*
X66750000Y-58700000D03*
X64210000Y-61240000D03*
X66750000Y-61240000D03*
%TD*%
D19*
%TO.C,U9*%
X25175001Y-15735001D03*
X24225001Y-15735000D03*
X23275001Y-15735001D03*
X23275001Y-13054999D03*
X24225001Y-13055000D03*
X25175001Y-13054999D03*
D20*
X24225001Y-14395000D03*
%TD*%
D21*
%TO.C,C13*%
X26975000Y-13417498D03*
X26975000Y-15142500D03*
%TD*%
D12*
%TO.C,J9*%
X59470001Y-3345000D03*
D13*
X62010001Y-3345000D03*
X64550000Y-3345000D03*
X67090001Y-3345000D03*
%TD*%
D22*
%TO.C,Rf16*%
X60150000Y-50632500D03*
X60150000Y-52457500D03*
%TD*%
%TO.C,Rf4*%
X10650000Y-50632500D03*
X10650000Y-52457500D03*
%TD*%
D12*
%TO.C,CN1*%
X3250000Y-15515000D03*
D13*
X5790000Y-15515000D03*
X3250000Y-18055000D03*
X5790000Y-18055000D03*
X3250000Y-20595000D03*
X5790000Y-20595000D03*
X3250000Y-23135000D03*
X5790000Y-23135000D03*
X3250000Y-25675000D03*
X5790000Y-25675000D03*
X3250000Y-28215000D03*
X5790000Y-28215000D03*
X3250000Y-30755000D03*
X5790000Y-30755000D03*
X3250000Y-33295000D03*
X5790000Y-33295000D03*
X3250000Y-35835000D03*
X5790000Y-35835000D03*
X3250000Y-38375000D03*
X5790000Y-38375000D03*
X3250000Y-40915000D03*
X5790000Y-40915000D03*
X3250000Y-43455000D03*
X5790000Y-43455000D03*
X3250000Y-45995000D03*
X5790000Y-45995000D03*
X3250000Y-48535000D03*
X5790000Y-48535000D03*
X3250000Y-51075000D03*
X5790000Y-51075000D03*
X3250000Y-53615000D03*
X5790000Y-53615000D03*
X3250000Y-56155000D03*
X5790000Y-56155000D03*
X3250000Y-58695000D03*
X5790000Y-58695000D03*
X3250000Y-61235000D03*
X5790000Y-61235000D03*
%TD*%
D17*
%TO.C,C14*%
X25162501Y-17480001D03*
X23437499Y-17480001D03*
%TD*%
D16*
%TO.C,Cb1*%
X60150000Y-56157500D03*
X60150000Y-54432500D03*
%TD*%
D11*
%TO.C,SW1*%
X110775000Y-93025000D03*
X117275000Y-93025000D03*
X110775000Y-88525000D03*
X117275000Y-88525000D03*
X114025000Y-93475000D03*
X114025000Y-88075000D03*
%TD*%
D23*
%TO.C,CN1*%
X84300000Y-21335000D03*
X80500000Y-21335000D03*
X84300000Y-29975000D03*
X80500000Y-29975000D03*
%TD*%
D24*
%TO.C,D7*%
X82650000Y-5342330D03*
D25*
X82650000Y-2802330D03*
%TD*%
D26*
%TO.C,CN2*%
X83000000Y-16625000D03*
D23*
X83000000Y-14125000D03*
%TD*%
D27*
%TO.C,CN3*%
X121649980Y-22002007D03*
X121149982Y-22002007D03*
X120649980Y-22002007D03*
X120149981Y-22002007D03*
X119649982Y-22002007D03*
X119149980Y-22002007D03*
X118649981Y-22002007D03*
X118149980Y-22002007D03*
X117649981Y-22002007D03*
X117149982Y-22002007D03*
X116649980Y-22002007D03*
X116149981Y-22002007D03*
X115649980Y-22002007D03*
X115149981Y-22002007D03*
X114649982Y-22002007D03*
X114149980Y-22002007D03*
X113649981Y-22002007D03*
X113149980Y-22002007D03*
X112649981Y-22002007D03*
X112149982Y-22002007D03*
X111649980Y-22002007D03*
X111149981Y-22002007D03*
X110649980Y-22002007D03*
X110149981Y-22002007D03*
X109649982Y-22002007D03*
X109149980Y-22002007D03*
X108649981Y-22002007D03*
X108149980Y-22002007D03*
X107649981Y-22002007D03*
X107149982Y-22002007D03*
X106649980Y-22002007D03*
X106149981Y-22002007D03*
X105649979Y-22002007D03*
X105149980Y-22002007D03*
X104649981Y-22002007D03*
X104149980Y-22002007D03*
X103649981Y-22002007D03*
X103149982Y-22002007D03*
X102649980Y-22002007D03*
X102149981Y-22002007D03*
D28*
X123349981Y-24701600D03*
X100450019Y-24701600D03*
%TD*%
D29*
%TO.C,R4*%
X126487500Y-9750000D03*
X128312500Y-9750000D03*
%TD*%
D30*
%TO.C,R1*%
X88612500Y-24950000D03*
X86787500Y-24950000D03*
%TD*%
D31*
%TO.C,U3*%
X94950000Y-14162500D03*
X95900000Y-14162500D03*
X96850000Y-14162500D03*
X96850000Y-16437500D03*
X95900000Y-16437500D03*
X94950000Y-16437500D03*
%TD*%
D18*
%TO.C,Q3*%
X93012500Y-21200000D03*
X93012500Y-19300000D03*
X95287500Y-20250000D03*
%TD*%
D32*
%TO.C,CN4*%
X138150000Y-21650000D03*
X137150000Y-21650000D03*
X136150000Y-21650000D03*
X135150000Y-21650000D03*
X134150000Y-21650000D03*
X133150000Y-21650000D03*
D33*
X141300000Y-24000000D03*
X130000000Y-24000000D03*
%TD*%
D31*
%TO.C,U11*%
X90200001Y-14362500D03*
X91150000Y-14362500D03*
X92099999Y-14362500D03*
X92099999Y-16637500D03*
X90200001Y-16637500D03*
%TD*%
D12*
%TO.C,J2*%
X120775000Y-86975000D03*
D13*
X120775000Y-89515000D03*
X120775000Y-92055000D03*
X120775000Y-94595000D03*
%TD*%
D16*
%TO.C,C19*%
X96150000Y-24612501D03*
X96150000Y-22887499D03*
%TD*%
D30*
%TO.C,R17*%
X84562500Y-9500000D03*
X82737500Y-9500000D03*
%TD*%
%TO.C,R2*%
X88662500Y-26875000D03*
X86837500Y-26875000D03*
%TD*%
D22*
%TO.C,R14*%
X88400000Y-14675000D03*
X88400000Y-16500000D03*
%TD*%
D12*
%TO.C,CN5*%
X94300000Y-3235000D03*
D13*
X94300000Y-5775000D03*
X96840000Y-3235000D03*
X96840000Y-5775000D03*
X99379999Y-3235000D03*
X99380000Y-5775000D03*
X101920000Y-3235000D03*
X101920000Y-5775000D03*
X104460000Y-3235000D03*
X104460000Y-5775000D03*
X107000000Y-3235000D03*
X107000000Y-5775000D03*
X109540000Y-3235000D03*
X109540000Y-5775000D03*
X112080001Y-3235000D03*
X112080000Y-5775000D03*
X114620000Y-3235000D03*
X114620000Y-5775000D03*
X117160000Y-3235000D03*
X117160000Y-5775000D03*
X119700000Y-3235000D03*
X119700000Y-5775000D03*
X122239999Y-3235000D03*
X122240000Y-5775000D03*
X124780000Y-3235000D03*
X124780000Y-5775000D03*
X127320000Y-3235000D03*
X127320000Y-5775000D03*
X129860000Y-3235000D03*
X129860000Y-5775000D03*
X132399999Y-3235000D03*
X132400000Y-5775000D03*
X134940001Y-3235000D03*
X134940000Y-5775000D03*
X137480000Y-3235000D03*
X137480000Y-5775000D03*
X140020000Y-3235000D03*
X140020000Y-5775000D03*
X142560000Y-3235000D03*
X142560000Y-5775000D03*
%TD*%
D34*
%TO.C,J2*%
X151425000Y-56312500D03*
X151425000Y-53312500D03*
%TD*%
D35*
%TO.C,H11*%
X133925000Y-44512500D03*
%TD*%
D15*
%TO.C,J1*%
X129645001Y-38075000D03*
X127104999Y-38075000D03*
%TD*%
%TO.C,J6*%
X107625000Y-53554999D03*
X107625000Y-56095001D03*
%TD*%
D35*
%TO.C,H16*%
X137335000Y-50822500D03*
%TD*%
%TO.C,H12*%
X132285000Y-63772500D03*
%TD*%
%TO.C,H9*%
X119465000Y-58642500D03*
%TD*%
%TO.C,H14*%
X138500001Y-60450001D03*
%TD*%
D34*
%TO.C,J3*%
X105400000Y-56312500D03*
X105400000Y-53312500D03*
%TD*%
D35*
%TO.C,H15*%
X118205000Y-49292500D03*
%TD*%
%TO.C,H10*%
X122865000Y-65012500D03*
%TD*%
D15*
%TO.C,J7*%
X149125000Y-53554999D03*
X149125000Y-56095001D03*
%TD*%
D35*
%TO.C,H13*%
X124435000Y-45802500D03*
%TD*%
D15*
%TO.C,J5*%
X127104999Y-71575000D03*
X129645001Y-71575000D03*
%TD*%
D36*
%TO.C,R13*%
X138275000Y-54825000D03*
X133475000Y-54825000D03*
%TD*%
D37*
%TO.C,R14*%
X128375000Y-64725000D03*
X128375000Y-59925000D03*
%TD*%
D38*
%TO.C,R12*%
X118475000Y-54825000D03*
X123275000Y-54825000D03*
%TD*%
D39*
%TO.C,R15*%
X115927944Y-63877944D03*
X119322056Y-67272056D03*
%TD*%
D40*
%TO.C,R16*%
X140822056Y-63877944D03*
X137427944Y-67272056D03*
%TD*%
D41*
%TO.C,R11*%
X115927944Y-45772056D03*
X119322056Y-42377944D03*
%TD*%
D42*
%TO.C,R9*%
X140822056Y-45772056D03*
X137427944Y-42377944D03*
%TD*%
D43*
%TO.C,R10*%
X128375000Y-44925000D03*
X128375000Y-49725000D03*
%TD*%
M02*
