M48
; DRILL file {KiCad 8.0.5} date 2025-02-10T13:11:56-0500
; FORMAT={-:-/ absolute / inch / decimal}
; #@! TF.CreationDate,2025-02-10T13:11:56-05:00
; #@! TF.GenerationSoftware,Kicad,Pcbnew,8.0.5
; #@! TF.FileFunction,Plated,1,4,PTH
FMAT,2
INCH
; #@! TA.AperFunction,Plated,PTH,ViaDrill
T1C0.0118
; #@! TA.AperFunction,Plated,PTH,ViaDrill
T2C0.0138
; #@! TA.AperFunction,Plated,PTH,ViaDrill
T3C0.0157
; #@! TA.AperFunction,Plated,PTH,ComponentDrill
T4C0.0394
; #@! TA.AperFunction,Plated,PTH,ComponentDrill
T5C0.0472
; #@! TA.AperFunction,Plated,PTH,ComponentDrill
T6C0.0591
; #@! TA.AperFunction,Plated,PTH,ComponentDrill
T7C0.0650
%
G90
G05
T1
X0.5226Y-2.4289
X0.6919Y-2.7892
X0.8642Y-2.7921
X1.1841Y-0.9171
X2.5285Y-2.4919
X2.6368Y-2.5904
X2.7057Y-2.5904
T2
X0.2461Y-0.3925
X0.3002Y-1.5864
X0.375Y-0.5392
X0.3888Y-2.3108
X0.4173Y-1.0067
X0.4203Y-0.3659
X0.4203Y-0.4998
X0.4203Y-1.8522
X0.4281Y-0.862
X0.4596Y-0.8148
X0.4633Y-2.0212
X0.4673Y-2.191
X0.4675Y-0.61
X0.4695Y-1.0854
X0.4754Y-0.6652
X0.4774Y-1.801
X0.623Y-0.3344
X0.6512Y-1.2023
X0.6663Y-2.6735
X0.6841Y-1.4097
X0.688Y-2.2188
X0.6885Y-2.2641
X0.7156Y-2.1046
X0.7234Y-1.6479
X0.7274Y-0.2478
X0.7313Y-1.4191
X0.7667Y-0.2793
X0.8061Y-0.1199
X0.8061Y-0.3581
X0.8356Y-1.6356
X0.8563Y-0.9673
X0.875Y-2.4427
X0.8809Y-2.1046
X0.8868Y-2.6794
X0.8888Y-2.6361
X0.8893Y-2.1932
X0.8947Y-1.803
X0.9252Y-0.2094
X0.9286Y-2.4422
X0.9287Y-1.2023
X0.94Y-0.3659
X0.9439Y-1.803
X0.9528Y-1.4299
X0.9557Y-1.3817
X0.968Y-2.3969
X0.9754Y-2.1415
X0.9793Y-1.6474
X1.003Y-1.2872
X1.0062Y-1.2385
X1.0738Y-0.4211
X1.0833Y-1.1668
X1.0915Y-1.3994
X1.1368Y-0.3738
X1.1457Y-1.424
X1.1506Y-0.986
X1.1604Y-2.2065
X1.1801Y-1.301
X1.1919Y-0.8226
X1.1998Y-0.2478
X1.2195Y-0.9663
X1.2293Y-1.547
X1.253Y-1.2311
X1.2589Y-2.2852
X1.2628Y-0.5864
X1.2726Y-0.8906
X1.2785Y-0.4841
X1.2854Y-1.2843
X1.31Y-0.6423
X1.3179Y-0.7833
X1.3366Y-2.0451
X1.3366Y-2.1896
X1.3376Y-1.2911
X1.3415Y-0.4289
X1.3494Y-0.1376
X1.3809Y-0.3974
X1.4045Y-0.1681
X1.4065Y-1.0352
X1.4197Y-2.0451
X1.4197Y-2.1896
X1.4518Y-0.2183
X1.4518Y-0.5636
X1.4557Y-0.1376
X1.4656Y-2.2852
X1.4808Y-0.6007
X1.5148Y-0.2478
X1.5148Y-0.4848
X1.5148Y-1.9801
X1.5246Y-1.0254
X1.5394Y-0.1081
X1.564Y-1.0875
X1.5837Y-2.0687
X1.6329Y-1.5077
X1.6398Y-1.2528
X1.6427Y-0.9713
X1.6624Y-1.0421
X1.688Y-0.736
X1.6895Y-1.5032
X1.7018Y-1.4388
X1.7224Y-1.0874
X1.748Y-0.9102
X1.7657Y-0.2882
X1.7904Y-1.1967
X1.8184Y-1.8655
X1.8278Y-2.6883
X1.8278Y-2.6174
X1.8297Y-2.0293
X1.8455Y-0.4683
X1.8533Y-0.3659
X1.8632Y-0.864
X1.8691Y-0.6179
X1.8716Y-2.4235
X1.8755Y-2.1046
X1.8834Y-2.3733
X1.8903Y-1.7109
X1.8927Y-2.4826
X1.8932Y-1.9924
X1.9055Y-1.3335
X1.9188Y-0.4658
X1.9242Y-0.3659
X1.9242Y-0.5628
X1.9611Y-1.4983
X1.9793Y-0.5077
X1.9877Y-2.5544
X1.9882Y-2.6711
X1.9985Y-1.4964
X1.9985Y-1.7247
X2.0039Y-1.3315
X2.0098Y-1.0283
X2.06Y-2.4816
X2.0694Y-2.1066
X2.0723Y-2.3418
X2.0723Y-2.3832
X2.0881Y-1.9491
X2.0896Y-0.61
X2.094Y-1.9944
X2.0974Y-0.2163
X2.1083Y-2.2715
X2.1132Y-2.2094
X2.1644Y-2.2656
X2.1762Y-0.2715
X2.1909Y-1.8531
X2.2096Y-1.911
X2.2136Y-1.4585
X2.2146Y-0.989
X2.2146Y-1.1543
X2.2283Y-1.2075
X2.2313Y-0.3502
X2.2323Y-0.7675
X2.253Y-0.9565
X2.2628Y-1.8581
X2.2638Y-1.2833
X2.2638Y-1.4811
X2.2795Y-1.2272
X2.2825Y-1.1041
X2.2864Y-0.6415
X2.2864Y-2.4053
X2.2997Y-0.769
X2.3022Y-1.8098
X2.3031Y-1.3374
X2.3034Y-2.2077
X2.3172Y-2.0143
X2.3287Y-1.1051
X2.3514Y-1.0648
X2.4124Y-2.311
X2.6398Y-2.5047
X2.7111Y-2.5042
X3.3425Y-0.1083
X3.3425Y-0.2362
X3.4114Y-0.2756
X3.4213Y-0.3346
X3.4803Y-0.5315
X3.4902Y-1.1024
X3.5787Y-0.5118
X3.5886Y-0.6102
X3.5886Y-0.6594
X3.5886Y-0.7087
X3.628Y-0.2362
X3.6329Y-0.7136
X3.6772Y-0.5576
X3.687Y-0.6299
X3.687Y-1.0925
X3.6969Y-1.2303
X3.7047Y-0.3051
X3.7047Y-0.3701
X3.7362Y-0.6988
X3.7362Y-0.9547
X3.7756Y-0.6988
X3.7854Y-1.0138
X3.8307Y-0.8504
X3.8386Y-0.7638
X3.8543Y-0.561
X3.878Y-0.6378
X3.9173Y-0.7874
X3.9724Y-1.1122
X3.9774Y-1.0581
X4.0266Y-1.1299
X4.0413Y-1.1831
X4.0906Y-0.5748
X4.0906Y-0.9203
X4.0906Y-0.9724
X4.0925Y-0.5197
X4.0955Y-1.1831
X4.1201Y-0.8169
X4.1299Y-0.6614
X4.1299Y-0.7008
X4.1693Y-0.4232
X4.1693Y-0.4724
X4.2402Y-0.7087
X4.248Y-0.9154
X4.2874Y-0.685
X4.2874Y-0.8169
X4.2972Y-0.9646
X4.3169Y-0.7776
X4.3661Y-0.6791
X4.3661Y-0.9439
X4.3947Y-0.6486
X4.3976Y-0.7717
X4.4134Y-0.6929
X4.435Y-0.8169
X4.4547Y-0.6398
X4.4567Y-0.7776
X4.5236Y-0.4232
X4.5236Y-0.4823
X4.5236Y-0.5315
X4.563Y-0.5906
X4.5728Y-0.4823
X4.5728Y-0.9124
X4.5827Y-0.9843
X4.6319Y-0.7972
X4.6417Y-0.9124
X4.6417Y-1.0138
X4.6516Y-0.374
X4.6811Y-0.7717
X4.7106Y-0.9134
X4.7677Y-0.6614
X4.7697Y-0.3839
X4.7697Y-0.4626
X4.7992Y-0.3543
X4.7992Y-0.4232
X4.8228Y-0.6614
X4.8317Y-0.872
X4.8681Y-0.4429
X4.878Y-0.876
X5.0157Y-0.6693
X5.0354Y-0.8268
X5.0392Y-0.7769
X5.0748Y-0.6693
X5.0856Y-1.1024
X5.1181Y-0.7913
X5.1339Y-1.063
X5.1501Y-0.3578
X5.1634Y-1.1516
X5.1772Y-0.689
X5.185Y-0.748
X5.2028Y-0.4823
X5.2126Y-1.1024
X5.2421Y-0.6791
X5.2421Y-0.7283
X5.2712Y-0.6393
X5.2815Y-0.9252
X5.3081Y-1.1555
X5.311Y-0.6102
X5.3819Y-0.5236
X5.4587Y-0.689
X5.4685Y-1.1417
X5.6063Y-1.1516
X5.6161Y-0.4429
X5.6161Y-0.5512
X5.6457Y-0.6496
X5.6555Y-0.8268
X5.7185Y-0.2283
X5.7736Y-0.2264
X5.7874Y-0.8169
X5.8425Y-0.0896
X5.8819Y-1.1683
X5.8917Y-0.5512
T3
X0.0974Y-0.1297
X0.1437Y-2.7094
X0.1821Y-2.7459
X0.1841Y-2.6681
X0.25Y-2.6553
X0.251Y-2.7646
X0.3189Y-2.7075
X0.3238Y-2.3856
X0.3711Y-2.2124
X0.376Y-1.177
X0.4154Y-1.487
X0.4488Y-1.2616
X0.4892Y-1.6297
X0.5561Y-1.7439
X0.5846Y-2.3079
X0.5856Y-0.925
X0.5915Y-2.4201
X0.5915Y-2.5126
X0.6171Y-0.5313
X0.6348Y-1.2646
X0.7037Y-1.8074
X0.7037Y-1.8546
X0.7175Y-1.0943
X0.7175Y-1.7031
X0.7687Y-1.3098
X0.7746Y-0.5392
X0.7746Y-0.8305
X0.8559Y-1.0644
X0.8652Y-0.6907
X0.8701Y-0.7596
X0.8868Y-1.5023
X0.9031Y-1.5712
X0.9222Y-0.8138
X1.0157Y-2.0785
X1.0266Y-0.8226
X1.06Y-0.6494
X1.0817Y-1.4585
X1.1309Y-0.6435
X1.1398Y-1.6091
X1.1831Y-0.5972
X1.2766Y-0.8167
X1.3179Y-0.2557
X1.3967Y-0.7439
X1.4045Y-0.8305
X1.4823Y-0.864
X1.5246Y-1.2813
X1.5276Y-1.1898
X1.5305Y-1.4102
X1.5463Y-0.4289
X1.628Y-1.3531
X1.69Y-1.2537
X1.7116Y-0.6022
X1.7195Y-0.5085
X1.7874Y-1.3955
X1.8681Y-0.9457
X1.872Y-2.553
X1.9055Y-1.1346
X1.9094Y-1.4083
X1.9114Y-0.9043
X1.9803Y-0.9043
X1.9921Y-1.1386
X2.0079Y-1.2626
X2.0492Y-1.1406
X2.0492Y-1.3059
X2.0531Y-0.8984
X2.0576Y-2.6637
X2.1043Y-0.9142
X2.1043Y-1.0657
X2.1043Y-1.1484
X2.128Y-1.3098
X2.1511Y-1.5859
X2.1526Y-0.8148
X2.155Y-1.6538
X2.1575Y-1.1366
X2.1614Y-0.9004
X2.313Y-1.6415
X2.3396Y-2.422
X2.3976Y-2.5195
X2.4144Y-2.2124
X2.4429Y-2.7094
X2.502Y-2.7636
X2.503Y-2.6543
X2.5699Y-2.673
X2.5699Y-2.7488
X2.6093Y-2.7085
X3.2067Y-1.0108
X3.2579Y-1.0463
X3.2667Y-0.9904
X3.2686Y-1.1183
X3.2706Y-0.9028
X3.7264Y-0.4232
X4.2579Y-0.3346
X4.3071Y-0.2953
X4.3465Y-0.3445
X4.376Y-0.3839
X4.5257Y-1.8409
X4.5257Y-1.9995
X4.5257Y-2.158
X4.5257Y-2.318
X4.5257Y-2.478
X4.5335Y-2.6796
X4.5344Y-1.6383
X4.6024Y-0.3839
X4.6107Y-2.1585
X4.7087Y-1.8145
X4.7087Y-2.5074
X4.7352Y-2.6875
X4.7352Y-1.6314
X4.8465Y-1.9454
X4.8465Y-2.3666
X4.8937Y-1.6314
X4.8937Y-2.6875
X4.9065Y-2.158
X5.0536Y-2.3066
X5.0536Y-2.6029
X5.0541Y-1.8617
X5.0541Y-2.0113
X5.0541Y-2.159
X5.0541Y-2.4532
X5.0556Y-1.7151
X5.1969Y-0.3051
X5.2008Y-2.1594
X5.2028Y-0.3642
X5.2126Y-1.6314
X5.2126Y-2.6875
X5.2598Y-1.9503
X5.2628Y-2.3666
X5.3504Y-0.5709
X5.3711Y-1.6304
X5.372Y-2.6855
X5.4016Y-1.8145
X5.4016Y-2.5074
X5.4966Y-2.159
X5.5738Y-1.6383
X5.5738Y-2.6757
X5.5806Y-1.8399
X5.5806Y-1.9995
X5.5806Y-2.1594
X5.5806Y-2.318
X5.5815Y-2.476
X5.6161Y-0.4921
X5.6516Y-0.5925
X5.7244Y-0.8169
X5.7864Y-0.5315
X5.7953Y-0.1161
T4
X0.128Y-0.6108
X0.128Y-0.7108
X0.128Y-0.8108
X0.128Y-0.9108
X0.128Y-1.0108
X0.128Y-1.1108
X0.128Y-1.2108
X0.128Y-1.3108
X0.128Y-1.4108
X0.128Y-1.5108
X0.128Y-1.6108
X0.128Y-1.7108
X0.128Y-1.8108
X0.128Y-1.9108
X0.128Y-2.0108
X0.128Y-2.1108
X0.128Y-2.2108
X0.128Y-2.3108
X0.128Y-2.4108
X0.228Y-0.6108
X0.228Y-0.7108
X0.228Y-0.8108
X0.228Y-0.9108
X0.228Y-1.0108
X0.228Y-1.1108
X0.228Y-1.2108
X0.228Y-1.3108
X0.228Y-1.4108
X0.228Y-1.5108
X0.228Y-1.6108
X0.228Y-1.7108
X0.228Y-1.8108
X0.228Y-1.9108
X0.228Y-2.0108
X0.228Y-2.1108
X0.228Y-2.2108
X0.228Y-2.3108
X0.228Y-2.4108
X2.3413Y-0.1317
X2.4413Y-0.1317
X2.528Y-0.611
X2.528Y-0.711
X2.528Y-0.811
X2.528Y-0.911
X2.528Y-1.011
X2.528Y-1.111
X2.528Y-1.211
X2.528Y-1.311
X2.528Y-1.411
X2.528Y-1.511
X2.528Y-1.611
X2.528Y-1.711
X2.528Y-1.811
X2.528Y-1.911
X2.528Y-2.011
X2.528Y-2.111
X2.528Y-2.211
X2.528Y-2.311
X2.528Y-2.411
X2.5413Y-0.1317
X2.628Y-0.611
X2.628Y-0.711
X2.628Y-0.811
X2.628Y-0.911
X2.628Y-1.011
X2.628Y-1.111
X2.628Y-1.211
X2.628Y-1.311
X2.628Y-1.411
X2.628Y-1.511
X2.628Y-1.611
X2.628Y-1.711
X2.628Y-1.811
X2.628Y-1.911
X2.628Y-2.011
X2.628Y-2.111
X2.628Y-2.211
X2.628Y-2.311
X2.628Y-2.411
X2.6413Y-0.1317
X3.2539Y-0.1103
X3.2539Y-0.2103
X3.2677Y-0.5561
X3.2677Y-0.6545
X3.7126Y-0.1274
X3.7126Y-0.2274
X3.8126Y-0.1274
X3.8126Y-0.2274
X3.9126Y-0.1274
X3.9126Y-0.2274
X4.0126Y-0.1274
X4.0126Y-0.2274
X4.1126Y-0.1274
X4.1126Y-0.2274
X4.2126Y-0.1274
X4.2126Y-0.2274
X4.3126Y-0.1274
X4.3126Y-0.2274
X4.3612Y-3.4852
X4.3612Y-3.6624
X4.4126Y-0.2274
X4.4126Y-0.1274
X4.4892Y-3.4675
X4.4892Y-3.6801
X4.5126Y-0.1274
X4.5126Y-0.2274
X4.6126Y-0.1274
X4.6126Y-0.2274
X4.6171Y-3.4852
X4.6171Y-3.6624
X4.7126Y-0.1274
X4.7126Y-0.2274
X4.7549Y-3.4242
X4.7549Y-3.5242
X4.7549Y-3.6242
X4.7549Y-3.7242
X4.8126Y-0.1274
X4.8126Y-0.2274
X4.9126Y-0.1274
X4.9126Y-0.2274
X4.9439Y-3.4852
X4.9439Y-3.6624
X5.0126Y-0.1274
X5.0126Y-0.2274
X5.0719Y-3.4675
X5.0719Y-3.6801
X5.1126Y-0.1274
X5.1126Y-0.2274
X5.1998Y-3.4852
X5.1998Y-3.6624
X5.2126Y-0.1274
X5.2126Y-0.2274
X5.3126Y-0.2274
X5.3126Y-0.1274
X5.3376Y-3.4242
X5.3376Y-3.5242
X5.3376Y-3.6242
X5.3376Y-3.7242
X5.4126Y-0.1274
X5.4126Y-0.2274
X5.5126Y-0.1274
X5.5126Y-0.2274
X5.5266Y-3.4852
X5.5266Y-3.6624
X5.6126Y-0.1274
X5.6126Y-0.2274
X5.6545Y-3.4675
X5.6545Y-3.6801
X5.7825Y-3.4852
X5.7825Y-3.6624
X5.9203Y-3.4242
X5.9203Y-3.5242
X5.9203Y-3.6242
X5.9203Y-3.7242
T5
X3.1693Y-0.84
X3.1693Y-1.1801
X3.3189Y-0.84
X3.3189Y-1.1801
T6
X0.561Y-2.0664
X0.561Y-2.1664
X1.328Y-1.457
X1.328Y-2.7759
X1.428Y-1.457
X1.428Y-2.7759
X2.1949Y-2.0664
X2.1949Y-2.1664
X4.2372Y-2.1085
X4.2372Y-2.2085
X5.0041Y-1.499
X5.0041Y-2.8179
X5.1041Y-1.499
X5.1041Y-2.8179
X5.8711Y-2.1085
X5.8711Y-2.2085
T7
X0.9776Y-1.8986
X1.0272Y-2.2667
X1.161Y-2.5175
X1.2228Y-1.7612
X1.5319Y-2.4687
X1.5965Y-1.7104
X1.7307Y-1.9589
X1.7766Y-2.3379
M30
