%TF.GenerationSoftware,KiCad,Pcbnew,8.0.5*%
%TF.CreationDate,2024-10-25T16:37:33-04:00*%
%TF.ProjectId,Combined_Rev2_Board,436f6d62-696e-4656-945f-526576325f42,rev?*%
%TF.SameCoordinates,Original*%
%TF.FileFunction,Paste,Bot*%
%TF.FilePolarity,Positive*%
%FSLAX46Y46*%
G04 Gerber Fmt 4.6, Leading zero omitted, Abs format (unit mm)*
G04 Created by KiCad (PCBNEW 8.0.5) date 2024-10-25 16:37:33*
%MOMM*%
%LPD*%
G01*
G04 APERTURE LIST*
G04 Aperture macros list*
%AMRoundRect*
0 Rectangle with rounded corners*
0 $1 Rounding radius*
0 $2 $3 $4 $5 $6 $7 $8 $9 X,Y pos of 4 corners*
0 Add a 4 corners polygon primitive as box body*
4,1,4,$2,$3,$4,$5,$6,$7,$8,$9,$2,$3,0*
0 Add four circle primitives for the rounded corners*
1,1,$1+$1,$2,$3*
1,1,$1+$1,$4,$5*
1,1,$1+$1,$6,$7*
1,1,$1+$1,$8,$9*
0 Add four rect primitives between the rounded corners*
20,1,$1+$1,$2,$3,$4,$5,0*
20,1,$1+$1,$4,$5,$6,$7,0*
20,1,$1+$1,$6,$7,$8,$9,0*
20,1,$1+$1,$8,$9,$2,$3,0*%
G04 Aperture macros list end*
%ADD10C,0.000000*%
%ADD11RoundRect,0.237500X-0.300000X-0.237500X0.300000X-0.237500X0.300000X0.237500X-0.300000X0.237500X0*%
%ADD12RoundRect,0.237500X0.237500X-0.300000X0.237500X0.300000X-0.237500X0.300000X-0.237500X-0.300000X0*%
%ADD13RoundRect,0.237500X-0.237500X0.300000X-0.237500X-0.300000X0.237500X-0.300000X0.237500X0.300000X0*%
%ADD14RoundRect,0.237500X0.300000X0.237500X-0.300000X0.237500X-0.300000X-0.237500X0.300000X-0.237500X0*%
%ADD15RoundRect,0.237500X0.250000X0.237500X-0.250000X0.237500X-0.250000X-0.237500X0.250000X-0.237500X0*%
%ADD16R,0.730000X0.660000*%
%ADD17R,0.450000X0.630000*%
%ADD18RoundRect,0.237500X-0.250000X-0.237500X0.250000X-0.237500X0.250000X0.237500X-0.250000X0.237500X0*%
%ADD19RoundRect,0.150000X-0.825000X-0.150000X0.825000X-0.150000X0.825000X0.150000X-0.825000X0.150000X0*%
%ADD20RoundRect,0.237500X-0.237500X0.250000X-0.237500X-0.250000X0.237500X-0.250000X0.237500X0.250000X0*%
%ADD21R,0.600000X1.900000*%
%ADD22R,2.100000X2.799999*%
%ADD23RoundRect,0.249999X0.450001X1.075001X-0.450001X1.075001X-0.450001X-1.075001X0.450001X-1.075001X0*%
%ADD24RoundRect,0.249999X1.075001X-0.450001X1.075001X0.450001X-1.075001X0.450001X-1.075001X-0.450001X0*%
%ADD25RoundRect,0.249999X-0.450001X-1.075001X0.450001X-1.075001X0.450001X1.075001X-0.450001X1.075001X0*%
%ADD26RoundRect,0.249999X-1.078339X-0.441942X-0.441942X-1.078339X1.078339X0.441942X0.441942X1.078339X0*%
%ADD27RoundRect,0.249999X-0.441942X1.078339X-1.078339X0.441942X0.441942X-1.078339X1.078339X-0.441942X0*%
%ADD28RoundRect,0.249999X0.441942X-1.078339X1.078339X-0.441942X-0.441942X1.078339X-1.078339X0.441942X0*%
%ADD29RoundRect,0.249999X1.078339X0.441942X0.441942X1.078339X-1.078339X-0.441942X-0.441942X-1.078339X0*%
%ADD30RoundRect,0.249999X-1.075001X0.450001X-1.075001X-0.450001X1.075001X-0.450001X1.075001X0.450001X0*%
%ADD31RoundRect,0.237500X0.237500X-0.250000X0.237500X0.250000X-0.237500X0.250000X-0.237500X-0.250000X0*%
%ADD32R,0.300000X1.200000*%
%ADD33R,1.600000X2.400000*%
%ADD34R,2.100000X2.800000*%
%ADD35R,1.900000X0.600000*%
%ADD36R,2.799999X2.100000*%
%ADD37RoundRect,0.150000X0.150000X-0.512500X0.150000X0.512500X-0.150000X0.512500X-0.150000X-0.512500X0*%
G04 APERTURE END LIST*
D10*
G36*
X69781104Y-136026600D02*
G01*
X68981104Y-136026600D01*
X68981104Y-134426600D01*
X69781104Y-134426600D01*
X69781104Y-136026600D01*
G37*
G36*
X95081104Y-136026600D02*
G01*
X94281104Y-136026600D01*
X94281104Y-134426600D01*
X95081104Y-134426600D01*
X95081104Y-136026600D01*
G37*
D11*
X91337499Y-40304998D03*
X93062501Y-40304998D03*
D12*
X101575000Y-55512500D03*
X101575000Y-53787500D03*
X104425000Y-55762500D03*
X104425000Y-54037500D03*
D13*
X86950000Y-42562499D03*
X86950000Y-44287501D03*
D12*
X101575000Y-61762500D03*
X101575000Y-60037500D03*
X104325000Y-61712500D03*
X104325000Y-59987500D03*
D14*
X74687500Y-49085000D03*
X72962498Y-49085000D03*
D12*
X78215999Y-44862502D03*
X78215999Y-43137500D03*
D15*
X67037500Y-44325000D03*
X65212500Y-44325000D03*
D12*
X60175000Y-85887500D03*
X60175000Y-84162500D03*
D16*
X72884001Y-44550000D03*
X74616001Y-44550000D03*
X73750001Y-44549999D03*
X73750001Y-43700001D03*
X72884001Y-43700000D03*
X74616001Y-43700000D03*
D17*
X74700001Y-45465001D03*
X73750001Y-45465000D03*
X72800001Y-45465001D03*
X72800001Y-42784999D03*
X73750001Y-42785000D03*
X74700001Y-42784999D03*
D18*
X65187500Y-46125000D03*
X67012500Y-46125000D03*
D19*
X89800000Y-45959999D03*
X89800000Y-44689999D03*
X89800000Y-43419999D03*
X89800000Y-42149999D03*
X94750000Y-42149999D03*
X94750000Y-43419999D03*
X94750000Y-44689999D03*
X94750000Y-45959999D03*
D13*
X76500000Y-43147498D03*
X76500000Y-44872500D03*
D20*
X109675000Y-80362500D03*
X109675000Y-82187500D03*
D21*
X81050007Y-37950000D03*
X82050008Y-37950000D03*
X83050008Y-37950000D03*
X84050006Y-37950000D03*
X85050007Y-37950000D03*
X86050007Y-37950000D03*
X87050008Y-37950000D03*
X88050008Y-37950000D03*
D22*
X77900007Y-35599999D03*
X91199993Y-35599999D03*
D20*
X60175000Y-80362500D03*
X60175000Y-82187500D03*
D14*
X74687501Y-47210001D03*
X72962499Y-47210001D03*
D12*
X109675000Y-85887500D03*
X109675000Y-84162500D03*
D23*
X159675000Y-50775000D03*
X154875000Y-50775000D03*
D24*
X149775000Y-60675000D03*
X149775000Y-55875000D03*
D25*
X139875000Y-50775000D03*
X144675000Y-50775000D03*
D26*
X137327944Y-59827944D03*
X140722056Y-63222056D03*
D27*
X162222056Y-59827944D03*
X158827944Y-63222056D03*
D28*
X137327944Y-41722056D03*
X140722056Y-38327944D03*
D29*
X162222056Y-41722056D03*
X158827944Y-38327944D03*
D30*
X149775000Y-40875000D03*
X149775000Y-45675000D03*
D31*
X72431104Y-128687500D03*
X72431104Y-126862500D03*
D32*
X91781084Y-132127007D03*
X91281086Y-132127007D03*
X90781084Y-132127007D03*
X90281085Y-132127007D03*
X89781086Y-132127007D03*
X89281084Y-132127007D03*
X88781085Y-132127007D03*
X88281084Y-132127007D03*
X87781085Y-132127007D03*
X87281086Y-132127007D03*
X86781084Y-132127007D03*
X86281085Y-132127007D03*
X85781084Y-132127007D03*
X85281085Y-132127007D03*
X84781086Y-132127007D03*
X84281084Y-132127007D03*
X83781085Y-132127007D03*
X83281084Y-132127007D03*
X82781085Y-132127007D03*
X82281086Y-132127007D03*
X81781084Y-132127007D03*
X81281085Y-132127007D03*
X80781084Y-132127007D03*
X80281085Y-132127007D03*
X79781086Y-132127007D03*
X79281084Y-132127007D03*
X78781085Y-132127007D03*
X78281084Y-132127007D03*
X77781085Y-132127007D03*
X77281086Y-132127007D03*
X76781084Y-132127007D03*
X76281085Y-132127007D03*
X75781083Y-132127007D03*
X75281084Y-132127007D03*
X74781085Y-132127007D03*
X74281084Y-132127007D03*
X73781085Y-132127007D03*
X73281086Y-132127007D03*
X72781084Y-132127007D03*
X72281085Y-132127007D03*
D33*
X93481085Y-134826600D03*
X70581123Y-134826600D03*
D15*
X58743604Y-136575000D03*
X56918604Y-136575000D03*
D21*
X108281104Y-131775000D03*
X107281104Y-131775000D03*
X106281104Y-131775000D03*
X105281104Y-131775000D03*
X104281104Y-131775000D03*
X103281104Y-131775000D03*
D34*
X111431104Y-134125000D03*
X100131104Y-134125000D03*
D13*
X67606104Y-122737499D03*
X67606104Y-124462501D03*
D15*
X58793604Y-138500000D03*
X56968604Y-138500000D03*
D35*
X115481105Y-124125007D03*
X115481105Y-125125008D03*
X115481105Y-126125008D03*
X115481105Y-127125006D03*
X115481105Y-128125007D03*
X115481105Y-129125007D03*
X115481105Y-130125008D03*
X115481105Y-131125008D03*
D36*
X117831106Y-120975007D03*
X117831106Y-134274993D03*
D37*
X70231103Y-128537500D03*
X68331105Y-128537500D03*
X69281104Y-126262500D03*
M02*
