M48
; DRILL file {KiCad 8.0.5} date 2024-10-25T16:37:39-0400
; FORMAT={-:-/ absolute / inch / decimal}
; #@! TF.CreationDate,2024-10-25T16:37:39-04:00
; #@! TF.GenerationSoftware,Kicad,Pcbnew,8.0.5
; #@! TF.FileFunction,Plated,1,4,PTH
FMAT,2
INCH
; #@! TA.AperFunction,Plated,PTH,ViaDrill
T1C0.0118
; #@! TA.AperFunction,Plated,PTH,ViaDrill
T2C0.0138
; #@! TA.AperFunction,Plated,PTH,ViaDrill
T3C0.0157
; #@! TA.AperFunction,Plated,PTH,ComponentDrill
T4C0.0236
; #@! TA.AperFunction,Plated,PTH,ViaDrill
T5C0.0394
; #@! TA.AperFunction,Plated,PTH,ComponentDrill
T6C0.0394
; #@! TA.AperFunction,Plated,PTH,ComponentDrill
T7C0.0591
; #@! TA.AperFunction,Plated,PTH,ComponentDrill
T8C0.0650
%
G90
G05
T1
X2.6417Y-3.9596
X2.7559Y-1.2904
X2.814Y-3.9626
X3.4055Y-1.2805
X3.4154Y-1.3888
X3.4646Y-1.4183
X3.8209Y-1.8661
X4.1831Y-1.2608
X4.4783Y-3.6624
X4.5866Y-3.7608
X4.6555Y-3.7608
T2
X2.0081Y-4.7677
X2.125Y-1.6427
X2.1685Y-4.5177
X2.1959Y-1.563
X2.2148Y-4.8435
X2.249Y-1.6014
X2.25Y-2.7569
X2.2522Y-5.0364
X2.3044Y-5.6102
X2.3051Y-1.7411
X2.3071Y-2.0856
X2.3199Y-1.6093
X2.3437Y-5.2126
X2.3671Y-2.1772
X2.3701Y-3.0226
X2.376Y-3.4852
X2.3802Y-4.7077
X2.3888Y-2.0098
X2.389Y-4.8465
X2.4131Y-3.1917
X2.4154Y-1.6988
X2.4171Y-3.3615
X2.4193Y-2.2559
X2.4272Y-2.9715
X2.4382Y-4.81
X2.4402Y-5.5236
X2.4481Y-4.4291
X2.4616Y-2.0925
X2.4705Y-3.5541
X2.4754Y-1.9144
X2.5052Y-5.6102
X2.5266Y-1.8159
X2.5659Y-1.997
X2.5699Y-1.6033
X2.5728Y-1.5049
X2.601Y-2.3727
X2.6085Y-5.3863
X2.6161Y-3.844
X2.6339Y-2.5802
X2.6378Y-3.3893
X2.6383Y-3.4345
X2.642Y-5.0581
X2.6607Y-4.9587
X2.6654Y-3.2751
X2.6666Y-5.1201
X2.6732Y-2.8184
X2.6811Y-2.5896
X2.6831Y-1.815
X2.687Y-1.6939
X2.7079Y-5.2156
X2.7089Y-4.8327
X2.7119Y-4.9114
X2.7362Y-1.7234
X2.7394Y-5.1161
X2.7788Y-5.2224
X2.7798Y-5.1634
X2.7854Y-2.8061
X2.7867Y-5.1152
X2.7886Y-5.4459
X2.7906Y-4.9557
X2.7945Y-4.8258
X2.8061Y-2.1378
X2.8201Y-5.3907
X2.8248Y-3.6132
X2.8307Y-3.2751
X2.8366Y-3.8499
X2.8386Y-3.8066
X2.8391Y-3.3637
X2.8445Y-2.9734
X2.8506Y-5.4656
X2.8565Y-5.5187
X2.8784Y-3.6127
X2.8785Y-2.3727
X2.8937Y-2.9734
X2.9026Y-2.6004
X2.9055Y-1.6461
X2.9146Y-5.2559
X2.9178Y-3.5674
X2.9185Y-5.3081
X2.9195Y-5.5187
X2.9215Y-4.9567
X2.9232Y-2.4616
X2.9235Y-5.0659
X2.9252Y-3.312
X2.9291Y-2.8179
X2.935Y-1.6063
X2.956Y-2.409
X2.9569Y-5.1181
X2.9589Y-4.8012
X2.9658Y-4.8474
X2.9776Y-5.3189
X2.9963Y-5.001
X3.0003Y-4.7628
X3.0317Y-4.8652
X3.0317Y-4.9252
X3.0331Y-2.3373
X3.0357Y-5.0453
X3.0413Y-2.5699
X3.0524Y-5.373
X3.0583Y-5.1142
X3.0632Y-4.7697
X3.0642Y-5.2589
X3.0898Y-5.2913
X3.0918Y-4.8543
X3.0955Y-2.5945
X3.1004Y-2.1565
X3.1102Y-3.377
X3.1262Y-4.751
X3.1299Y-2.4715
X3.1398Y-1.497
X3.14Y-5.3396
X3.1487Y-2.0612
X3.1496Y-1.4183
X3.1617Y-4.9961
X3.1693Y-2.1368
X3.1695Y-4.8031
X3.1774Y-4.9065
X3.1791Y-2.7175
X3.187Y-1.6191
X3.1882Y-4.8543
X3.1912Y-5.2992
X3.2028Y-2.4016
X3.2087Y-3.4557
X3.2224Y-2.061
X3.2276Y-4.812
X3.2293Y-1.561
X3.2352Y-2.4547
X3.2493Y-5.3179
X3.2606Y-4.9739
X3.268Y-5.0513
X3.2864Y-3.2156
X3.2864Y-3.36
X3.2874Y-2.4616
X3.2982Y-1.7539
X3.3063Y-4.8898
X3.3103Y-5.373
X3.3278Y-3.2879
X3.3366Y-1.3396
X3.3378Y-4.8041
X3.3563Y-2.2057
X3.3695Y-3.2156
X3.3695Y-3.36
X3.3703Y-5.3455
X3.3969Y-4.8917
X3.3969Y-5.248
X3.4026Y-1.3386
X3.4097Y-5.3091
X3.4154Y-3.4557
X3.4284Y-5.375
X3.4338Y-5.029
X3.4343Y-4.8002
X3.4471Y-4.9478
X3.4646Y-3.1506
X3.4658Y-5.248
X3.4744Y-2.1959
X3.4874Y-5.1329
X3.4892Y-1.2785
X3.5138Y-2.258
X3.5335Y-3.2392
X3.5347Y-5.249
X3.5512Y-1.5876
X3.5775Y-4.845
X3.5827Y-2.6781
X3.5896Y-2.4232
X3.5908Y-5.0374
X3.5925Y-2.1417
X3.6122Y-2.2126
X3.6393Y-2.6737
X3.6516Y-2.6093
X3.6528Y-5.0246
X3.6548Y-5.1594
X3.6558Y-5.2077
X3.6722Y-2.2579
X3.6978Y-2.0807
X3.7156Y-1.4587
X3.7394Y-5.1713
X3.7402Y-2.3671
X3.7682Y-3.0359
X3.7776Y-3.8588
X3.7776Y-3.7879
X3.7795Y-3.1998
X3.7916Y-5.1329
X3.7972Y-2.0502
X3.814Y-1.6476
X3.8214Y-3.594
X3.8253Y-3.2751
X3.8332Y-3.5438
X3.8401Y-2.8814
X3.8425Y-3.6531
X3.843Y-3.1629
X3.8536Y-5.1467
X3.8553Y-2.5039
X3.8556Y-5.4016
X3.8701Y-1.9222
X3.89Y-4.7579
X3.9084Y-5.1063
X3.9097Y-5.438
X3.9109Y-2.6688
X3.9205Y-5.0512
X3.9288Y-4.8969
X3.9311Y-1.9902
X3.9375Y-3.7249
X3.938Y-3.8415
X3.9451Y-4.8297
X3.9483Y-2.6668
X3.9483Y-2.8952
X3.9537Y-2.502
X3.9596Y-2.1988
X3.9609Y-5.3888
X3.9687Y-5.1398
X3.9806Y-4.7589
X3.9845Y-5.0827
X3.9874Y-5.4872
X4.0098Y-3.6521
X4.0192Y-3.2771
X4.0221Y-3.5123
X4.0221Y-3.5536
X4.0367Y-5.438
X4.0379Y-3.1196
X4.0438Y-3.1649
X4.0581Y-3.4419
X4.063Y-3.3799
X4.0672Y-4.6831
X4.0937Y-5.0344
X4.1056Y-5.2608
X4.1142Y-3.436
X4.1311Y-4.9852
X4.1321Y-5.4911
X4.1407Y-3.0236
X4.1594Y-3.0815
X4.1634Y-2.6289
X4.1644Y-2.1594
X4.1644Y-2.3248
X4.1722Y-1.6309
X4.1781Y-2.378
X4.1821Y-1.938
X4.2028Y-2.127
X4.2126Y-3.0285
X4.2126Y-3.5837
X4.2136Y-2.4537
X4.2136Y-2.6516
X4.2274Y-1.8346
X4.2293Y-2.3976
X4.2306Y-5.4104
X4.2323Y-2.2746
X4.2495Y-1.9395
X4.252Y-2.9803
X4.253Y-2.5079
X4.2532Y-3.3782
X4.2559Y-1.4518
X4.2586Y-5.3647
X4.267Y-3.1848
X4.2776Y-3.5315
X4.2785Y-2.2756
X4.2785Y-3.4577
X4.2935Y-5.3257
X4.3012Y-2.2352
X4.3014Y-5.5817
X4.4094Y-1.3287
X4.4097Y-4.7293
X4.4215Y-4.8888
X4.4323Y-5.1949
X4.4363Y-4.9478
X4.4638Y-5.5866
X4.4687Y-5.1496
X4.4833Y-1.6634
X4.5426Y-4.623
X4.5896Y-3.6752
X4.6006Y-4.628
X4.6115Y-5.2116
X4.6358Y-1.564
X4.6609Y-3.6747
X4.6804Y-4.4843
X4.7059Y-5.563
X4.7621Y-4.6437
X4.763Y-4.9675
X4.763Y-5.1329
T3
X2.0308Y-5.4055
X2.0472Y-1.3002
X2.0819Y-5.4409
X2.0908Y-5.385
X2.0927Y-5.513
X2.0935Y-3.8799
X2.0946Y-5.2974
X2.1319Y-3.9163
X2.1339Y-3.8386
X2.1998Y-3.8258
X2.2008Y-3.935
X2.2687Y-3.878
X2.2736Y-3.5561
X2.3209Y-3.3829
X2.3258Y-2.3474
X2.3605Y-5.4144
X2.3652Y-2.6575
X2.3986Y-2.4321
X2.439Y-2.8002
X2.5059Y-2.9144
X2.5344Y-3.4783
X2.5413Y-3.5906
X2.5413Y-3.6831
X2.5846Y-2.435
X2.6535Y-2.9779
X2.6535Y-3.0251
X2.6673Y-2.2648
X2.6673Y-2.8735
X2.6693Y-2.125
X2.7185Y-2.4803
X2.8057Y-2.2349
X2.815Y-1.8612
X2.8199Y-1.9301
X2.8366Y-2.6727
X2.8529Y-2.7416
X2.872Y-1.9843
X2.9429Y-2.56
X2.9432Y-4.749
X2.9656Y-3.249
X2.9872Y-1.8622
X2.9941Y-1.9325
X3.0098Y-1.8199
X3.0315Y-2.6289
X3.0807Y-1.814
X3.0896Y-2.7795
X3.1299Y-1.6939
X3.1329Y-1.7677
X3.248Y-1.8711
X3.2677Y-1.6152
X3.3091Y-1.5571
X3.3986Y-1.9311
X3.4252Y-2.0581
X3.4262Y-1.5581
X3.439Y-2.0
X3.4685Y-1.5896
X3.4734Y-1.6614
X3.4744Y-2.4518
X3.4774Y-1.7598
X3.4774Y-2.3602
X3.4803Y-2.5807
X3.5197Y-1.5069
X3.5778Y-2.5236
X3.6398Y-2.4242
X3.7372Y-2.5659
X3.8179Y-2.1161
X3.8219Y-3.7234
X3.8553Y-2.3051
X3.8593Y-2.5787
X3.8612Y-2.0748
X3.8967Y-1.752
X3.9301Y-2.0748
X3.9419Y-2.3091
X3.9577Y-2.4331
X3.997Y-1.9705
X3.999Y-2.311
X3.999Y-2.4764
X4.003Y-2.0689
X4.0074Y-3.8342
X4.0541Y-2.0846
X4.0541Y-2.2362
X4.0541Y-2.3189
X4.0719Y-1.6319
X4.0778Y-2.4803
X4.1009Y-2.7564
X4.1048Y-2.8243
X4.1073Y-2.3071
X4.1112Y-2.0709
X4.1171Y-1.813
X4.1941Y-4.7746
X4.2628Y-2.812
X4.2894Y-3.5925
X4.3474Y-3.69
X4.3642Y-3.3829
X4.3701Y-1.5659
X4.3927Y-3.8799
X4.4038Y-5.0531
X4.4518Y-3.9341
X4.4528Y-3.8248
X4.4727Y-5.002
X4.4766Y-5.0837
X4.4924Y-4.8632
X4.5197Y-3.8435
X4.5197Y-3.9193
X4.5374Y-1.4183
X4.5485Y-5.2116
X4.5591Y-3.8789
X4.6065Y-5.0453
X4.6105Y-4.9262
X4.6754Y-4.9636
X5.3683Y-1.6814
X5.3683Y-2.3186
X5.4528Y-1.9985
X5.5778Y-2.5281
X5.5778Y-1.4719
X5.749Y-1.9985
X5.8962Y-2.1471
X5.8962Y-2.4434
X5.8981Y-1.5556
X5.8981Y-1.8519
X6.0433Y-2.0
X6.2136Y-1.471
X6.2146Y-2.5261
X6.3396Y-2.0
X6.4231Y-1.6805
X6.4241Y-2.3166
T5
X5.376Y-2.5202
X5.377Y-1.4788
X5.689Y-1.7859
X5.689Y-2.2072
X5.8967Y-1.9995
X6.1024Y-1.7908
X6.1053Y-2.2072
X6.4163Y-1.4788
X6.4163Y-2.5162
T6
X2.0778Y-1.7813
X2.0778Y-1.8813
X2.0778Y-1.9813
X2.0778Y-2.0813
X2.0778Y-2.1813
X2.0778Y-2.2813
X2.0778Y-2.3813
X2.0778Y-2.4813
X2.0778Y-2.5813
X2.0778Y-2.6813
X2.0778Y-2.7813
X2.0778Y-2.8813
X2.0778Y-2.9813
X2.0778Y-3.0813
X2.0778Y-3.1813
X2.0778Y-3.2813
X2.0778Y-3.3813
X2.0778Y-3.4813
X2.0778Y-3.5813
X2.078Y-4.519
X2.078Y-4.619
X2.0918Y-4.9508
X2.0918Y-5.0492
X2.1778Y-1.7813
X2.1778Y-1.8813
X2.1778Y-1.9813
X2.1778Y-2.0813
X2.1778Y-2.1813
X2.1778Y-2.2813
X2.1778Y-2.3813
X2.1778Y-2.4813
X2.1778Y-2.5813
X2.1778Y-2.6813
X2.1778Y-2.7813
X2.1778Y-2.8813
X2.1778Y-2.9813
X2.1778Y-3.0813
X2.1778Y-3.1813
X2.1778Y-3.2813
X2.1778Y-3.3813
X2.1778Y-3.4813
X2.1778Y-3.5813
X2.2595Y-4.5266
X2.3595Y-4.5266
X2.5367Y-4.522
X2.5367Y-4.622
X2.6367Y-4.522
X2.6367Y-4.622
X2.7367Y-4.522
X2.7367Y-4.622
X2.8367Y-4.522
X2.8367Y-4.622
X2.9367Y-4.522
X2.9367Y-4.622
X3.0367Y-4.522
X3.0367Y-4.622
X3.1367Y-4.522
X3.1367Y-4.622
X3.2367Y-4.622
X3.2367Y-4.522
X3.3367Y-4.522
X3.3367Y-4.622
X3.4367Y-4.522
X3.4367Y-4.622
X3.5367Y-4.522
X3.5367Y-4.622
X3.6367Y-4.522
X3.6367Y-4.622
X3.7367Y-4.522
X3.7367Y-4.622
X3.8367Y-4.522
X3.8367Y-4.622
X3.9367Y-4.522
X3.9367Y-4.622
X4.0367Y-4.522
X4.0367Y-4.622
X4.1367Y-4.622
X4.1367Y-4.522
X4.2367Y-4.522
X4.2367Y-4.622
X4.3367Y-4.522
X4.3367Y-4.622
X4.4367Y-4.522
X4.4367Y-4.622
X4.4778Y-1.7815
X4.4778Y-1.8815
X4.4778Y-1.9815
X4.4778Y-2.0815
X4.4778Y-2.1815
X4.4778Y-2.2815
X4.4778Y-2.3815
X4.4778Y-2.4815
X4.4778Y-2.5815
X4.4778Y-2.6815
X4.4778Y-2.7815
X4.4778Y-2.8815
X4.4778Y-2.9815
X4.4778Y-3.0815
X4.4778Y-3.1815
X4.4778Y-3.2815
X4.4778Y-3.3815
X4.4778Y-3.4815
X4.4778Y-3.5815
X4.5778Y-1.7815
X4.5778Y-1.8815
X4.5778Y-1.9815
X4.5778Y-2.0815
X4.5778Y-2.1815
X4.5778Y-2.2815
X4.5778Y-2.3815
X4.5778Y-2.4815
X4.5778Y-2.5815
X4.5778Y-2.6815
X4.5778Y-2.7815
X4.5778Y-2.8815
X4.5778Y-2.9815
X4.5778Y-3.0815
X4.5778Y-3.1815
X4.5778Y-3.2815
X4.5778Y-3.3815
X4.5778Y-3.4815
X4.5778Y-3.5815
X4.5819Y-5.4685
X4.6819Y-5.4685
T7
X2.5108Y-3.2369
X2.5108Y-3.3369
X3.2778Y-2.6275
X3.2778Y-3.9464
X3.3778Y-2.6275
X3.3778Y-3.9464
X4.1447Y-3.2369
X4.1447Y-3.3369
X5.0797Y-1.949
X5.0797Y-2.049
X5.8467Y-1.3396
X5.8467Y-2.6585
X5.9467Y-1.3396
X5.9467Y-2.6585
X6.7136Y-1.949
X6.7136Y-2.049
T8
X2.9274Y-3.0691
X2.977Y-3.4372
X3.1108Y-3.688
X3.1726Y-2.9317
X3.4817Y-3.6392
X3.5463Y-2.8809
X3.6805Y-3.1293
X3.7264Y-3.5084
T4
G00X2.0052Y-5.2346
M15
G01X1.9815Y-5.2346
M16
G05
G00X2.0052Y-5.5748
M15
G01X1.9815Y-5.5748
M16
G05
G00X2.1548Y-5.2346
M15
G01X2.1311Y-5.2346
M16
G05
G00X2.1548Y-5.5748
M15
G01X2.1311Y-5.5748
M16
G05
M30
