%TF.GenerationSoftware,KiCad,Pcbnew,8.0.5*%
%TF.CreationDate,2024-10-28T13:14:02-04:00*%
%TF.ProjectId,Combined_Rev2_Board,436f6d62-696e-4656-945f-526576325f42,rev?*%
%TF.SameCoordinates,Original*%
%TF.FileFunction,Legend,Top*%
%TF.FilePolarity,Positive*%
%FSLAX46Y46*%
G04 Gerber Fmt 4.6, Leading zero omitted, Abs format (unit mm)*
G04 Created by KiCad (PCBNEW 8.0.5) date 2024-10-28 13:14:02*
%MOMM*%
%LPD*%
G01*
G04 APERTURE LIST*
%ADD10C,0.100000*%
%ADD11C,0.150000*%
%ADD12C,0.120000*%
G04 APERTURE END LIST*
D10*
X49500000Y-31000000D02*
X119500000Y-31000000D01*
X119500000Y-102150000D01*
X49500000Y-102150000D01*
X49500000Y-31000000D01*
D11*
X149775000Y-36025000D02*
X149775000Y-34275000D01*
X125775000Y-31000000D02*
X173775000Y-31000000D01*
X173775000Y-70775000D01*
X125775000Y-70775000D01*
X125775000Y-31000000D01*
D10*
X49531104Y-111625000D02*
X122531104Y-111625000D01*
X122531104Y-143625000D01*
X49531104Y-143625000D01*
X49531104Y-111625000D01*
X72040990Y-90663689D02*
X72064800Y-90687498D01*
X72064800Y-90687498D02*
X72088609Y-90758927D01*
X72088609Y-90758927D02*
X72088609Y-90806546D01*
X72088609Y-90806546D02*
X72064800Y-90877974D01*
X72064800Y-90877974D02*
X72017180Y-90925593D01*
X72017180Y-90925593D02*
X71969561Y-90949403D01*
X71969561Y-90949403D02*
X71874323Y-90973212D01*
X71874323Y-90973212D02*
X71802895Y-90973212D01*
X71802895Y-90973212D02*
X71707657Y-90949403D01*
X71707657Y-90949403D02*
X71660038Y-90925593D01*
X71660038Y-90925593D02*
X71612419Y-90877974D01*
X71612419Y-90877974D02*
X71588609Y-90806546D01*
X71588609Y-90806546D02*
X71588609Y-90758927D01*
X71588609Y-90758927D02*
X71612419Y-90687498D01*
X71612419Y-90687498D02*
X71636228Y-90663689D01*
X71755276Y-90520831D02*
X71755276Y-90330355D01*
X72088609Y-90449403D02*
X71660038Y-90449403D01*
X71660038Y-90449403D02*
X71612419Y-90425593D01*
X71612419Y-90425593D02*
X71588609Y-90377974D01*
X71588609Y-90377974D02*
X71588609Y-90330355D01*
X71588609Y-90211308D02*
X71588609Y-89877975D01*
X71588609Y-89877975D02*
X72088609Y-90092260D01*
X88365476Y-56128490D02*
X88341667Y-56152300D01*
X88341667Y-56152300D02*
X88270238Y-56176109D01*
X88270238Y-56176109D02*
X88222619Y-56176109D01*
X88222619Y-56176109D02*
X88151191Y-56152300D01*
X88151191Y-56152300D02*
X88103572Y-56104680D01*
X88103572Y-56104680D02*
X88079762Y-56057061D01*
X88079762Y-56057061D02*
X88055953Y-55961823D01*
X88055953Y-55961823D02*
X88055953Y-55890395D01*
X88055953Y-55890395D02*
X88079762Y-55795157D01*
X88079762Y-55795157D02*
X88103572Y-55747538D01*
X88103572Y-55747538D02*
X88151191Y-55699919D01*
X88151191Y-55699919D02*
X88222619Y-55676109D01*
X88222619Y-55676109D02*
X88270238Y-55676109D01*
X88270238Y-55676109D02*
X88341667Y-55699919D01*
X88341667Y-55699919D02*
X88365476Y-55723728D01*
X88579762Y-56176109D02*
X88579762Y-55676109D01*
X88579762Y-55866585D02*
X88627381Y-55842776D01*
X88627381Y-55842776D02*
X88722619Y-55842776D01*
X88722619Y-55842776D02*
X88770238Y-55866585D01*
X88770238Y-55866585D02*
X88794048Y-55890395D01*
X88794048Y-55890395D02*
X88817857Y-55938014D01*
X88817857Y-55938014D02*
X88817857Y-56080871D01*
X88817857Y-56080871D02*
X88794048Y-56128490D01*
X88794048Y-56128490D02*
X88770238Y-56152300D01*
X88770238Y-56152300D02*
X88722619Y-56176109D01*
X88722619Y-56176109D02*
X88627381Y-56176109D01*
X88627381Y-56176109D02*
X88579762Y-56152300D01*
X88984524Y-55676109D02*
X89294048Y-55676109D01*
X89294048Y-55676109D02*
X89127381Y-55866585D01*
X89127381Y-55866585D02*
X89198810Y-55866585D01*
X89198810Y-55866585D02*
X89246429Y-55890395D01*
X89246429Y-55890395D02*
X89270238Y-55914204D01*
X89270238Y-55914204D02*
X89294048Y-55961823D01*
X89294048Y-55961823D02*
X89294048Y-56080871D01*
X89294048Y-56080871D02*
X89270238Y-56128490D01*
X89270238Y-56128490D02*
X89246429Y-56152300D01*
X89246429Y-56152300D02*
X89198810Y-56176109D01*
X89198810Y-56176109D02*
X89055953Y-56176109D01*
X89055953Y-56176109D02*
X89008334Y-56152300D01*
X89008334Y-56152300D02*
X88984524Y-56128490D01*
X67261309Y-79213608D02*
X67094643Y-78975513D01*
X66975595Y-79213608D02*
X66975595Y-78713608D01*
X66975595Y-78713608D02*
X67166071Y-78713608D01*
X67166071Y-78713608D02*
X67213690Y-78737418D01*
X67213690Y-78737418D02*
X67237500Y-78761227D01*
X67237500Y-78761227D02*
X67261309Y-78808846D01*
X67261309Y-78808846D02*
X67261309Y-78880275D01*
X67261309Y-78880275D02*
X67237500Y-78927894D01*
X67237500Y-78927894D02*
X67213690Y-78951703D01*
X67213690Y-78951703D02*
X67166071Y-78975513D01*
X67166071Y-78975513D02*
X66975595Y-78975513D01*
X67404167Y-78880275D02*
X67594643Y-78880275D01*
X67475595Y-79213608D02*
X67475595Y-78785037D01*
X67475595Y-78785037D02*
X67499405Y-78737418D01*
X67499405Y-78737418D02*
X67547024Y-78713608D01*
X67547024Y-78713608D02*
X67594643Y-78713608D01*
X67999404Y-78713608D02*
X67761309Y-78713608D01*
X67761309Y-78713608D02*
X67737500Y-78951703D01*
X67737500Y-78951703D02*
X67761309Y-78927894D01*
X67761309Y-78927894D02*
X67808928Y-78904084D01*
X67808928Y-78904084D02*
X67927976Y-78904084D01*
X67927976Y-78904084D02*
X67975595Y-78927894D01*
X67975595Y-78927894D02*
X67999404Y-78951703D01*
X67999404Y-78951703D02*
X68023214Y-78999322D01*
X68023214Y-78999322D02*
X68023214Y-79118370D01*
X68023214Y-79118370D02*
X67999404Y-79165989D01*
X67999404Y-79165989D02*
X67975595Y-79189799D01*
X67975595Y-79189799D02*
X67927976Y-79213608D01*
X67927976Y-79213608D02*
X67808928Y-79213608D01*
X67808928Y-79213608D02*
X67761309Y-79189799D01*
X67761309Y-79189799D02*
X67737500Y-79165989D01*
D11*
X88179819Y-59561904D02*
X88989342Y-59561904D01*
X88989342Y-59561904D02*
X89084580Y-59514285D01*
X89084580Y-59514285D02*
X89132200Y-59466666D01*
X89132200Y-59466666D02*
X89179819Y-59371428D01*
X89179819Y-59371428D02*
X89179819Y-59180952D01*
X89179819Y-59180952D02*
X89132200Y-59085714D01*
X89132200Y-59085714D02*
X89084580Y-59038095D01*
X89084580Y-59038095D02*
X88989342Y-58990476D01*
X88989342Y-58990476D02*
X88179819Y-58990476D01*
X88179819Y-58085714D02*
X88179819Y-58276190D01*
X88179819Y-58276190D02*
X88227438Y-58371428D01*
X88227438Y-58371428D02*
X88275057Y-58419047D01*
X88275057Y-58419047D02*
X88417914Y-58514285D01*
X88417914Y-58514285D02*
X88608390Y-58561904D01*
X88608390Y-58561904D02*
X88989342Y-58561904D01*
X88989342Y-58561904D02*
X89084580Y-58514285D01*
X89084580Y-58514285D02*
X89132200Y-58466666D01*
X89132200Y-58466666D02*
X89179819Y-58371428D01*
X89179819Y-58371428D02*
X89179819Y-58180952D01*
X89179819Y-58180952D02*
X89132200Y-58085714D01*
X89132200Y-58085714D02*
X89084580Y-58038095D01*
X89084580Y-58038095D02*
X88989342Y-57990476D01*
X88989342Y-57990476D02*
X88751247Y-57990476D01*
X88751247Y-57990476D02*
X88656009Y-58038095D01*
X88656009Y-58038095D02*
X88608390Y-58085714D01*
X88608390Y-58085714D02*
X88560771Y-58180952D01*
X88560771Y-58180952D02*
X88560771Y-58371428D01*
X88560771Y-58371428D02*
X88608390Y-58466666D01*
X88608390Y-58466666D02*
X88656009Y-58514285D01*
X88656009Y-58514285D02*
X88751247Y-58561904D01*
D10*
X107041213Y-125855952D02*
X107445975Y-125855952D01*
X107445975Y-125855952D02*
X107493594Y-125832142D01*
X107493594Y-125832142D02*
X107517404Y-125808333D01*
X107517404Y-125808333D02*
X107541213Y-125760714D01*
X107541213Y-125760714D02*
X107541213Y-125665476D01*
X107541213Y-125665476D02*
X107517404Y-125617857D01*
X107517404Y-125617857D02*
X107493594Y-125594047D01*
X107493594Y-125594047D02*
X107445975Y-125570238D01*
X107445975Y-125570238D02*
X107041213Y-125570238D01*
X107088832Y-125355951D02*
X107065023Y-125332142D01*
X107065023Y-125332142D02*
X107041213Y-125284523D01*
X107041213Y-125284523D02*
X107041213Y-125165475D01*
X107041213Y-125165475D02*
X107065023Y-125117856D01*
X107065023Y-125117856D02*
X107088832Y-125094047D01*
X107088832Y-125094047D02*
X107136451Y-125070237D01*
X107136451Y-125070237D02*
X107184070Y-125070237D01*
X107184070Y-125070237D02*
X107255499Y-125094047D01*
X107255499Y-125094047D02*
X107541213Y-125379761D01*
X107541213Y-125379761D02*
X107541213Y-125070237D01*
X93175151Y-125013609D02*
X93175151Y-125418371D01*
X93175151Y-125418371D02*
X93198961Y-125465990D01*
X93198961Y-125465990D02*
X93222770Y-125489800D01*
X93222770Y-125489800D02*
X93270389Y-125513609D01*
X93270389Y-125513609D02*
X93365627Y-125513609D01*
X93365627Y-125513609D02*
X93413246Y-125489800D01*
X93413246Y-125489800D02*
X93437056Y-125465990D01*
X93437056Y-125465990D02*
X93460865Y-125418371D01*
X93460865Y-125418371D02*
X93460865Y-125013609D01*
X93960866Y-125513609D02*
X93675152Y-125513609D01*
X93818009Y-125513609D02*
X93818009Y-125013609D01*
X93818009Y-125013609D02*
X93770390Y-125085038D01*
X93770390Y-125085038D02*
X93722771Y-125132657D01*
X93722771Y-125132657D02*
X93675152Y-125156466D01*
X61683484Y-128248728D02*
X61635865Y-128224919D01*
X61635865Y-128224919D02*
X61588246Y-128177300D01*
X61588246Y-128177300D02*
X61516818Y-128105871D01*
X61516818Y-128105871D02*
X61469199Y-128082061D01*
X61469199Y-128082061D02*
X61421580Y-128082061D01*
X61445389Y-128201109D02*
X61397770Y-128177300D01*
X61397770Y-128177300D02*
X61350151Y-128129680D01*
X61350151Y-128129680D02*
X61326342Y-128034442D01*
X61326342Y-128034442D02*
X61326342Y-127867776D01*
X61326342Y-127867776D02*
X61350151Y-127772538D01*
X61350151Y-127772538D02*
X61397770Y-127724919D01*
X61397770Y-127724919D02*
X61445389Y-127701109D01*
X61445389Y-127701109D02*
X61540627Y-127701109D01*
X61540627Y-127701109D02*
X61588246Y-127724919D01*
X61588246Y-127724919D02*
X61635865Y-127772538D01*
X61635865Y-127772538D02*
X61659675Y-127867776D01*
X61659675Y-127867776D02*
X61659675Y-128034442D01*
X61659675Y-128034442D02*
X61635865Y-128129680D01*
X61635865Y-128129680D02*
X61588246Y-128177300D01*
X61588246Y-128177300D02*
X61540627Y-128201109D01*
X61540627Y-128201109D02*
X61445389Y-128201109D01*
X61826342Y-127701109D02*
X62135866Y-127701109D01*
X62135866Y-127701109D02*
X61969199Y-127891585D01*
X61969199Y-127891585D02*
X62040628Y-127891585D01*
X62040628Y-127891585D02*
X62088247Y-127915395D01*
X62088247Y-127915395D02*
X62112056Y-127939204D01*
X62112056Y-127939204D02*
X62135866Y-127986823D01*
X62135866Y-127986823D02*
X62135866Y-128105871D01*
X62135866Y-128105871D02*
X62112056Y-128153490D01*
X62112056Y-128153490D02*
X62088247Y-128177300D01*
X62088247Y-128177300D02*
X62040628Y-128201109D01*
X62040628Y-128201109D02*
X61897771Y-128201109D01*
X61897771Y-128201109D02*
X61850152Y-128177300D01*
X61850152Y-128177300D02*
X61826342Y-128153490D01*
X95768453Y-90413608D02*
X95768453Y-90818370D01*
X95768453Y-90818370D02*
X95792263Y-90865989D01*
X95792263Y-90865989D02*
X95816072Y-90889799D01*
X95816072Y-90889799D02*
X95863691Y-90913608D01*
X95863691Y-90913608D02*
X95958929Y-90913608D01*
X95958929Y-90913608D02*
X96006548Y-90889799D01*
X96006548Y-90889799D02*
X96030358Y-90865989D01*
X96030358Y-90865989D02*
X96054167Y-90818370D01*
X96054167Y-90818370D02*
X96054167Y-90413608D01*
X96554168Y-90913608D02*
X96268454Y-90913608D01*
X96411311Y-90913608D02*
X96411311Y-90413608D01*
X96411311Y-90413608D02*
X96363692Y-90485037D01*
X96363692Y-90485037D02*
X96316073Y-90532656D01*
X96316073Y-90532656D02*
X96268454Y-90556465D01*
X96982739Y-90413608D02*
X96887501Y-90413608D01*
X96887501Y-90413608D02*
X96839882Y-90437418D01*
X96839882Y-90437418D02*
X96816072Y-90461227D01*
X96816072Y-90461227D02*
X96768453Y-90532656D01*
X96768453Y-90532656D02*
X96744644Y-90627894D01*
X96744644Y-90627894D02*
X96744644Y-90818370D01*
X96744644Y-90818370D02*
X96768453Y-90865989D01*
X96768453Y-90865989D02*
X96792263Y-90889799D01*
X96792263Y-90889799D02*
X96839882Y-90913608D01*
X96839882Y-90913608D02*
X96935120Y-90913608D01*
X96935120Y-90913608D02*
X96982739Y-90889799D01*
X96982739Y-90889799D02*
X97006548Y-90865989D01*
X97006548Y-90865989D02*
X97030358Y-90818370D01*
X97030358Y-90818370D02*
X97030358Y-90699322D01*
X97030358Y-90699322D02*
X97006548Y-90651703D01*
X97006548Y-90651703D02*
X96982739Y-90627894D01*
X96982739Y-90627894D02*
X96935120Y-90604084D01*
X96935120Y-90604084D02*
X96839882Y-90604084D01*
X96839882Y-90604084D02*
X96792263Y-90627894D01*
X96792263Y-90627894D02*
X96768453Y-90651703D01*
X96768453Y-90651703D02*
X96744644Y-90699322D01*
X64688608Y-89958927D02*
X64450513Y-90125593D01*
X64688608Y-90244641D02*
X64188608Y-90244641D01*
X64188608Y-90244641D02*
X64188608Y-90054165D01*
X64188608Y-90054165D02*
X64212418Y-90006546D01*
X64212418Y-90006546D02*
X64236227Y-89982736D01*
X64236227Y-89982736D02*
X64283846Y-89958927D01*
X64283846Y-89958927D02*
X64355275Y-89958927D01*
X64355275Y-89958927D02*
X64402894Y-89982736D01*
X64402894Y-89982736D02*
X64426703Y-90006546D01*
X64426703Y-90006546D02*
X64450513Y-90054165D01*
X64450513Y-90054165D02*
X64450513Y-90244641D01*
X64688608Y-89482736D02*
X64688608Y-89768450D01*
X64688608Y-89625593D02*
X64188608Y-89625593D01*
X64188608Y-89625593D02*
X64260037Y-89673212D01*
X64260037Y-89673212D02*
X64307656Y-89720831D01*
X64307656Y-89720831D02*
X64331465Y-89768450D01*
X64188608Y-89316070D02*
X64188608Y-89006546D01*
X64188608Y-89006546D02*
X64379084Y-89173213D01*
X64379084Y-89173213D02*
X64379084Y-89101784D01*
X64379084Y-89101784D02*
X64402894Y-89054165D01*
X64402894Y-89054165D02*
X64426703Y-89030356D01*
X64426703Y-89030356D02*
X64474322Y-89006546D01*
X64474322Y-89006546D02*
X64593370Y-89006546D01*
X64593370Y-89006546D02*
X64640989Y-89030356D01*
X64640989Y-89030356D02*
X64664799Y-89054165D01*
X64664799Y-89054165D02*
X64688608Y-89101784D01*
X64688608Y-89101784D02*
X64688608Y-89244641D01*
X64688608Y-89244641D02*
X64664799Y-89292260D01*
X64664799Y-89292260D02*
X64640989Y-89316070D01*
X64358484Y-123198728D02*
X64310865Y-123174919D01*
X64310865Y-123174919D02*
X64263246Y-123127300D01*
X64263246Y-123127300D02*
X64191818Y-123055871D01*
X64191818Y-123055871D02*
X64144199Y-123032061D01*
X64144199Y-123032061D02*
X64096580Y-123032061D01*
X64120389Y-123151109D02*
X64072770Y-123127300D01*
X64072770Y-123127300D02*
X64025151Y-123079680D01*
X64025151Y-123079680D02*
X64001342Y-122984442D01*
X64001342Y-122984442D02*
X64001342Y-122817776D01*
X64001342Y-122817776D02*
X64025151Y-122722538D01*
X64025151Y-122722538D02*
X64072770Y-122674919D01*
X64072770Y-122674919D02*
X64120389Y-122651109D01*
X64120389Y-122651109D02*
X64215627Y-122651109D01*
X64215627Y-122651109D02*
X64263246Y-122674919D01*
X64263246Y-122674919D02*
X64310865Y-122722538D01*
X64310865Y-122722538D02*
X64334675Y-122817776D01*
X64334675Y-122817776D02*
X64334675Y-122984442D01*
X64334675Y-122984442D02*
X64310865Y-123079680D01*
X64310865Y-123079680D02*
X64263246Y-123127300D01*
X64263246Y-123127300D02*
X64215627Y-123151109D01*
X64215627Y-123151109D02*
X64120389Y-123151109D01*
X64763247Y-122817776D02*
X64763247Y-123151109D01*
X64644199Y-122627300D02*
X64525152Y-122984442D01*
X64525152Y-122984442D02*
X64834675Y-122984442D01*
X97997771Y-124823490D02*
X97973962Y-124847300D01*
X97973962Y-124847300D02*
X97902533Y-124871109D01*
X97902533Y-124871109D02*
X97854914Y-124871109D01*
X97854914Y-124871109D02*
X97783486Y-124847300D01*
X97783486Y-124847300D02*
X97735867Y-124799680D01*
X97735867Y-124799680D02*
X97712057Y-124752061D01*
X97712057Y-124752061D02*
X97688248Y-124656823D01*
X97688248Y-124656823D02*
X97688248Y-124585395D01*
X97688248Y-124585395D02*
X97712057Y-124490157D01*
X97712057Y-124490157D02*
X97735867Y-124442538D01*
X97735867Y-124442538D02*
X97783486Y-124394919D01*
X97783486Y-124394919D02*
X97854914Y-124371109D01*
X97854914Y-124371109D02*
X97902533Y-124371109D01*
X97902533Y-124371109D02*
X97973962Y-124394919D01*
X97973962Y-124394919D02*
X97997771Y-124418728D01*
X98188248Y-124418728D02*
X98212057Y-124394919D01*
X98212057Y-124394919D02*
X98259676Y-124371109D01*
X98259676Y-124371109D02*
X98378724Y-124371109D01*
X98378724Y-124371109D02*
X98426343Y-124394919D01*
X98426343Y-124394919D02*
X98450152Y-124418728D01*
X98450152Y-124418728D02*
X98473962Y-124466347D01*
X98473962Y-124466347D02*
X98473962Y-124513966D01*
X98473962Y-124513966D02*
X98450152Y-124585395D01*
X98450152Y-124585395D02*
X98164438Y-124871109D01*
X98164438Y-124871109D02*
X98473962Y-124871109D01*
X62996510Y-70886308D02*
X62972701Y-70862499D01*
X62972701Y-70862499D02*
X62948891Y-70791070D01*
X62948891Y-70791070D02*
X62948891Y-70743451D01*
X62948891Y-70743451D02*
X62972701Y-70672023D01*
X62972701Y-70672023D02*
X63020320Y-70624404D01*
X63020320Y-70624404D02*
X63067939Y-70600594D01*
X63067939Y-70600594D02*
X63163177Y-70576785D01*
X63163177Y-70576785D02*
X63234605Y-70576785D01*
X63234605Y-70576785D02*
X63329843Y-70600594D01*
X63329843Y-70600594D02*
X63377462Y-70624404D01*
X63377462Y-70624404D02*
X63425081Y-70672023D01*
X63425081Y-70672023D02*
X63448891Y-70743451D01*
X63448891Y-70743451D02*
X63448891Y-70791070D01*
X63448891Y-70791070D02*
X63425081Y-70862499D01*
X63425081Y-70862499D02*
X63401272Y-70886308D01*
X63282224Y-71029166D02*
X63282224Y-71219642D01*
X62948891Y-71100594D02*
X63377462Y-71100594D01*
X63377462Y-71100594D02*
X63425081Y-71124404D01*
X63425081Y-71124404D02*
X63448891Y-71172023D01*
X63448891Y-71172023D02*
X63448891Y-71219642D01*
X63282224Y-71600594D02*
X62948891Y-71600594D01*
X63472701Y-71481546D02*
X63115558Y-71362499D01*
X63115558Y-71362499D02*
X63115558Y-71672022D01*
X71204994Y-123005952D02*
X70800232Y-123005952D01*
X70800232Y-123005952D02*
X70752613Y-123029762D01*
X70752613Y-123029762D02*
X70728804Y-123053571D01*
X70728804Y-123053571D02*
X70704994Y-123101190D01*
X70704994Y-123101190D02*
X70704994Y-123196428D01*
X70704994Y-123196428D02*
X70728804Y-123244047D01*
X70728804Y-123244047D02*
X70752613Y-123267857D01*
X70752613Y-123267857D02*
X70800232Y-123291666D01*
X70800232Y-123291666D02*
X71204994Y-123291666D01*
X70704994Y-123791667D02*
X70704994Y-123505953D01*
X70704994Y-123648810D02*
X71204994Y-123648810D01*
X71204994Y-123648810D02*
X71133565Y-123601191D01*
X71133565Y-123601191D02*
X71085946Y-123553572D01*
X71085946Y-123553572D02*
X71062137Y-123505953D01*
X70704994Y-124267857D02*
X70704994Y-123982143D01*
X70704994Y-124125000D02*
X71204994Y-124125000D01*
X71204994Y-124125000D02*
X71133565Y-124077381D01*
X71133565Y-124077381D02*
X71085946Y-124029762D01*
X71085946Y-124029762D02*
X71062137Y-123982143D01*
D11*
X100503095Y-48004819D02*
X100503095Y-48814342D01*
X100503095Y-48814342D02*
X100550714Y-48909580D01*
X100550714Y-48909580D02*
X100598333Y-48957200D01*
X100598333Y-48957200D02*
X100693571Y-49004819D01*
X100693571Y-49004819D02*
X100884047Y-49004819D01*
X100884047Y-49004819D02*
X100979285Y-48957200D01*
X100979285Y-48957200D02*
X101026904Y-48909580D01*
X101026904Y-48909580D02*
X101074523Y-48814342D01*
X101074523Y-48814342D02*
X101074523Y-48004819D01*
X101979285Y-48338152D02*
X101979285Y-49004819D01*
X101741190Y-47957200D02*
X101503095Y-48671485D01*
X101503095Y-48671485D02*
X102122142Y-48671485D01*
D10*
X97086390Y-86898213D02*
X97324485Y-86731547D01*
X97086390Y-86612499D02*
X97586390Y-86612499D01*
X97586390Y-86612499D02*
X97586390Y-86802975D01*
X97586390Y-86802975D02*
X97562580Y-86850594D01*
X97562580Y-86850594D02*
X97538771Y-86874404D01*
X97538771Y-86874404D02*
X97491152Y-86898213D01*
X97491152Y-86898213D02*
X97419723Y-86898213D01*
X97419723Y-86898213D02*
X97372104Y-86874404D01*
X97372104Y-86874404D02*
X97348295Y-86850594D01*
X97348295Y-86850594D02*
X97324485Y-86802975D01*
X97324485Y-86802975D02*
X97324485Y-86612499D01*
X97419723Y-87041071D02*
X97419723Y-87231547D01*
X97086390Y-87112499D02*
X97514961Y-87112499D01*
X97514961Y-87112499D02*
X97562580Y-87136309D01*
X97562580Y-87136309D02*
X97586390Y-87183928D01*
X97586390Y-87183928D02*
X97586390Y-87231547D01*
X97086390Y-87660118D02*
X97086390Y-87374404D01*
X97086390Y-87517261D02*
X97586390Y-87517261D01*
X97586390Y-87517261D02*
X97514961Y-87469642D01*
X97514961Y-87469642D02*
X97467342Y-87422023D01*
X97467342Y-87422023D02*
X97443533Y-87374404D01*
X97586390Y-87826784D02*
X97586390Y-88136308D01*
X97586390Y-88136308D02*
X97395914Y-87969641D01*
X97395914Y-87969641D02*
X97395914Y-88041070D01*
X97395914Y-88041070D02*
X97372104Y-88088689D01*
X97372104Y-88088689D02*
X97348295Y-88112498D01*
X97348295Y-88112498D02*
X97300676Y-88136308D01*
X97300676Y-88136308D02*
X97181628Y-88136308D01*
X97181628Y-88136308D02*
X97134009Y-88112498D01*
X97134009Y-88112498D02*
X97110200Y-88088689D01*
X97110200Y-88088689D02*
X97086390Y-88041070D01*
X97086390Y-88041070D02*
X97086390Y-87898213D01*
X97086390Y-87898213D02*
X97110200Y-87850594D01*
X97110200Y-87850594D02*
X97134009Y-87826784D01*
X106884675Y-124278490D02*
X106860866Y-124302300D01*
X106860866Y-124302300D02*
X106789437Y-124326109D01*
X106789437Y-124326109D02*
X106741818Y-124326109D01*
X106741818Y-124326109D02*
X106670390Y-124302300D01*
X106670390Y-124302300D02*
X106622771Y-124254680D01*
X106622771Y-124254680D02*
X106598961Y-124207061D01*
X106598961Y-124207061D02*
X106575152Y-124111823D01*
X106575152Y-124111823D02*
X106575152Y-124040395D01*
X106575152Y-124040395D02*
X106598961Y-123945157D01*
X106598961Y-123945157D02*
X106622771Y-123897538D01*
X106622771Y-123897538D02*
X106670390Y-123849919D01*
X106670390Y-123849919D02*
X106741818Y-123826109D01*
X106741818Y-123826109D02*
X106789437Y-123826109D01*
X106789437Y-123826109D02*
X106860866Y-123849919D01*
X106860866Y-123849919D02*
X106884675Y-123873728D01*
X107075152Y-123873728D02*
X107098961Y-123849919D01*
X107098961Y-123849919D02*
X107146580Y-123826109D01*
X107146580Y-123826109D02*
X107265628Y-123826109D01*
X107265628Y-123826109D02*
X107313247Y-123849919D01*
X107313247Y-123849919D02*
X107337056Y-123873728D01*
X107337056Y-123873728D02*
X107360866Y-123921347D01*
X107360866Y-123921347D02*
X107360866Y-123968966D01*
X107360866Y-123968966D02*
X107337056Y-124040395D01*
X107337056Y-124040395D02*
X107051342Y-124326109D01*
X107051342Y-124326109D02*
X107360866Y-124326109D01*
X107813246Y-123826109D02*
X107575151Y-123826109D01*
X107575151Y-123826109D02*
X107551342Y-124064204D01*
X107551342Y-124064204D02*
X107575151Y-124040395D01*
X107575151Y-124040395D02*
X107622770Y-124016585D01*
X107622770Y-124016585D02*
X107741818Y-124016585D01*
X107741818Y-124016585D02*
X107789437Y-124040395D01*
X107789437Y-124040395D02*
X107813246Y-124064204D01*
X107813246Y-124064204D02*
X107837056Y-124111823D01*
X107837056Y-124111823D02*
X107837056Y-124230871D01*
X107837056Y-124230871D02*
X107813246Y-124278490D01*
X107813246Y-124278490D02*
X107789437Y-124302300D01*
X107789437Y-124302300D02*
X107741818Y-124326109D01*
X107741818Y-124326109D02*
X107622770Y-124326109D01*
X107622770Y-124326109D02*
X107575151Y-124302300D01*
X107575151Y-124302300D02*
X107551342Y-124278490D01*
X97891666Y-43026109D02*
X97725000Y-42788014D01*
X97605952Y-43026109D02*
X97605952Y-42526109D01*
X97605952Y-42526109D02*
X97796428Y-42526109D01*
X97796428Y-42526109D02*
X97844047Y-42549919D01*
X97844047Y-42549919D02*
X97867857Y-42573728D01*
X97867857Y-42573728D02*
X97891666Y-42621347D01*
X97891666Y-42621347D02*
X97891666Y-42692776D01*
X97891666Y-42692776D02*
X97867857Y-42740395D01*
X97867857Y-42740395D02*
X97844047Y-42764204D01*
X97844047Y-42764204D02*
X97796428Y-42788014D01*
X97796428Y-42788014D02*
X97605952Y-42788014D01*
X98344047Y-42526109D02*
X98105952Y-42526109D01*
X98105952Y-42526109D02*
X98082143Y-42764204D01*
X98082143Y-42764204D02*
X98105952Y-42740395D01*
X98105952Y-42740395D02*
X98153571Y-42716585D01*
X98153571Y-42716585D02*
X98272619Y-42716585D01*
X98272619Y-42716585D02*
X98320238Y-42740395D01*
X98320238Y-42740395D02*
X98344047Y-42764204D01*
X98344047Y-42764204D02*
X98367857Y-42811823D01*
X98367857Y-42811823D02*
X98367857Y-42930871D01*
X98367857Y-42930871D02*
X98344047Y-42978490D01*
X98344047Y-42978490D02*
X98320238Y-43002300D01*
X98320238Y-43002300D02*
X98272619Y-43026109D01*
X98272619Y-43026109D02*
X98153571Y-43026109D01*
X98153571Y-43026109D02*
X98105952Y-43002300D01*
X98105952Y-43002300D02*
X98082143Y-42978490D01*
X112807345Y-137721109D02*
X112640679Y-137483014D01*
X112521631Y-137721109D02*
X112521631Y-137221109D01*
X112521631Y-137221109D02*
X112712107Y-137221109D01*
X112712107Y-137221109D02*
X112759726Y-137244919D01*
X112759726Y-137244919D02*
X112783536Y-137268728D01*
X112783536Y-137268728D02*
X112807345Y-137316347D01*
X112807345Y-137316347D02*
X112807345Y-137387776D01*
X112807345Y-137387776D02*
X112783536Y-137435395D01*
X112783536Y-137435395D02*
X112759726Y-137459204D01*
X112759726Y-137459204D02*
X112712107Y-137483014D01*
X112712107Y-137483014D02*
X112521631Y-137483014D01*
X112997822Y-137268728D02*
X113021631Y-137244919D01*
X113021631Y-137244919D02*
X113069250Y-137221109D01*
X113069250Y-137221109D02*
X113188298Y-137221109D01*
X113188298Y-137221109D02*
X113235917Y-137244919D01*
X113235917Y-137244919D02*
X113259726Y-137268728D01*
X113259726Y-137268728D02*
X113283536Y-137316347D01*
X113283536Y-137316347D02*
X113283536Y-137363966D01*
X113283536Y-137363966D02*
X113259726Y-137435395D01*
X113259726Y-137435395D02*
X112974012Y-137721109D01*
X112974012Y-137721109D02*
X113283536Y-137721109D01*
X113593059Y-137221109D02*
X113640678Y-137221109D01*
X113640678Y-137221109D02*
X113688297Y-137244919D01*
X113688297Y-137244919D02*
X113712107Y-137268728D01*
X113712107Y-137268728D02*
X113735916Y-137316347D01*
X113735916Y-137316347D02*
X113759726Y-137411585D01*
X113759726Y-137411585D02*
X113759726Y-137530633D01*
X113759726Y-137530633D02*
X113735916Y-137625871D01*
X113735916Y-137625871D02*
X113712107Y-137673490D01*
X113712107Y-137673490D02*
X113688297Y-137697300D01*
X113688297Y-137697300D02*
X113640678Y-137721109D01*
X113640678Y-137721109D02*
X113593059Y-137721109D01*
X113593059Y-137721109D02*
X113545440Y-137697300D01*
X113545440Y-137697300D02*
X113521631Y-137673490D01*
X113521631Y-137673490D02*
X113497821Y-137625871D01*
X113497821Y-137625871D02*
X113474012Y-137530633D01*
X113474012Y-137530633D02*
X113474012Y-137411585D01*
X113474012Y-137411585D02*
X113497821Y-137316347D01*
X113497821Y-137316347D02*
X113521631Y-137268728D01*
X113521631Y-137268728D02*
X113545440Y-137244919D01*
X113545440Y-137244919D02*
X113593059Y-137221109D01*
X69556666Y-56218609D02*
X69390000Y-55980514D01*
X69270952Y-56218609D02*
X69270952Y-55718609D01*
X69270952Y-55718609D02*
X69461428Y-55718609D01*
X69461428Y-55718609D02*
X69509047Y-55742419D01*
X69509047Y-55742419D02*
X69532857Y-55766228D01*
X69532857Y-55766228D02*
X69556666Y-55813847D01*
X69556666Y-55813847D02*
X69556666Y-55885276D01*
X69556666Y-55885276D02*
X69532857Y-55932895D01*
X69532857Y-55932895D02*
X69509047Y-55956704D01*
X69509047Y-55956704D02*
X69461428Y-55980514D01*
X69461428Y-55980514D02*
X69270952Y-55980514D01*
X69723333Y-55718609D02*
X70032857Y-55718609D01*
X70032857Y-55718609D02*
X69866190Y-55909085D01*
X69866190Y-55909085D02*
X69937619Y-55909085D01*
X69937619Y-55909085D02*
X69985238Y-55932895D01*
X69985238Y-55932895D02*
X70009047Y-55956704D01*
X70009047Y-55956704D02*
X70032857Y-56004323D01*
X70032857Y-56004323D02*
X70032857Y-56123371D01*
X70032857Y-56123371D02*
X70009047Y-56170990D01*
X70009047Y-56170990D02*
X69985238Y-56194800D01*
X69985238Y-56194800D02*
X69937619Y-56218609D01*
X69937619Y-56218609D02*
X69794762Y-56218609D01*
X69794762Y-56218609D02*
X69747143Y-56194800D01*
X69747143Y-56194800D02*
X69723333Y-56170990D01*
X113678571Y-100158490D02*
X113654762Y-100182300D01*
X113654762Y-100182300D02*
X113583333Y-100206109D01*
X113583333Y-100206109D02*
X113535714Y-100206109D01*
X113535714Y-100206109D02*
X113464286Y-100182300D01*
X113464286Y-100182300D02*
X113416667Y-100134680D01*
X113416667Y-100134680D02*
X113392857Y-100087061D01*
X113392857Y-100087061D02*
X113369048Y-99991823D01*
X113369048Y-99991823D02*
X113369048Y-99920395D01*
X113369048Y-99920395D02*
X113392857Y-99825157D01*
X113392857Y-99825157D02*
X113416667Y-99777538D01*
X113416667Y-99777538D02*
X113464286Y-99729919D01*
X113464286Y-99729919D02*
X113535714Y-99706109D01*
X113535714Y-99706109D02*
X113583333Y-99706109D01*
X113583333Y-99706109D02*
X113654762Y-99729919D01*
X113654762Y-99729919D02*
X113678571Y-99753728D01*
X114154762Y-100206109D02*
X113869048Y-100206109D01*
X114011905Y-100206109D02*
X114011905Y-99706109D01*
X114011905Y-99706109D02*
X113964286Y-99777538D01*
X113964286Y-99777538D02*
X113916667Y-99825157D01*
X113916667Y-99825157D02*
X113869048Y-99848966D01*
X114607142Y-99706109D02*
X114369047Y-99706109D01*
X114369047Y-99706109D02*
X114345238Y-99944204D01*
X114345238Y-99944204D02*
X114369047Y-99920395D01*
X114369047Y-99920395D02*
X114416666Y-99896585D01*
X114416666Y-99896585D02*
X114535714Y-99896585D01*
X114535714Y-99896585D02*
X114583333Y-99920395D01*
X114583333Y-99920395D02*
X114607142Y-99944204D01*
X114607142Y-99944204D02*
X114630952Y-99991823D01*
X114630952Y-99991823D02*
X114630952Y-100110871D01*
X114630952Y-100110871D02*
X114607142Y-100158490D01*
X114607142Y-100158490D02*
X114583333Y-100182300D01*
X114583333Y-100182300D02*
X114535714Y-100206109D01*
X114535714Y-100206109D02*
X114416666Y-100206109D01*
X114416666Y-100206109D02*
X114369047Y-100182300D01*
X114369047Y-100182300D02*
X114345238Y-100158490D01*
X106152381Y-49303490D02*
X106128572Y-49327300D01*
X106128572Y-49327300D02*
X106057143Y-49351109D01*
X106057143Y-49351109D02*
X106009524Y-49351109D01*
X106009524Y-49351109D02*
X105938096Y-49327300D01*
X105938096Y-49327300D02*
X105890477Y-49279680D01*
X105890477Y-49279680D02*
X105866667Y-49232061D01*
X105866667Y-49232061D02*
X105842858Y-49136823D01*
X105842858Y-49136823D02*
X105842858Y-49065395D01*
X105842858Y-49065395D02*
X105866667Y-48970157D01*
X105866667Y-48970157D02*
X105890477Y-48922538D01*
X105890477Y-48922538D02*
X105938096Y-48874919D01*
X105938096Y-48874919D02*
X106009524Y-48851109D01*
X106009524Y-48851109D02*
X106057143Y-48851109D01*
X106057143Y-48851109D02*
X106128572Y-48874919D01*
X106128572Y-48874919D02*
X106152381Y-48898728D01*
X106366667Y-49351109D02*
X106366667Y-48851109D01*
X106366667Y-49041585D02*
X106414286Y-49017776D01*
X106414286Y-49017776D02*
X106509524Y-49017776D01*
X106509524Y-49017776D02*
X106557143Y-49041585D01*
X106557143Y-49041585D02*
X106580953Y-49065395D01*
X106580953Y-49065395D02*
X106604762Y-49113014D01*
X106604762Y-49113014D02*
X106604762Y-49255871D01*
X106604762Y-49255871D02*
X106580953Y-49303490D01*
X106580953Y-49303490D02*
X106557143Y-49327300D01*
X106557143Y-49327300D02*
X106509524Y-49351109D01*
X106509524Y-49351109D02*
X106414286Y-49351109D01*
X106414286Y-49351109D02*
X106366667Y-49327300D01*
X106795239Y-48898728D02*
X106819048Y-48874919D01*
X106819048Y-48874919D02*
X106866667Y-48851109D01*
X106866667Y-48851109D02*
X106985715Y-48851109D01*
X106985715Y-48851109D02*
X107033334Y-48874919D01*
X107033334Y-48874919D02*
X107057143Y-48898728D01*
X107057143Y-48898728D02*
X107080953Y-48946347D01*
X107080953Y-48946347D02*
X107080953Y-48993966D01*
X107080953Y-48993966D02*
X107057143Y-49065395D01*
X107057143Y-49065395D02*
X106771429Y-49351109D01*
X106771429Y-49351109D02*
X107080953Y-49351109D01*
X107509524Y-49017776D02*
X107509524Y-49351109D01*
X107390476Y-48827300D02*
X107271429Y-49184442D01*
X107271429Y-49184442D02*
X107580952Y-49184442D01*
X96972770Y-120976108D02*
X96734675Y-120976108D01*
X96734675Y-120976108D02*
X96734675Y-120476108D01*
X97401342Y-120976108D02*
X97115628Y-120976108D01*
X97258485Y-120976108D02*
X97258485Y-120476108D01*
X97258485Y-120476108D02*
X97210866Y-120547537D01*
X97210866Y-120547537D02*
X97163247Y-120595156D01*
X97163247Y-120595156D02*
X97115628Y-120618965D01*
X109659675Y-131503490D02*
X109635866Y-131527300D01*
X109635866Y-131527300D02*
X109564437Y-131551109D01*
X109564437Y-131551109D02*
X109516818Y-131551109D01*
X109516818Y-131551109D02*
X109445390Y-131527300D01*
X109445390Y-131527300D02*
X109397771Y-131479680D01*
X109397771Y-131479680D02*
X109373961Y-131432061D01*
X109373961Y-131432061D02*
X109350152Y-131336823D01*
X109350152Y-131336823D02*
X109350152Y-131265395D01*
X109350152Y-131265395D02*
X109373961Y-131170157D01*
X109373961Y-131170157D02*
X109397771Y-131122538D01*
X109397771Y-131122538D02*
X109445390Y-131074919D01*
X109445390Y-131074919D02*
X109516818Y-131051109D01*
X109516818Y-131051109D02*
X109564437Y-131051109D01*
X109564437Y-131051109D02*
X109635866Y-131074919D01*
X109635866Y-131074919D02*
X109659675Y-131098728D01*
X109850152Y-131098728D02*
X109873961Y-131074919D01*
X109873961Y-131074919D02*
X109921580Y-131051109D01*
X109921580Y-131051109D02*
X110040628Y-131051109D01*
X110040628Y-131051109D02*
X110088247Y-131074919D01*
X110088247Y-131074919D02*
X110112056Y-131098728D01*
X110112056Y-131098728D02*
X110135866Y-131146347D01*
X110135866Y-131146347D02*
X110135866Y-131193966D01*
X110135866Y-131193966D02*
X110112056Y-131265395D01*
X110112056Y-131265395D02*
X109826342Y-131551109D01*
X109826342Y-131551109D02*
X110135866Y-131551109D01*
X110564437Y-131051109D02*
X110469199Y-131051109D01*
X110469199Y-131051109D02*
X110421580Y-131074919D01*
X110421580Y-131074919D02*
X110397770Y-131098728D01*
X110397770Y-131098728D02*
X110350151Y-131170157D01*
X110350151Y-131170157D02*
X110326342Y-131265395D01*
X110326342Y-131265395D02*
X110326342Y-131455871D01*
X110326342Y-131455871D02*
X110350151Y-131503490D01*
X110350151Y-131503490D02*
X110373961Y-131527300D01*
X110373961Y-131527300D02*
X110421580Y-131551109D01*
X110421580Y-131551109D02*
X110516818Y-131551109D01*
X110516818Y-131551109D02*
X110564437Y-131527300D01*
X110564437Y-131527300D02*
X110588246Y-131503490D01*
X110588246Y-131503490D02*
X110612056Y-131455871D01*
X110612056Y-131455871D02*
X110612056Y-131336823D01*
X110612056Y-131336823D02*
X110588246Y-131289204D01*
X110588246Y-131289204D02*
X110564437Y-131265395D01*
X110564437Y-131265395D02*
X110516818Y-131241585D01*
X110516818Y-131241585D02*
X110421580Y-131241585D01*
X110421580Y-131241585D02*
X110373961Y-131265395D01*
X110373961Y-131265395D02*
X110350151Y-131289204D01*
X110350151Y-131289204D02*
X110326342Y-131336823D01*
X93197771Y-121478490D02*
X93173962Y-121502300D01*
X93173962Y-121502300D02*
X93102533Y-121526109D01*
X93102533Y-121526109D02*
X93054914Y-121526109D01*
X93054914Y-121526109D02*
X92983486Y-121502300D01*
X92983486Y-121502300D02*
X92935867Y-121454680D01*
X92935867Y-121454680D02*
X92912057Y-121407061D01*
X92912057Y-121407061D02*
X92888248Y-121311823D01*
X92888248Y-121311823D02*
X92888248Y-121240395D01*
X92888248Y-121240395D02*
X92912057Y-121145157D01*
X92912057Y-121145157D02*
X92935867Y-121097538D01*
X92935867Y-121097538D02*
X92983486Y-121049919D01*
X92983486Y-121049919D02*
X93054914Y-121026109D01*
X93054914Y-121026109D02*
X93102533Y-121026109D01*
X93102533Y-121026109D02*
X93173962Y-121049919D01*
X93173962Y-121049919D02*
X93197771Y-121073728D01*
X93364438Y-121026109D02*
X93673962Y-121026109D01*
X93673962Y-121026109D02*
X93507295Y-121216585D01*
X93507295Y-121216585D02*
X93578724Y-121216585D01*
X93578724Y-121216585D02*
X93626343Y-121240395D01*
X93626343Y-121240395D02*
X93650152Y-121264204D01*
X93650152Y-121264204D02*
X93673962Y-121311823D01*
X93673962Y-121311823D02*
X93673962Y-121430871D01*
X93673962Y-121430871D02*
X93650152Y-121478490D01*
X93650152Y-121478490D02*
X93626343Y-121502300D01*
X93626343Y-121502300D02*
X93578724Y-121526109D01*
X93578724Y-121526109D02*
X93435867Y-121526109D01*
X93435867Y-121526109D02*
X93388248Y-121502300D01*
X93388248Y-121502300D02*
X93364438Y-121478490D01*
X105365991Y-71485117D02*
X105389801Y-71508926D01*
X105389801Y-71508926D02*
X105413610Y-71580355D01*
X105413610Y-71580355D02*
X105413610Y-71627974D01*
X105413610Y-71627974D02*
X105389801Y-71699402D01*
X105389801Y-71699402D02*
X105342181Y-71747021D01*
X105342181Y-71747021D02*
X105294562Y-71770831D01*
X105294562Y-71770831D02*
X105199324Y-71794640D01*
X105199324Y-71794640D02*
X105127896Y-71794640D01*
X105127896Y-71794640D02*
X105032658Y-71770831D01*
X105032658Y-71770831D02*
X104985039Y-71747021D01*
X104985039Y-71747021D02*
X104937420Y-71699402D01*
X104937420Y-71699402D02*
X104913610Y-71627974D01*
X104913610Y-71627974D02*
X104913610Y-71580355D01*
X104913610Y-71580355D02*
X104937420Y-71508926D01*
X104937420Y-71508926D02*
X104961229Y-71485117D01*
X105413610Y-71270831D02*
X104913610Y-71270831D01*
X105104086Y-71270831D02*
X105080277Y-71223212D01*
X105080277Y-71223212D02*
X105080277Y-71127974D01*
X105080277Y-71127974D02*
X105104086Y-71080355D01*
X105104086Y-71080355D02*
X105127896Y-71056545D01*
X105127896Y-71056545D02*
X105175515Y-71032736D01*
X105175515Y-71032736D02*
X105318372Y-71032736D01*
X105318372Y-71032736D02*
X105365991Y-71056545D01*
X105365991Y-71056545D02*
X105389801Y-71080355D01*
X105389801Y-71080355D02*
X105413610Y-71127974D01*
X105413610Y-71127974D02*
X105413610Y-71223212D01*
X105413610Y-71223212D02*
X105389801Y-71270831D01*
X105413610Y-70556545D02*
X105413610Y-70842259D01*
X105413610Y-70699402D02*
X104913610Y-70699402D01*
X104913610Y-70699402D02*
X104985039Y-70747021D01*
X104985039Y-70747021D02*
X105032658Y-70794640D01*
X105032658Y-70794640D02*
X105056467Y-70842259D01*
X105127896Y-70270831D02*
X105104086Y-70318450D01*
X105104086Y-70318450D02*
X105080277Y-70342260D01*
X105080277Y-70342260D02*
X105032658Y-70366069D01*
X105032658Y-70366069D02*
X105008848Y-70366069D01*
X105008848Y-70366069D02*
X104961229Y-70342260D01*
X104961229Y-70342260D02*
X104937420Y-70318450D01*
X104937420Y-70318450D02*
X104913610Y-70270831D01*
X104913610Y-70270831D02*
X104913610Y-70175593D01*
X104913610Y-70175593D02*
X104937420Y-70127974D01*
X104937420Y-70127974D02*
X104961229Y-70104165D01*
X104961229Y-70104165D02*
X105008848Y-70080355D01*
X105008848Y-70080355D02*
X105032658Y-70080355D01*
X105032658Y-70080355D02*
X105080277Y-70104165D01*
X105080277Y-70104165D02*
X105104086Y-70127974D01*
X105104086Y-70127974D02*
X105127896Y-70175593D01*
X105127896Y-70175593D02*
X105127896Y-70270831D01*
X105127896Y-70270831D02*
X105151705Y-70318450D01*
X105151705Y-70318450D02*
X105175515Y-70342260D01*
X105175515Y-70342260D02*
X105223134Y-70366069D01*
X105223134Y-70366069D02*
X105318372Y-70366069D01*
X105318372Y-70366069D02*
X105365991Y-70342260D01*
X105365991Y-70342260D02*
X105389801Y-70318450D01*
X105389801Y-70318450D02*
X105413610Y-70270831D01*
X105413610Y-70270831D02*
X105413610Y-70175593D01*
X105413610Y-70175593D02*
X105389801Y-70127974D01*
X105389801Y-70127974D02*
X105365991Y-70104165D01*
X105365991Y-70104165D02*
X105318372Y-70080355D01*
X105318372Y-70080355D02*
X105223134Y-70080355D01*
X105223134Y-70080355D02*
X105175515Y-70104165D01*
X105175515Y-70104165D02*
X105151705Y-70127974D01*
X105151705Y-70127974D02*
X105127896Y-70175593D01*
X98465476Y-60828490D02*
X98441667Y-60852300D01*
X98441667Y-60852300D02*
X98370238Y-60876109D01*
X98370238Y-60876109D02*
X98322619Y-60876109D01*
X98322619Y-60876109D02*
X98251191Y-60852300D01*
X98251191Y-60852300D02*
X98203572Y-60804680D01*
X98203572Y-60804680D02*
X98179762Y-60757061D01*
X98179762Y-60757061D02*
X98155953Y-60661823D01*
X98155953Y-60661823D02*
X98155953Y-60590395D01*
X98155953Y-60590395D02*
X98179762Y-60495157D01*
X98179762Y-60495157D02*
X98203572Y-60447538D01*
X98203572Y-60447538D02*
X98251191Y-60399919D01*
X98251191Y-60399919D02*
X98322619Y-60376109D01*
X98322619Y-60376109D02*
X98370238Y-60376109D01*
X98370238Y-60376109D02*
X98441667Y-60399919D01*
X98441667Y-60399919D02*
X98465476Y-60423728D01*
X98679762Y-60876109D02*
X98679762Y-60376109D01*
X98679762Y-60566585D02*
X98727381Y-60542776D01*
X98727381Y-60542776D02*
X98822619Y-60542776D01*
X98822619Y-60542776D02*
X98870238Y-60566585D01*
X98870238Y-60566585D02*
X98894048Y-60590395D01*
X98894048Y-60590395D02*
X98917857Y-60638014D01*
X98917857Y-60638014D02*
X98917857Y-60780871D01*
X98917857Y-60780871D02*
X98894048Y-60828490D01*
X98894048Y-60828490D02*
X98870238Y-60852300D01*
X98870238Y-60852300D02*
X98822619Y-60876109D01*
X98822619Y-60876109D02*
X98727381Y-60876109D01*
X98727381Y-60876109D02*
X98679762Y-60852300D01*
X99346429Y-60376109D02*
X99251191Y-60376109D01*
X99251191Y-60376109D02*
X99203572Y-60399919D01*
X99203572Y-60399919D02*
X99179762Y-60423728D01*
X99179762Y-60423728D02*
X99132143Y-60495157D01*
X99132143Y-60495157D02*
X99108334Y-60590395D01*
X99108334Y-60590395D02*
X99108334Y-60780871D01*
X99108334Y-60780871D02*
X99132143Y-60828490D01*
X99132143Y-60828490D02*
X99155953Y-60852300D01*
X99155953Y-60852300D02*
X99203572Y-60876109D01*
X99203572Y-60876109D02*
X99298810Y-60876109D01*
X99298810Y-60876109D02*
X99346429Y-60852300D01*
X99346429Y-60852300D02*
X99370238Y-60828490D01*
X99370238Y-60828490D02*
X99394048Y-60780871D01*
X99394048Y-60780871D02*
X99394048Y-60661823D01*
X99394048Y-60661823D02*
X99370238Y-60614204D01*
X99370238Y-60614204D02*
X99346429Y-60590395D01*
X99346429Y-60590395D02*
X99298810Y-60566585D01*
X99298810Y-60566585D02*
X99203572Y-60566585D01*
X99203572Y-60566585D02*
X99155953Y-60590395D01*
X99155953Y-60590395D02*
X99132143Y-60614204D01*
X99132143Y-60614204D02*
X99108334Y-60661823D01*
X96389882Y-99440989D02*
X96366073Y-99464799D01*
X96366073Y-99464799D02*
X96294644Y-99488608D01*
X96294644Y-99488608D02*
X96247025Y-99488608D01*
X96247025Y-99488608D02*
X96175597Y-99464799D01*
X96175597Y-99464799D02*
X96127978Y-99417179D01*
X96127978Y-99417179D02*
X96104168Y-99369560D01*
X96104168Y-99369560D02*
X96080359Y-99274322D01*
X96080359Y-99274322D02*
X96080359Y-99202894D01*
X96080359Y-99202894D02*
X96104168Y-99107656D01*
X96104168Y-99107656D02*
X96127978Y-99060037D01*
X96127978Y-99060037D02*
X96175597Y-99012418D01*
X96175597Y-99012418D02*
X96247025Y-98988608D01*
X96247025Y-98988608D02*
X96294644Y-98988608D01*
X96294644Y-98988608D02*
X96366073Y-99012418D01*
X96366073Y-99012418D02*
X96389882Y-99036227D01*
X96604168Y-99488608D02*
X96604168Y-98988608D01*
X96604168Y-99179084D02*
X96651787Y-99155275D01*
X96651787Y-99155275D02*
X96747025Y-99155275D01*
X96747025Y-99155275D02*
X96794644Y-99179084D01*
X96794644Y-99179084D02*
X96818454Y-99202894D01*
X96818454Y-99202894D02*
X96842263Y-99250513D01*
X96842263Y-99250513D02*
X96842263Y-99393370D01*
X96842263Y-99393370D02*
X96818454Y-99440989D01*
X96818454Y-99440989D02*
X96794644Y-99464799D01*
X96794644Y-99464799D02*
X96747025Y-99488608D01*
X96747025Y-99488608D02*
X96651787Y-99488608D01*
X96651787Y-99488608D02*
X96604168Y-99464799D01*
X97032740Y-99036227D02*
X97056549Y-99012418D01*
X97056549Y-99012418D02*
X97104168Y-98988608D01*
X97104168Y-98988608D02*
X97223216Y-98988608D01*
X97223216Y-98988608D02*
X97270835Y-99012418D01*
X97270835Y-99012418D02*
X97294644Y-99036227D01*
X97294644Y-99036227D02*
X97318454Y-99083846D01*
X97318454Y-99083846D02*
X97318454Y-99131465D01*
X97318454Y-99131465D02*
X97294644Y-99202894D01*
X97294644Y-99202894D02*
X97008930Y-99488608D01*
X97008930Y-99488608D02*
X97318454Y-99488608D01*
X97508930Y-99036227D02*
X97532739Y-99012418D01*
X97532739Y-99012418D02*
X97580358Y-98988608D01*
X97580358Y-98988608D02*
X97699406Y-98988608D01*
X97699406Y-98988608D02*
X97747025Y-99012418D01*
X97747025Y-99012418D02*
X97770834Y-99036227D01*
X97770834Y-99036227D02*
X97794644Y-99083846D01*
X97794644Y-99083846D02*
X97794644Y-99131465D01*
X97794644Y-99131465D02*
X97770834Y-99202894D01*
X97770834Y-99202894D02*
X97485120Y-99488608D01*
X97485120Y-99488608D02*
X97794644Y-99488608D01*
X75788809Y-59670990D02*
X75765000Y-59694800D01*
X75765000Y-59694800D02*
X75693571Y-59718609D01*
X75693571Y-59718609D02*
X75645952Y-59718609D01*
X75645952Y-59718609D02*
X75574524Y-59694800D01*
X75574524Y-59694800D02*
X75526905Y-59647180D01*
X75526905Y-59647180D02*
X75503095Y-59599561D01*
X75503095Y-59599561D02*
X75479286Y-59504323D01*
X75479286Y-59504323D02*
X75479286Y-59432895D01*
X75479286Y-59432895D02*
X75503095Y-59337657D01*
X75503095Y-59337657D02*
X75526905Y-59290038D01*
X75526905Y-59290038D02*
X75574524Y-59242419D01*
X75574524Y-59242419D02*
X75645952Y-59218609D01*
X75645952Y-59218609D02*
X75693571Y-59218609D01*
X75693571Y-59218609D02*
X75765000Y-59242419D01*
X75765000Y-59242419D02*
X75788809Y-59266228D01*
X75931667Y-59385276D02*
X76122143Y-59385276D01*
X76003095Y-59718609D02*
X76003095Y-59290038D01*
X76003095Y-59290038D02*
X76026905Y-59242419D01*
X76026905Y-59242419D02*
X76074524Y-59218609D01*
X76074524Y-59218609D02*
X76122143Y-59218609D01*
X76265000Y-59266228D02*
X76288809Y-59242419D01*
X76288809Y-59242419D02*
X76336428Y-59218609D01*
X76336428Y-59218609D02*
X76455476Y-59218609D01*
X76455476Y-59218609D02*
X76503095Y-59242419D01*
X76503095Y-59242419D02*
X76526904Y-59266228D01*
X76526904Y-59266228D02*
X76550714Y-59313847D01*
X76550714Y-59313847D02*
X76550714Y-59361466D01*
X76550714Y-59361466D02*
X76526904Y-59432895D01*
X76526904Y-59432895D02*
X76241190Y-59718609D01*
X76241190Y-59718609D02*
X76550714Y-59718609D01*
X100316666Y-50303490D02*
X100292857Y-50327300D01*
X100292857Y-50327300D02*
X100221428Y-50351109D01*
X100221428Y-50351109D02*
X100173809Y-50351109D01*
X100173809Y-50351109D02*
X100102381Y-50327300D01*
X100102381Y-50327300D02*
X100054762Y-50279680D01*
X100054762Y-50279680D02*
X100030952Y-50232061D01*
X100030952Y-50232061D02*
X100007143Y-50136823D01*
X100007143Y-50136823D02*
X100007143Y-50065395D01*
X100007143Y-50065395D02*
X100030952Y-49970157D01*
X100030952Y-49970157D02*
X100054762Y-49922538D01*
X100054762Y-49922538D02*
X100102381Y-49874919D01*
X100102381Y-49874919D02*
X100173809Y-49851109D01*
X100173809Y-49851109D02*
X100221428Y-49851109D01*
X100221428Y-49851109D02*
X100292857Y-49874919D01*
X100292857Y-49874919D02*
X100316666Y-49898728D01*
X100483333Y-49851109D02*
X100816666Y-49851109D01*
X100816666Y-49851109D02*
X100602381Y-50351109D01*
X98090991Y-75863689D02*
X98114801Y-75887498D01*
X98114801Y-75887498D02*
X98138610Y-75958927D01*
X98138610Y-75958927D02*
X98138610Y-76006546D01*
X98138610Y-76006546D02*
X98114801Y-76077974D01*
X98114801Y-76077974D02*
X98067181Y-76125593D01*
X98067181Y-76125593D02*
X98019562Y-76149403D01*
X98019562Y-76149403D02*
X97924324Y-76173212D01*
X97924324Y-76173212D02*
X97852896Y-76173212D01*
X97852896Y-76173212D02*
X97757658Y-76149403D01*
X97757658Y-76149403D02*
X97710039Y-76125593D01*
X97710039Y-76125593D02*
X97662420Y-76077974D01*
X97662420Y-76077974D02*
X97638610Y-76006546D01*
X97638610Y-76006546D02*
X97638610Y-75958927D01*
X97638610Y-75958927D02*
X97662420Y-75887498D01*
X97662420Y-75887498D02*
X97686229Y-75863689D01*
X97805277Y-75720831D02*
X97805277Y-75530355D01*
X98138610Y-75649403D02*
X97710039Y-75649403D01*
X97710039Y-75649403D02*
X97662420Y-75625593D01*
X97662420Y-75625593D02*
X97638610Y-75577974D01*
X97638610Y-75577974D02*
X97638610Y-75530355D01*
X97638610Y-75125594D02*
X97638610Y-75363689D01*
X97638610Y-75363689D02*
X97876705Y-75387498D01*
X97876705Y-75387498D02*
X97852896Y-75363689D01*
X97852896Y-75363689D02*
X97829086Y-75316070D01*
X97829086Y-75316070D02*
X97829086Y-75197022D01*
X97829086Y-75197022D02*
X97852896Y-75149403D01*
X97852896Y-75149403D02*
X97876705Y-75125594D01*
X97876705Y-75125594D02*
X97924324Y-75101784D01*
X97924324Y-75101784D02*
X98043372Y-75101784D01*
X98043372Y-75101784D02*
X98090991Y-75125594D01*
X98090991Y-75125594D02*
X98114801Y-75149403D01*
X98114801Y-75149403D02*
X98138610Y-75197022D01*
X98138610Y-75197022D02*
X98138610Y-75316070D01*
X98138610Y-75316070D02*
X98114801Y-75363689D01*
X98114801Y-75363689D02*
X98090991Y-75387498D01*
X62351190Y-56301109D02*
X62184524Y-56063014D01*
X62065476Y-56301109D02*
X62065476Y-55801109D01*
X62065476Y-55801109D02*
X62255952Y-55801109D01*
X62255952Y-55801109D02*
X62303571Y-55824919D01*
X62303571Y-55824919D02*
X62327381Y-55848728D01*
X62327381Y-55848728D02*
X62351190Y-55896347D01*
X62351190Y-55896347D02*
X62351190Y-55967776D01*
X62351190Y-55967776D02*
X62327381Y-56015395D01*
X62327381Y-56015395D02*
X62303571Y-56039204D01*
X62303571Y-56039204D02*
X62255952Y-56063014D01*
X62255952Y-56063014D02*
X62065476Y-56063014D01*
X62494048Y-55801109D02*
X62779762Y-55801109D01*
X62636905Y-56301109D02*
X62636905Y-55801109D01*
X63208333Y-56301109D02*
X62922619Y-56301109D01*
X63065476Y-56301109D02*
X63065476Y-55801109D01*
X63065476Y-55801109D02*
X63017857Y-55872538D01*
X63017857Y-55872538D02*
X62970238Y-55920157D01*
X62970238Y-55920157D02*
X62922619Y-55943966D01*
X94390991Y-71338689D02*
X94414801Y-71362498D01*
X94414801Y-71362498D02*
X94438610Y-71433927D01*
X94438610Y-71433927D02*
X94438610Y-71481546D01*
X94438610Y-71481546D02*
X94414801Y-71552974D01*
X94414801Y-71552974D02*
X94367181Y-71600593D01*
X94367181Y-71600593D02*
X94319562Y-71624403D01*
X94319562Y-71624403D02*
X94224324Y-71648212D01*
X94224324Y-71648212D02*
X94152896Y-71648212D01*
X94152896Y-71648212D02*
X94057658Y-71624403D01*
X94057658Y-71624403D02*
X94010039Y-71600593D01*
X94010039Y-71600593D02*
X93962420Y-71552974D01*
X93962420Y-71552974D02*
X93938610Y-71481546D01*
X93938610Y-71481546D02*
X93938610Y-71433927D01*
X93938610Y-71433927D02*
X93962420Y-71362498D01*
X93962420Y-71362498D02*
X93986229Y-71338689D01*
X94105277Y-71195831D02*
X94105277Y-71005355D01*
X94438610Y-71124403D02*
X94010039Y-71124403D01*
X94010039Y-71124403D02*
X93962420Y-71100593D01*
X93962420Y-71100593D02*
X93938610Y-71052974D01*
X93938610Y-71052974D02*
X93938610Y-71005355D01*
X93938610Y-70624403D02*
X93938610Y-70719641D01*
X93938610Y-70719641D02*
X93962420Y-70767260D01*
X93962420Y-70767260D02*
X93986229Y-70791070D01*
X93986229Y-70791070D02*
X94057658Y-70838689D01*
X94057658Y-70838689D02*
X94152896Y-70862498D01*
X94152896Y-70862498D02*
X94343372Y-70862498D01*
X94343372Y-70862498D02*
X94390991Y-70838689D01*
X94390991Y-70838689D02*
X94414801Y-70814879D01*
X94414801Y-70814879D02*
X94438610Y-70767260D01*
X94438610Y-70767260D02*
X94438610Y-70672022D01*
X94438610Y-70672022D02*
X94414801Y-70624403D01*
X94414801Y-70624403D02*
X94390991Y-70600594D01*
X94390991Y-70600594D02*
X94343372Y-70576784D01*
X94343372Y-70576784D02*
X94224324Y-70576784D01*
X94224324Y-70576784D02*
X94176705Y-70600594D01*
X94176705Y-70600594D02*
X94152896Y-70624403D01*
X94152896Y-70624403D02*
X94129086Y-70672022D01*
X94129086Y-70672022D02*
X94129086Y-70767260D01*
X94129086Y-70767260D02*
X94152896Y-70814879D01*
X94152896Y-70814879D02*
X94176705Y-70838689D01*
X94176705Y-70838689D02*
X94224324Y-70862498D01*
X101543453Y-67588608D02*
X101543453Y-67993370D01*
X101543453Y-67993370D02*
X101567263Y-68040989D01*
X101567263Y-68040989D02*
X101591072Y-68064799D01*
X101591072Y-68064799D02*
X101638691Y-68088608D01*
X101638691Y-68088608D02*
X101733929Y-68088608D01*
X101733929Y-68088608D02*
X101781548Y-68064799D01*
X101781548Y-68064799D02*
X101805358Y-68040989D01*
X101805358Y-68040989D02*
X101829167Y-67993370D01*
X101829167Y-67993370D02*
X101829167Y-67588608D01*
X102329168Y-68088608D02*
X102043454Y-68088608D01*
X102186311Y-68088608D02*
X102186311Y-67588608D01*
X102186311Y-67588608D02*
X102138692Y-67660037D01*
X102138692Y-67660037D02*
X102091073Y-67707656D01*
X102091073Y-67707656D02*
X102043454Y-67731465D01*
X102495834Y-67588608D02*
X102805358Y-67588608D01*
X102805358Y-67588608D02*
X102638691Y-67779084D01*
X102638691Y-67779084D02*
X102710120Y-67779084D01*
X102710120Y-67779084D02*
X102757739Y-67802894D01*
X102757739Y-67802894D02*
X102781548Y-67826703D01*
X102781548Y-67826703D02*
X102805358Y-67874322D01*
X102805358Y-67874322D02*
X102805358Y-67993370D01*
X102805358Y-67993370D02*
X102781548Y-68040989D01*
X102781548Y-68040989D02*
X102757739Y-68064799D01*
X102757739Y-68064799D02*
X102710120Y-68088608D01*
X102710120Y-68088608D02*
X102567263Y-68088608D01*
X102567263Y-68088608D02*
X102519644Y-68064799D01*
X102519644Y-68064799D02*
X102495834Y-68040989D01*
X89068126Y-125958877D02*
X88830031Y-126125543D01*
X89068126Y-126244591D02*
X88568126Y-126244591D01*
X88568126Y-126244591D02*
X88568126Y-126054115D01*
X88568126Y-126054115D02*
X88591936Y-126006496D01*
X88591936Y-126006496D02*
X88615745Y-125982686D01*
X88615745Y-125982686D02*
X88663364Y-125958877D01*
X88663364Y-125958877D02*
X88734793Y-125958877D01*
X88734793Y-125958877D02*
X88782412Y-125982686D01*
X88782412Y-125982686D02*
X88806221Y-126006496D01*
X88806221Y-126006496D02*
X88830031Y-126054115D01*
X88830031Y-126054115D02*
X88830031Y-126244591D01*
X88734793Y-125816019D02*
X88734793Y-125625543D01*
X89068126Y-125744591D02*
X88639555Y-125744591D01*
X88639555Y-125744591D02*
X88591936Y-125720781D01*
X88591936Y-125720781D02*
X88568126Y-125673162D01*
X88568126Y-125673162D02*
X88568126Y-125625543D01*
X89068126Y-125458877D02*
X88568126Y-125458877D01*
X88758602Y-125458877D02*
X88734793Y-125411258D01*
X88734793Y-125411258D02*
X88734793Y-125316020D01*
X88734793Y-125316020D02*
X88758602Y-125268401D01*
X88758602Y-125268401D02*
X88782412Y-125244591D01*
X88782412Y-125244591D02*
X88830031Y-125220782D01*
X88830031Y-125220782D02*
X88972888Y-125220782D01*
X88972888Y-125220782D02*
X89020507Y-125244591D01*
X89020507Y-125244591D02*
X89044317Y-125268401D01*
X89044317Y-125268401D02*
X89068126Y-125316020D01*
X89068126Y-125316020D02*
X89068126Y-125411258D01*
X89068126Y-125411258D02*
X89044317Y-125458877D01*
X89068126Y-124744591D02*
X89068126Y-125030305D01*
X89068126Y-124887448D02*
X88568126Y-124887448D01*
X88568126Y-124887448D02*
X88639555Y-124935067D01*
X88639555Y-124935067D02*
X88687174Y-124982686D01*
X88687174Y-124982686D02*
X88710983Y-125030305D01*
X74573215Y-94038608D02*
X74406549Y-93800513D01*
X74287501Y-94038608D02*
X74287501Y-93538608D01*
X74287501Y-93538608D02*
X74477977Y-93538608D01*
X74477977Y-93538608D02*
X74525596Y-93562418D01*
X74525596Y-93562418D02*
X74549406Y-93586227D01*
X74549406Y-93586227D02*
X74573215Y-93633846D01*
X74573215Y-93633846D02*
X74573215Y-93705275D01*
X74573215Y-93705275D02*
X74549406Y-93752894D01*
X74549406Y-93752894D02*
X74525596Y-93776703D01*
X74525596Y-93776703D02*
X74477977Y-93800513D01*
X74477977Y-93800513D02*
X74287501Y-93800513D01*
X74716073Y-93705275D02*
X74906549Y-93705275D01*
X74787501Y-94038608D02*
X74787501Y-93610037D01*
X74787501Y-93610037D02*
X74811311Y-93562418D01*
X74811311Y-93562418D02*
X74858930Y-93538608D01*
X74858930Y-93538608D02*
X74906549Y-93538608D01*
X75335120Y-94038608D02*
X75049406Y-94038608D01*
X75192263Y-94038608D02*
X75192263Y-93538608D01*
X75192263Y-93538608D02*
X75144644Y-93610037D01*
X75144644Y-93610037D02*
X75097025Y-93657656D01*
X75097025Y-93657656D02*
X75049406Y-93681465D01*
X75525596Y-93586227D02*
X75549405Y-93562418D01*
X75549405Y-93562418D02*
X75597024Y-93538608D01*
X75597024Y-93538608D02*
X75716072Y-93538608D01*
X75716072Y-93538608D02*
X75763691Y-93562418D01*
X75763691Y-93562418D02*
X75787500Y-93586227D01*
X75787500Y-93586227D02*
X75811310Y-93633846D01*
X75811310Y-93633846D02*
X75811310Y-93681465D01*
X75811310Y-93681465D02*
X75787500Y-93752894D01*
X75787500Y-93752894D02*
X75501786Y-94038608D01*
X75501786Y-94038608D02*
X75811310Y-94038608D01*
X109801109Y-50671428D02*
X109563014Y-50838094D01*
X109801109Y-50957142D02*
X109301109Y-50957142D01*
X109301109Y-50957142D02*
X109301109Y-50766666D01*
X109301109Y-50766666D02*
X109324919Y-50719047D01*
X109324919Y-50719047D02*
X109348728Y-50695237D01*
X109348728Y-50695237D02*
X109396347Y-50671428D01*
X109396347Y-50671428D02*
X109467776Y-50671428D01*
X109467776Y-50671428D02*
X109515395Y-50695237D01*
X109515395Y-50695237D02*
X109539204Y-50719047D01*
X109539204Y-50719047D02*
X109563014Y-50766666D01*
X109563014Y-50766666D02*
X109563014Y-50957142D01*
X109801109Y-50195237D02*
X109801109Y-50480951D01*
X109801109Y-50338094D02*
X109301109Y-50338094D01*
X109301109Y-50338094D02*
X109372538Y-50385713D01*
X109372538Y-50385713D02*
X109420157Y-50433332D01*
X109420157Y-50433332D02*
X109443966Y-50480951D01*
X109301109Y-49766666D02*
X109301109Y-49861904D01*
X109301109Y-49861904D02*
X109324919Y-49909523D01*
X109324919Y-49909523D02*
X109348728Y-49933333D01*
X109348728Y-49933333D02*
X109420157Y-49980952D01*
X109420157Y-49980952D02*
X109515395Y-50004761D01*
X109515395Y-50004761D02*
X109705871Y-50004761D01*
X109705871Y-50004761D02*
X109753490Y-49980952D01*
X109753490Y-49980952D02*
X109777300Y-49957142D01*
X109777300Y-49957142D02*
X109801109Y-49909523D01*
X109801109Y-49909523D02*
X109801109Y-49814285D01*
X109801109Y-49814285D02*
X109777300Y-49766666D01*
X109777300Y-49766666D02*
X109753490Y-49742857D01*
X109753490Y-49742857D02*
X109705871Y-49719047D01*
X109705871Y-49719047D02*
X109586823Y-49719047D01*
X109586823Y-49719047D02*
X109539204Y-49742857D01*
X109539204Y-49742857D02*
X109515395Y-49766666D01*
X109515395Y-49766666D02*
X109491585Y-49814285D01*
X109491585Y-49814285D02*
X109491585Y-49909523D01*
X109491585Y-49909523D02*
X109515395Y-49957142D01*
X109515395Y-49957142D02*
X109539204Y-49980952D01*
X109539204Y-49980952D02*
X109586823Y-50004761D01*
X103348215Y-95463608D02*
X103181549Y-95225513D01*
X103062501Y-95463608D02*
X103062501Y-94963608D01*
X103062501Y-94963608D02*
X103252977Y-94963608D01*
X103252977Y-94963608D02*
X103300596Y-94987418D01*
X103300596Y-94987418D02*
X103324406Y-95011227D01*
X103324406Y-95011227D02*
X103348215Y-95058846D01*
X103348215Y-95058846D02*
X103348215Y-95130275D01*
X103348215Y-95130275D02*
X103324406Y-95177894D01*
X103324406Y-95177894D02*
X103300596Y-95201703D01*
X103300596Y-95201703D02*
X103252977Y-95225513D01*
X103252977Y-95225513D02*
X103062501Y-95225513D01*
X103491073Y-95130275D02*
X103681549Y-95130275D01*
X103562501Y-95463608D02*
X103562501Y-95035037D01*
X103562501Y-95035037D02*
X103586311Y-94987418D01*
X103586311Y-94987418D02*
X103633930Y-94963608D01*
X103633930Y-94963608D02*
X103681549Y-94963608D01*
X104110120Y-95463608D02*
X103824406Y-95463608D01*
X103967263Y-95463608D02*
X103967263Y-94963608D01*
X103967263Y-94963608D02*
X103919644Y-95035037D01*
X103919644Y-95035037D02*
X103872025Y-95082656D01*
X103872025Y-95082656D02*
X103824406Y-95106465D01*
X104538691Y-95130275D02*
X104538691Y-95463608D01*
X104419643Y-94939799D02*
X104300596Y-95296941D01*
X104300596Y-95296941D02*
X104610119Y-95296941D01*
X96561310Y-73063608D02*
X96394644Y-72825513D01*
X96275596Y-73063608D02*
X96275596Y-72563608D01*
X96275596Y-72563608D02*
X96466072Y-72563608D01*
X96466072Y-72563608D02*
X96513691Y-72587418D01*
X96513691Y-72587418D02*
X96537501Y-72611227D01*
X96537501Y-72611227D02*
X96561310Y-72658846D01*
X96561310Y-72658846D02*
X96561310Y-72730275D01*
X96561310Y-72730275D02*
X96537501Y-72777894D01*
X96537501Y-72777894D02*
X96513691Y-72801703D01*
X96513691Y-72801703D02*
X96466072Y-72825513D01*
X96466072Y-72825513D02*
X96275596Y-72825513D01*
X96704168Y-72730275D02*
X96894644Y-72730275D01*
X96775596Y-73063608D02*
X96775596Y-72635037D01*
X96775596Y-72635037D02*
X96799406Y-72587418D01*
X96799406Y-72587418D02*
X96847025Y-72563608D01*
X96847025Y-72563608D02*
X96894644Y-72563608D01*
X97132739Y-72777894D02*
X97085120Y-72754084D01*
X97085120Y-72754084D02*
X97061310Y-72730275D01*
X97061310Y-72730275D02*
X97037501Y-72682656D01*
X97037501Y-72682656D02*
X97037501Y-72658846D01*
X97037501Y-72658846D02*
X97061310Y-72611227D01*
X97061310Y-72611227D02*
X97085120Y-72587418D01*
X97085120Y-72587418D02*
X97132739Y-72563608D01*
X97132739Y-72563608D02*
X97227977Y-72563608D01*
X97227977Y-72563608D02*
X97275596Y-72587418D01*
X97275596Y-72587418D02*
X97299405Y-72611227D01*
X97299405Y-72611227D02*
X97323215Y-72658846D01*
X97323215Y-72658846D02*
X97323215Y-72682656D01*
X97323215Y-72682656D02*
X97299405Y-72730275D01*
X97299405Y-72730275D02*
X97275596Y-72754084D01*
X97275596Y-72754084D02*
X97227977Y-72777894D01*
X97227977Y-72777894D02*
X97132739Y-72777894D01*
X97132739Y-72777894D02*
X97085120Y-72801703D01*
X97085120Y-72801703D02*
X97061310Y-72825513D01*
X97061310Y-72825513D02*
X97037501Y-72873132D01*
X97037501Y-72873132D02*
X97037501Y-72968370D01*
X97037501Y-72968370D02*
X97061310Y-73015989D01*
X97061310Y-73015989D02*
X97085120Y-73039799D01*
X97085120Y-73039799D02*
X97132739Y-73063608D01*
X97132739Y-73063608D02*
X97227977Y-73063608D01*
X97227977Y-73063608D02*
X97275596Y-73039799D01*
X97275596Y-73039799D02*
X97299405Y-73015989D01*
X97299405Y-73015989D02*
X97323215Y-72968370D01*
X97323215Y-72968370D02*
X97323215Y-72873132D01*
X97323215Y-72873132D02*
X97299405Y-72825513D01*
X97299405Y-72825513D02*
X97275596Y-72801703D01*
X97275596Y-72801703D02*
X97227977Y-72777894D01*
X83893571Y-62968610D02*
X83726905Y-62730515D01*
X83607857Y-62968610D02*
X83607857Y-62468610D01*
X83607857Y-62468610D02*
X83798333Y-62468610D01*
X83798333Y-62468610D02*
X83845952Y-62492420D01*
X83845952Y-62492420D02*
X83869762Y-62516229D01*
X83869762Y-62516229D02*
X83893571Y-62563848D01*
X83893571Y-62563848D02*
X83893571Y-62635277D01*
X83893571Y-62635277D02*
X83869762Y-62682896D01*
X83869762Y-62682896D02*
X83845952Y-62706705D01*
X83845952Y-62706705D02*
X83798333Y-62730515D01*
X83798333Y-62730515D02*
X83607857Y-62730515D01*
X83988810Y-63016229D02*
X84369762Y-63016229D01*
X84488809Y-62968610D02*
X84488809Y-62635277D01*
X84488809Y-62468610D02*
X84465000Y-62492420D01*
X84465000Y-62492420D02*
X84488809Y-62516229D01*
X84488809Y-62516229D02*
X84512619Y-62492420D01*
X84512619Y-62492420D02*
X84488809Y-62468610D01*
X84488809Y-62468610D02*
X84488809Y-62516229D01*
X84703095Y-62944801D02*
X84750714Y-62968610D01*
X84750714Y-62968610D02*
X84845952Y-62968610D01*
X84845952Y-62968610D02*
X84893571Y-62944801D01*
X84893571Y-62944801D02*
X84917380Y-62897181D01*
X84917380Y-62897181D02*
X84917380Y-62873372D01*
X84917380Y-62873372D02*
X84893571Y-62825753D01*
X84893571Y-62825753D02*
X84845952Y-62801943D01*
X84845952Y-62801943D02*
X84774523Y-62801943D01*
X84774523Y-62801943D02*
X84726904Y-62778134D01*
X84726904Y-62778134D02*
X84703095Y-62730515D01*
X84703095Y-62730515D02*
X84703095Y-62706705D01*
X84703095Y-62706705D02*
X84726904Y-62659086D01*
X84726904Y-62659086D02*
X84774523Y-62635277D01*
X84774523Y-62635277D02*
X84845952Y-62635277D01*
X84845952Y-62635277D02*
X84893571Y-62659086D01*
X85203095Y-62968610D02*
X85155476Y-62944801D01*
X85155476Y-62944801D02*
X85131666Y-62920991D01*
X85131666Y-62920991D02*
X85107857Y-62873372D01*
X85107857Y-62873372D02*
X85107857Y-62730515D01*
X85107857Y-62730515D02*
X85131666Y-62682896D01*
X85131666Y-62682896D02*
X85155476Y-62659086D01*
X85155476Y-62659086D02*
X85203095Y-62635277D01*
X85203095Y-62635277D02*
X85274523Y-62635277D01*
X85274523Y-62635277D02*
X85322142Y-62659086D01*
X85322142Y-62659086D02*
X85345952Y-62682896D01*
X85345952Y-62682896D02*
X85369761Y-62730515D01*
X85369761Y-62730515D02*
X85369761Y-62873372D01*
X85369761Y-62873372D02*
X85345952Y-62920991D01*
X85345952Y-62920991D02*
X85322142Y-62944801D01*
X85322142Y-62944801D02*
X85274523Y-62968610D01*
X85274523Y-62968610D02*
X85203095Y-62968610D01*
X85845952Y-62968610D02*
X85560238Y-62968610D01*
X85703095Y-62968610D02*
X85703095Y-62468610D01*
X85703095Y-62468610D02*
X85655476Y-62540039D01*
X85655476Y-62540039D02*
X85607857Y-62587658D01*
X85607857Y-62587658D02*
X85560238Y-62611467D01*
X103966072Y-90288608D02*
X103799406Y-90050513D01*
X103680358Y-90288608D02*
X103680358Y-89788608D01*
X103680358Y-89788608D02*
X103870834Y-89788608D01*
X103870834Y-89788608D02*
X103918453Y-89812418D01*
X103918453Y-89812418D02*
X103942263Y-89836227D01*
X103942263Y-89836227D02*
X103966072Y-89883846D01*
X103966072Y-89883846D02*
X103966072Y-89955275D01*
X103966072Y-89955275D02*
X103942263Y-90002894D01*
X103942263Y-90002894D02*
X103918453Y-90026703D01*
X103918453Y-90026703D02*
X103870834Y-90050513D01*
X103870834Y-90050513D02*
X103680358Y-90050513D01*
X104442263Y-90288608D02*
X104156549Y-90288608D01*
X104299406Y-90288608D02*
X104299406Y-89788608D01*
X104299406Y-89788608D02*
X104251787Y-89860037D01*
X104251787Y-89860037D02*
X104204168Y-89907656D01*
X104204168Y-89907656D02*
X104156549Y-89931465D01*
X104870834Y-89955275D02*
X104870834Y-90288608D01*
X104751786Y-89764799D02*
X104632739Y-90121941D01*
X104632739Y-90121941D02*
X104942262Y-90121941D01*
X115796631Y-136901109D02*
X115796631Y-136401109D01*
X115796631Y-136401109D02*
X115915679Y-136401109D01*
X115915679Y-136401109D02*
X115987107Y-136424919D01*
X115987107Y-136424919D02*
X116034726Y-136472538D01*
X116034726Y-136472538D02*
X116058536Y-136520157D01*
X116058536Y-136520157D02*
X116082345Y-136615395D01*
X116082345Y-136615395D02*
X116082345Y-136686823D01*
X116082345Y-136686823D02*
X116058536Y-136782061D01*
X116058536Y-136782061D02*
X116034726Y-136829680D01*
X116034726Y-136829680D02*
X115987107Y-136877300D01*
X115987107Y-136877300D02*
X115915679Y-136901109D01*
X115915679Y-136901109D02*
X115796631Y-136901109D01*
X116558536Y-136901109D02*
X116272822Y-136901109D01*
X116415679Y-136901109D02*
X116415679Y-136401109D01*
X116415679Y-136401109D02*
X116368060Y-136472538D01*
X116368060Y-136472538D02*
X116320441Y-136520157D01*
X116320441Y-136520157D02*
X116272822Y-136543966D01*
X116868059Y-136401109D02*
X116915678Y-136401109D01*
X116915678Y-136401109D02*
X116963297Y-136424919D01*
X116963297Y-136424919D02*
X116987107Y-136448728D01*
X116987107Y-136448728D02*
X117010916Y-136496347D01*
X117010916Y-136496347D02*
X117034726Y-136591585D01*
X117034726Y-136591585D02*
X117034726Y-136710633D01*
X117034726Y-136710633D02*
X117010916Y-136805871D01*
X117010916Y-136805871D02*
X116987107Y-136853490D01*
X116987107Y-136853490D02*
X116963297Y-136877300D01*
X116963297Y-136877300D02*
X116915678Y-136901109D01*
X116915678Y-136901109D02*
X116868059Y-136901109D01*
X116868059Y-136901109D02*
X116820440Y-136877300D01*
X116820440Y-136877300D02*
X116796631Y-136853490D01*
X116796631Y-136853490D02*
X116772821Y-136805871D01*
X116772821Y-136805871D02*
X116749012Y-136710633D01*
X116749012Y-136710633D02*
X116749012Y-136591585D01*
X116749012Y-136591585D02*
X116772821Y-136496347D01*
X116772821Y-136496347D02*
X116796631Y-136448728D01*
X116796631Y-136448728D02*
X116820440Y-136424919D01*
X116820440Y-136424919D02*
X116868059Y-136401109D01*
D11*
X114143009Y-139069104D02*
X114619199Y-139069104D01*
X114047771Y-139354819D02*
X114381104Y-138354819D01*
X114381104Y-138354819D02*
X114714437Y-139354819D01*
D10*
X98665476Y-52328490D02*
X98641667Y-52352300D01*
X98641667Y-52352300D02*
X98570238Y-52376109D01*
X98570238Y-52376109D02*
X98522619Y-52376109D01*
X98522619Y-52376109D02*
X98451191Y-52352300D01*
X98451191Y-52352300D02*
X98403572Y-52304680D01*
X98403572Y-52304680D02*
X98379762Y-52257061D01*
X98379762Y-52257061D02*
X98355953Y-52161823D01*
X98355953Y-52161823D02*
X98355953Y-52090395D01*
X98355953Y-52090395D02*
X98379762Y-51995157D01*
X98379762Y-51995157D02*
X98403572Y-51947538D01*
X98403572Y-51947538D02*
X98451191Y-51899919D01*
X98451191Y-51899919D02*
X98522619Y-51876109D01*
X98522619Y-51876109D02*
X98570238Y-51876109D01*
X98570238Y-51876109D02*
X98641667Y-51899919D01*
X98641667Y-51899919D02*
X98665476Y-51923728D01*
X98879762Y-52376109D02*
X98879762Y-51876109D01*
X98879762Y-52066585D02*
X98927381Y-52042776D01*
X98927381Y-52042776D02*
X99022619Y-52042776D01*
X99022619Y-52042776D02*
X99070238Y-52066585D01*
X99070238Y-52066585D02*
X99094048Y-52090395D01*
X99094048Y-52090395D02*
X99117857Y-52138014D01*
X99117857Y-52138014D02*
X99117857Y-52280871D01*
X99117857Y-52280871D02*
X99094048Y-52328490D01*
X99094048Y-52328490D02*
X99070238Y-52352300D01*
X99070238Y-52352300D02*
X99022619Y-52376109D01*
X99022619Y-52376109D02*
X98927381Y-52376109D01*
X98927381Y-52376109D02*
X98879762Y-52352300D01*
X99570238Y-51876109D02*
X99332143Y-51876109D01*
X99332143Y-51876109D02*
X99308334Y-52114204D01*
X99308334Y-52114204D02*
X99332143Y-52090395D01*
X99332143Y-52090395D02*
X99379762Y-52066585D01*
X99379762Y-52066585D02*
X99498810Y-52066585D01*
X99498810Y-52066585D02*
X99546429Y-52090395D01*
X99546429Y-52090395D02*
X99570238Y-52114204D01*
X99570238Y-52114204D02*
X99594048Y-52161823D01*
X99594048Y-52161823D02*
X99594048Y-52280871D01*
X99594048Y-52280871D02*
X99570238Y-52328490D01*
X99570238Y-52328490D02*
X99546429Y-52352300D01*
X99546429Y-52352300D02*
X99498810Y-52376109D01*
X99498810Y-52376109D02*
X99379762Y-52376109D01*
X99379762Y-52376109D02*
X99332143Y-52352300D01*
X99332143Y-52352300D02*
X99308334Y-52328490D01*
X89191666Y-41578490D02*
X89167857Y-41602300D01*
X89167857Y-41602300D02*
X89096428Y-41626109D01*
X89096428Y-41626109D02*
X89048809Y-41626109D01*
X89048809Y-41626109D02*
X88977381Y-41602300D01*
X88977381Y-41602300D02*
X88929762Y-41554680D01*
X88929762Y-41554680D02*
X88905952Y-41507061D01*
X88905952Y-41507061D02*
X88882143Y-41411823D01*
X88882143Y-41411823D02*
X88882143Y-41340395D01*
X88882143Y-41340395D02*
X88905952Y-41245157D01*
X88905952Y-41245157D02*
X88929762Y-41197538D01*
X88929762Y-41197538D02*
X88977381Y-41149919D01*
X88977381Y-41149919D02*
X89048809Y-41126109D01*
X89048809Y-41126109D02*
X89096428Y-41126109D01*
X89096428Y-41126109D02*
X89167857Y-41149919D01*
X89167857Y-41149919D02*
X89191666Y-41173728D01*
X89620238Y-41292776D02*
X89620238Y-41626109D01*
X89501190Y-41102300D02*
X89382143Y-41459442D01*
X89382143Y-41459442D02*
X89691666Y-41459442D01*
X66498215Y-94663608D02*
X66331549Y-94425513D01*
X66212501Y-94663608D02*
X66212501Y-94163608D01*
X66212501Y-94163608D02*
X66402977Y-94163608D01*
X66402977Y-94163608D02*
X66450596Y-94187418D01*
X66450596Y-94187418D02*
X66474406Y-94211227D01*
X66474406Y-94211227D02*
X66498215Y-94258846D01*
X66498215Y-94258846D02*
X66498215Y-94330275D01*
X66498215Y-94330275D02*
X66474406Y-94377894D01*
X66474406Y-94377894D02*
X66450596Y-94401703D01*
X66450596Y-94401703D02*
X66402977Y-94425513D01*
X66402977Y-94425513D02*
X66212501Y-94425513D01*
X66641073Y-94330275D02*
X66831549Y-94330275D01*
X66712501Y-94663608D02*
X66712501Y-94235037D01*
X66712501Y-94235037D02*
X66736311Y-94187418D01*
X66736311Y-94187418D02*
X66783930Y-94163608D01*
X66783930Y-94163608D02*
X66831549Y-94163608D01*
X67260120Y-94663608D02*
X66974406Y-94663608D01*
X67117263Y-94663608D02*
X67117263Y-94163608D01*
X67117263Y-94163608D02*
X67069644Y-94235037D01*
X67069644Y-94235037D02*
X67022025Y-94282656D01*
X67022025Y-94282656D02*
X66974406Y-94306465D01*
X67736310Y-94663608D02*
X67450596Y-94663608D01*
X67593453Y-94663608D02*
X67593453Y-94163608D01*
X67593453Y-94163608D02*
X67545834Y-94235037D01*
X67545834Y-94235037D02*
X67498215Y-94282656D01*
X67498215Y-94282656D02*
X67450596Y-94306465D01*
X97238611Y-82406546D02*
X97643373Y-82406546D01*
X97643373Y-82406546D02*
X97690992Y-82382736D01*
X97690992Y-82382736D02*
X97714802Y-82358927D01*
X97714802Y-82358927D02*
X97738611Y-82311308D01*
X97738611Y-82311308D02*
X97738611Y-82216070D01*
X97738611Y-82216070D02*
X97714802Y-82168451D01*
X97714802Y-82168451D02*
X97690992Y-82144641D01*
X97690992Y-82144641D02*
X97643373Y-82120832D01*
X97643373Y-82120832D02*
X97238611Y-82120832D01*
X97738611Y-81620831D02*
X97738611Y-81906545D01*
X97738611Y-81763688D02*
X97238611Y-81763688D01*
X97238611Y-81763688D02*
X97310040Y-81811307D01*
X97310040Y-81811307D02*
X97357659Y-81858926D01*
X97357659Y-81858926D02*
X97381468Y-81906545D01*
X97286230Y-81430355D02*
X97262421Y-81406546D01*
X97262421Y-81406546D02*
X97238611Y-81358927D01*
X97238611Y-81358927D02*
X97238611Y-81239879D01*
X97238611Y-81239879D02*
X97262421Y-81192260D01*
X97262421Y-81192260D02*
X97286230Y-81168451D01*
X97286230Y-81168451D02*
X97333849Y-81144641D01*
X97333849Y-81144641D02*
X97381468Y-81144641D01*
X97381468Y-81144641D02*
X97452897Y-81168451D01*
X97452897Y-81168451D02*
X97738611Y-81454165D01*
X97738611Y-81454165D02*
X97738611Y-81144641D01*
X100290476Y-57453490D02*
X100266667Y-57477300D01*
X100266667Y-57477300D02*
X100195238Y-57501109D01*
X100195238Y-57501109D02*
X100147619Y-57501109D01*
X100147619Y-57501109D02*
X100076191Y-57477300D01*
X100076191Y-57477300D02*
X100028572Y-57429680D01*
X100028572Y-57429680D02*
X100004762Y-57382061D01*
X100004762Y-57382061D02*
X99980953Y-57286823D01*
X99980953Y-57286823D02*
X99980953Y-57215395D01*
X99980953Y-57215395D02*
X100004762Y-57120157D01*
X100004762Y-57120157D02*
X100028572Y-57072538D01*
X100028572Y-57072538D02*
X100076191Y-57024919D01*
X100076191Y-57024919D02*
X100147619Y-57001109D01*
X100147619Y-57001109D02*
X100195238Y-57001109D01*
X100195238Y-57001109D02*
X100266667Y-57024919D01*
X100266667Y-57024919D02*
X100290476Y-57048728D01*
X100504762Y-57501109D02*
X100504762Y-57001109D01*
X100504762Y-57191585D02*
X100552381Y-57167776D01*
X100552381Y-57167776D02*
X100647619Y-57167776D01*
X100647619Y-57167776D02*
X100695238Y-57191585D01*
X100695238Y-57191585D02*
X100719048Y-57215395D01*
X100719048Y-57215395D02*
X100742857Y-57263014D01*
X100742857Y-57263014D02*
X100742857Y-57405871D01*
X100742857Y-57405871D02*
X100719048Y-57453490D01*
X100719048Y-57453490D02*
X100695238Y-57477300D01*
X100695238Y-57477300D02*
X100647619Y-57501109D01*
X100647619Y-57501109D02*
X100552381Y-57501109D01*
X100552381Y-57501109D02*
X100504762Y-57477300D01*
X101171429Y-57167776D02*
X101171429Y-57501109D01*
X101052381Y-56977300D02*
X100933334Y-57334442D01*
X100933334Y-57334442D02*
X101242857Y-57334442D01*
X96241666Y-57476109D02*
X96075000Y-57238014D01*
X95955952Y-57476109D02*
X95955952Y-56976109D01*
X95955952Y-56976109D02*
X96146428Y-56976109D01*
X96146428Y-56976109D02*
X96194047Y-56999919D01*
X96194047Y-56999919D02*
X96217857Y-57023728D01*
X96217857Y-57023728D02*
X96241666Y-57071347D01*
X96241666Y-57071347D02*
X96241666Y-57142776D01*
X96241666Y-57142776D02*
X96217857Y-57190395D01*
X96217857Y-57190395D02*
X96194047Y-57214204D01*
X96194047Y-57214204D02*
X96146428Y-57238014D01*
X96146428Y-57238014D02*
X95955952Y-57238014D01*
X96408333Y-56976109D02*
X96741666Y-56976109D01*
X96741666Y-56976109D02*
X96527381Y-57476109D01*
X94841666Y-48928490D02*
X94817857Y-48952300D01*
X94817857Y-48952300D02*
X94746428Y-48976109D01*
X94746428Y-48976109D02*
X94698809Y-48976109D01*
X94698809Y-48976109D02*
X94627381Y-48952300D01*
X94627381Y-48952300D02*
X94579762Y-48904680D01*
X94579762Y-48904680D02*
X94555952Y-48857061D01*
X94555952Y-48857061D02*
X94532143Y-48761823D01*
X94532143Y-48761823D02*
X94532143Y-48690395D01*
X94532143Y-48690395D02*
X94555952Y-48595157D01*
X94555952Y-48595157D02*
X94579762Y-48547538D01*
X94579762Y-48547538D02*
X94627381Y-48499919D01*
X94627381Y-48499919D02*
X94698809Y-48476109D01*
X94698809Y-48476109D02*
X94746428Y-48476109D01*
X94746428Y-48476109D02*
X94817857Y-48499919D01*
X94817857Y-48499919D02*
X94841666Y-48523728D01*
X95270238Y-48476109D02*
X95175000Y-48476109D01*
X95175000Y-48476109D02*
X95127381Y-48499919D01*
X95127381Y-48499919D02*
X95103571Y-48523728D01*
X95103571Y-48523728D02*
X95055952Y-48595157D01*
X95055952Y-48595157D02*
X95032143Y-48690395D01*
X95032143Y-48690395D02*
X95032143Y-48880871D01*
X95032143Y-48880871D02*
X95055952Y-48928490D01*
X95055952Y-48928490D02*
X95079762Y-48952300D01*
X95079762Y-48952300D02*
X95127381Y-48976109D01*
X95127381Y-48976109D02*
X95222619Y-48976109D01*
X95222619Y-48976109D02*
X95270238Y-48952300D01*
X95270238Y-48952300D02*
X95294047Y-48928490D01*
X95294047Y-48928490D02*
X95317857Y-48880871D01*
X95317857Y-48880871D02*
X95317857Y-48761823D01*
X95317857Y-48761823D02*
X95294047Y-48714204D01*
X95294047Y-48714204D02*
X95270238Y-48690395D01*
X95270238Y-48690395D02*
X95222619Y-48666585D01*
X95222619Y-48666585D02*
X95127381Y-48666585D01*
X95127381Y-48666585D02*
X95079762Y-48690395D01*
X95079762Y-48690395D02*
X95055952Y-48714204D01*
X95055952Y-48714204D02*
X95032143Y-48761823D01*
X96441666Y-60926109D02*
X96275000Y-60688014D01*
X96155952Y-60926109D02*
X96155952Y-60426109D01*
X96155952Y-60426109D02*
X96346428Y-60426109D01*
X96346428Y-60426109D02*
X96394047Y-60449919D01*
X96394047Y-60449919D02*
X96417857Y-60473728D01*
X96417857Y-60473728D02*
X96441666Y-60521347D01*
X96441666Y-60521347D02*
X96441666Y-60592776D01*
X96441666Y-60592776D02*
X96417857Y-60640395D01*
X96417857Y-60640395D02*
X96394047Y-60664204D01*
X96394047Y-60664204D02*
X96346428Y-60688014D01*
X96346428Y-60688014D02*
X96155952Y-60688014D01*
X96727381Y-60640395D02*
X96679762Y-60616585D01*
X96679762Y-60616585D02*
X96655952Y-60592776D01*
X96655952Y-60592776D02*
X96632143Y-60545157D01*
X96632143Y-60545157D02*
X96632143Y-60521347D01*
X96632143Y-60521347D02*
X96655952Y-60473728D01*
X96655952Y-60473728D02*
X96679762Y-60449919D01*
X96679762Y-60449919D02*
X96727381Y-60426109D01*
X96727381Y-60426109D02*
X96822619Y-60426109D01*
X96822619Y-60426109D02*
X96870238Y-60449919D01*
X96870238Y-60449919D02*
X96894047Y-60473728D01*
X96894047Y-60473728D02*
X96917857Y-60521347D01*
X96917857Y-60521347D02*
X96917857Y-60545157D01*
X96917857Y-60545157D02*
X96894047Y-60592776D01*
X96894047Y-60592776D02*
X96870238Y-60616585D01*
X96870238Y-60616585D02*
X96822619Y-60640395D01*
X96822619Y-60640395D02*
X96727381Y-60640395D01*
X96727381Y-60640395D02*
X96679762Y-60664204D01*
X96679762Y-60664204D02*
X96655952Y-60688014D01*
X96655952Y-60688014D02*
X96632143Y-60735633D01*
X96632143Y-60735633D02*
X96632143Y-60830871D01*
X96632143Y-60830871D02*
X96655952Y-60878490D01*
X96655952Y-60878490D02*
X96679762Y-60902300D01*
X96679762Y-60902300D02*
X96727381Y-60926109D01*
X96727381Y-60926109D02*
X96822619Y-60926109D01*
X96822619Y-60926109D02*
X96870238Y-60902300D01*
X96870238Y-60902300D02*
X96894047Y-60878490D01*
X96894047Y-60878490D02*
X96917857Y-60830871D01*
X96917857Y-60830871D02*
X96917857Y-60735633D01*
X96917857Y-60735633D02*
X96894047Y-60688014D01*
X96894047Y-60688014D02*
X96870238Y-60664204D01*
X96870238Y-60664204D02*
X96822619Y-60640395D01*
D11*
X79905595Y-59072318D02*
X79905595Y-59881841D01*
X79905595Y-59881841D02*
X79953214Y-59977079D01*
X79953214Y-59977079D02*
X80000833Y-60024699D01*
X80000833Y-60024699D02*
X80096071Y-60072318D01*
X80096071Y-60072318D02*
X80286547Y-60072318D01*
X80286547Y-60072318D02*
X80381785Y-60024699D01*
X80381785Y-60024699D02*
X80429404Y-59977079D01*
X80429404Y-59977079D02*
X80477023Y-59881841D01*
X80477023Y-59881841D02*
X80477023Y-59072318D01*
X80905595Y-59167556D02*
X80953214Y-59119937D01*
X80953214Y-59119937D02*
X81048452Y-59072318D01*
X81048452Y-59072318D02*
X81286547Y-59072318D01*
X81286547Y-59072318D02*
X81381785Y-59119937D01*
X81381785Y-59119937D02*
X81429404Y-59167556D01*
X81429404Y-59167556D02*
X81477023Y-59262794D01*
X81477023Y-59262794D02*
X81477023Y-59358032D01*
X81477023Y-59358032D02*
X81429404Y-59500889D01*
X81429404Y-59500889D02*
X80857976Y-60072318D01*
X80857976Y-60072318D02*
X81477023Y-60072318D01*
D10*
X72088609Y-89351784D02*
X71850514Y-89518450D01*
X72088609Y-89637498D02*
X71588609Y-89637498D01*
X71588609Y-89637498D02*
X71588609Y-89447022D01*
X71588609Y-89447022D02*
X71612419Y-89399403D01*
X71612419Y-89399403D02*
X71636228Y-89375593D01*
X71636228Y-89375593D02*
X71683847Y-89351784D01*
X71683847Y-89351784D02*
X71755276Y-89351784D01*
X71755276Y-89351784D02*
X71802895Y-89375593D01*
X71802895Y-89375593D02*
X71826704Y-89399403D01*
X71826704Y-89399403D02*
X71850514Y-89447022D01*
X71850514Y-89447022D02*
X71850514Y-89637498D01*
X71755276Y-89208926D02*
X71755276Y-89018450D01*
X72088609Y-89137498D02*
X71660038Y-89137498D01*
X71660038Y-89137498D02*
X71612419Y-89113688D01*
X71612419Y-89113688D02*
X71588609Y-89066069D01*
X71588609Y-89066069D02*
X71588609Y-89018450D01*
X72088609Y-88589879D02*
X72088609Y-88875593D01*
X72088609Y-88732736D02*
X71588609Y-88732736D01*
X71588609Y-88732736D02*
X71660038Y-88780355D01*
X71660038Y-88780355D02*
X71707657Y-88827974D01*
X71707657Y-88827974D02*
X71731466Y-88875593D01*
X71588609Y-88280356D02*
X71588609Y-88232737D01*
X71588609Y-88232737D02*
X71612419Y-88185118D01*
X71612419Y-88185118D02*
X71636228Y-88161308D01*
X71636228Y-88161308D02*
X71683847Y-88137499D01*
X71683847Y-88137499D02*
X71779085Y-88113689D01*
X71779085Y-88113689D02*
X71898133Y-88113689D01*
X71898133Y-88113689D02*
X71993371Y-88137499D01*
X71993371Y-88137499D02*
X72040990Y-88161308D01*
X72040990Y-88161308D02*
X72064800Y-88185118D01*
X72064800Y-88185118D02*
X72088609Y-88232737D01*
X72088609Y-88232737D02*
X72088609Y-88280356D01*
X72088609Y-88280356D02*
X72064800Y-88327975D01*
X72064800Y-88327975D02*
X72040990Y-88351784D01*
X72040990Y-88351784D02*
X71993371Y-88375594D01*
X71993371Y-88375594D02*
X71898133Y-88399403D01*
X71898133Y-88399403D02*
X71779085Y-88399403D01*
X71779085Y-88399403D02*
X71683847Y-88375594D01*
X71683847Y-88375594D02*
X71636228Y-88351784D01*
X71636228Y-88351784D02*
X71612419Y-88327975D01*
X71612419Y-88327975D02*
X71588609Y-88280356D01*
X111967770Y-121178490D02*
X111943961Y-121202300D01*
X111943961Y-121202300D02*
X111872532Y-121226109D01*
X111872532Y-121226109D02*
X111824913Y-121226109D01*
X111824913Y-121226109D02*
X111753485Y-121202300D01*
X111753485Y-121202300D02*
X111705866Y-121154680D01*
X111705866Y-121154680D02*
X111682056Y-121107061D01*
X111682056Y-121107061D02*
X111658247Y-121011823D01*
X111658247Y-121011823D02*
X111658247Y-120940395D01*
X111658247Y-120940395D02*
X111682056Y-120845157D01*
X111682056Y-120845157D02*
X111705866Y-120797538D01*
X111705866Y-120797538D02*
X111753485Y-120749919D01*
X111753485Y-120749919D02*
X111824913Y-120726109D01*
X111824913Y-120726109D02*
X111872532Y-120726109D01*
X111872532Y-120726109D02*
X111943961Y-120749919D01*
X111943961Y-120749919D02*
X111967770Y-120773728D01*
X112396342Y-120892776D02*
X112396342Y-121226109D01*
X112277294Y-120702300D02*
X112158247Y-121059442D01*
X112158247Y-121059442D02*
X112467770Y-121059442D01*
X71156666Y-55995990D02*
X71132857Y-56019800D01*
X71132857Y-56019800D02*
X71061428Y-56043609D01*
X71061428Y-56043609D02*
X71013809Y-56043609D01*
X71013809Y-56043609D02*
X70942381Y-56019800D01*
X70942381Y-56019800D02*
X70894762Y-55972180D01*
X70894762Y-55972180D02*
X70870952Y-55924561D01*
X70870952Y-55924561D02*
X70847143Y-55829323D01*
X70847143Y-55829323D02*
X70847143Y-55757895D01*
X70847143Y-55757895D02*
X70870952Y-55662657D01*
X70870952Y-55662657D02*
X70894762Y-55615038D01*
X70894762Y-55615038D02*
X70942381Y-55567419D01*
X70942381Y-55567419D02*
X71013809Y-55543609D01*
X71013809Y-55543609D02*
X71061428Y-55543609D01*
X71061428Y-55543609D02*
X71132857Y-55567419D01*
X71132857Y-55567419D02*
X71156666Y-55591228D01*
X71323333Y-55543609D02*
X71632857Y-55543609D01*
X71632857Y-55543609D02*
X71466190Y-55734085D01*
X71466190Y-55734085D02*
X71537619Y-55734085D01*
X71537619Y-55734085D02*
X71585238Y-55757895D01*
X71585238Y-55757895D02*
X71609047Y-55781704D01*
X71609047Y-55781704D02*
X71632857Y-55829323D01*
X71632857Y-55829323D02*
X71632857Y-55948371D01*
X71632857Y-55948371D02*
X71609047Y-55995990D01*
X71609047Y-55995990D02*
X71585238Y-56019800D01*
X71585238Y-56019800D02*
X71537619Y-56043609D01*
X71537619Y-56043609D02*
X71394762Y-56043609D01*
X71394762Y-56043609D02*
X71347143Y-56019800D01*
X71347143Y-56019800D02*
X71323333Y-55995990D01*
X52904994Y-118588622D02*
X53404994Y-118588622D01*
X53404994Y-118588622D02*
X53404994Y-118707670D01*
X53404994Y-118707670D02*
X53381184Y-118779098D01*
X53381184Y-118779098D02*
X53333565Y-118826717D01*
X53333565Y-118826717D02*
X53285946Y-118850527D01*
X53285946Y-118850527D02*
X53190708Y-118874336D01*
X53190708Y-118874336D02*
X53119280Y-118874336D01*
X53119280Y-118874336D02*
X53024042Y-118850527D01*
X53024042Y-118850527D02*
X52976423Y-118826717D01*
X52976423Y-118826717D02*
X52928804Y-118779098D01*
X52928804Y-118779098D02*
X52904994Y-118707670D01*
X52904994Y-118707670D02*
X52904994Y-118588622D01*
X53404994Y-119041003D02*
X53404994Y-119374336D01*
X53404994Y-119374336D02*
X52904994Y-119160051D01*
X72759010Y-67689880D02*
X72735201Y-67666071D01*
X72735201Y-67666071D02*
X72711391Y-67594642D01*
X72711391Y-67594642D02*
X72711391Y-67547023D01*
X72711391Y-67547023D02*
X72735201Y-67475595D01*
X72735201Y-67475595D02*
X72782820Y-67427976D01*
X72782820Y-67427976D02*
X72830439Y-67404166D01*
X72830439Y-67404166D02*
X72925677Y-67380357D01*
X72925677Y-67380357D02*
X72997105Y-67380357D01*
X72997105Y-67380357D02*
X73092343Y-67404166D01*
X73092343Y-67404166D02*
X73139962Y-67427976D01*
X73139962Y-67427976D02*
X73187581Y-67475595D01*
X73187581Y-67475595D02*
X73211391Y-67547023D01*
X73211391Y-67547023D02*
X73211391Y-67594642D01*
X73211391Y-67594642D02*
X73187581Y-67666071D01*
X73187581Y-67666071D02*
X73163772Y-67689880D01*
X72711391Y-67904166D02*
X73211391Y-67904166D01*
X73020915Y-67904166D02*
X73044724Y-67951785D01*
X73044724Y-67951785D02*
X73044724Y-68047023D01*
X73044724Y-68047023D02*
X73020915Y-68094642D01*
X73020915Y-68094642D02*
X72997105Y-68118452D01*
X72997105Y-68118452D02*
X72949486Y-68142261D01*
X72949486Y-68142261D02*
X72806629Y-68142261D01*
X72806629Y-68142261D02*
X72759010Y-68118452D01*
X72759010Y-68118452D02*
X72735201Y-68094642D01*
X72735201Y-68094642D02*
X72711391Y-68047023D01*
X72711391Y-68047023D02*
X72711391Y-67951785D01*
X72711391Y-67951785D02*
X72735201Y-67904166D01*
X72711391Y-68618452D02*
X72711391Y-68332738D01*
X72711391Y-68475595D02*
X73211391Y-68475595D01*
X73211391Y-68475595D02*
X73139962Y-68427976D01*
X73139962Y-68427976D02*
X73092343Y-68380357D01*
X73092343Y-68380357D02*
X73068534Y-68332738D01*
X73211391Y-69047023D02*
X73211391Y-68951785D01*
X73211391Y-68951785D02*
X73187581Y-68904166D01*
X73187581Y-68904166D02*
X73163772Y-68880356D01*
X73163772Y-68880356D02*
X73092343Y-68832737D01*
X73092343Y-68832737D02*
X72997105Y-68808928D01*
X72997105Y-68808928D02*
X72806629Y-68808928D01*
X72806629Y-68808928D02*
X72759010Y-68832737D01*
X72759010Y-68832737D02*
X72735201Y-68856547D01*
X72735201Y-68856547D02*
X72711391Y-68904166D01*
X72711391Y-68904166D02*
X72711391Y-68999404D01*
X72711391Y-68999404D02*
X72735201Y-69047023D01*
X72735201Y-69047023D02*
X72759010Y-69070832D01*
X72759010Y-69070832D02*
X72806629Y-69094642D01*
X72806629Y-69094642D02*
X72925677Y-69094642D01*
X72925677Y-69094642D02*
X72973296Y-69070832D01*
X72973296Y-69070832D02*
X72997105Y-69047023D01*
X72997105Y-69047023D02*
X73020915Y-68999404D01*
X73020915Y-68999404D02*
X73020915Y-68904166D01*
X73020915Y-68904166D02*
X72997105Y-68856547D01*
X72997105Y-68856547D02*
X72973296Y-68832737D01*
X72973296Y-68832737D02*
X72925677Y-68808928D01*
X61637056Y-134776109D02*
X61637056Y-134276109D01*
X61637056Y-134276109D02*
X61756104Y-134276109D01*
X61756104Y-134276109D02*
X61827532Y-134299919D01*
X61827532Y-134299919D02*
X61875151Y-134347538D01*
X61875151Y-134347538D02*
X61898961Y-134395157D01*
X61898961Y-134395157D02*
X61922770Y-134490395D01*
X61922770Y-134490395D02*
X61922770Y-134561823D01*
X61922770Y-134561823D02*
X61898961Y-134657061D01*
X61898961Y-134657061D02*
X61875151Y-134704680D01*
X61875151Y-134704680D02*
X61827532Y-134752300D01*
X61827532Y-134752300D02*
X61756104Y-134776109D01*
X61756104Y-134776109D02*
X61637056Y-134776109D01*
X62351342Y-134276109D02*
X62256104Y-134276109D01*
X62256104Y-134276109D02*
X62208485Y-134299919D01*
X62208485Y-134299919D02*
X62184675Y-134323728D01*
X62184675Y-134323728D02*
X62137056Y-134395157D01*
X62137056Y-134395157D02*
X62113247Y-134490395D01*
X62113247Y-134490395D02*
X62113247Y-134680871D01*
X62113247Y-134680871D02*
X62137056Y-134728490D01*
X62137056Y-134728490D02*
X62160866Y-134752300D01*
X62160866Y-134752300D02*
X62208485Y-134776109D01*
X62208485Y-134776109D02*
X62303723Y-134776109D01*
X62303723Y-134776109D02*
X62351342Y-134752300D01*
X62351342Y-134752300D02*
X62375151Y-134728490D01*
X62375151Y-134728490D02*
X62398961Y-134680871D01*
X62398961Y-134680871D02*
X62398961Y-134561823D01*
X62398961Y-134561823D02*
X62375151Y-134514204D01*
X62375151Y-134514204D02*
X62351342Y-134490395D01*
X62351342Y-134490395D02*
X62303723Y-134466585D01*
X62303723Y-134466585D02*
X62208485Y-134466585D01*
X62208485Y-134466585D02*
X62160866Y-134490395D01*
X62160866Y-134490395D02*
X62137056Y-134514204D01*
X62137056Y-134514204D02*
X62113247Y-134561823D01*
X66761310Y-93290989D02*
X66737501Y-93314799D01*
X66737501Y-93314799D02*
X66666072Y-93338608D01*
X66666072Y-93338608D02*
X66618453Y-93338608D01*
X66618453Y-93338608D02*
X66547025Y-93314799D01*
X66547025Y-93314799D02*
X66499406Y-93267179D01*
X66499406Y-93267179D02*
X66475596Y-93219560D01*
X66475596Y-93219560D02*
X66451787Y-93124322D01*
X66451787Y-93124322D02*
X66451787Y-93052894D01*
X66451787Y-93052894D02*
X66475596Y-92957656D01*
X66475596Y-92957656D02*
X66499406Y-92910037D01*
X66499406Y-92910037D02*
X66547025Y-92862418D01*
X66547025Y-92862418D02*
X66618453Y-92838608D01*
X66618453Y-92838608D02*
X66666072Y-92838608D01*
X66666072Y-92838608D02*
X66737501Y-92862418D01*
X66737501Y-92862418D02*
X66761310Y-92886227D01*
X66904168Y-93005275D02*
X67094644Y-93005275D01*
X66975596Y-93338608D02*
X66975596Y-92910037D01*
X66975596Y-92910037D02*
X66999406Y-92862418D01*
X66999406Y-92862418D02*
X67047025Y-92838608D01*
X67047025Y-92838608D02*
X67094644Y-92838608D01*
X67332739Y-93052894D02*
X67285120Y-93029084D01*
X67285120Y-93029084D02*
X67261310Y-93005275D01*
X67261310Y-93005275D02*
X67237501Y-92957656D01*
X67237501Y-92957656D02*
X67237501Y-92933846D01*
X67237501Y-92933846D02*
X67261310Y-92886227D01*
X67261310Y-92886227D02*
X67285120Y-92862418D01*
X67285120Y-92862418D02*
X67332739Y-92838608D01*
X67332739Y-92838608D02*
X67427977Y-92838608D01*
X67427977Y-92838608D02*
X67475596Y-92862418D01*
X67475596Y-92862418D02*
X67499405Y-92886227D01*
X67499405Y-92886227D02*
X67523215Y-92933846D01*
X67523215Y-92933846D02*
X67523215Y-92957656D01*
X67523215Y-92957656D02*
X67499405Y-93005275D01*
X67499405Y-93005275D02*
X67475596Y-93029084D01*
X67475596Y-93029084D02*
X67427977Y-93052894D01*
X67427977Y-93052894D02*
X67332739Y-93052894D01*
X67332739Y-93052894D02*
X67285120Y-93076703D01*
X67285120Y-93076703D02*
X67261310Y-93100513D01*
X67261310Y-93100513D02*
X67237501Y-93148132D01*
X67237501Y-93148132D02*
X67237501Y-93243370D01*
X67237501Y-93243370D02*
X67261310Y-93290989D01*
X67261310Y-93290989D02*
X67285120Y-93314799D01*
X67285120Y-93314799D02*
X67332739Y-93338608D01*
X67332739Y-93338608D02*
X67427977Y-93338608D01*
X67427977Y-93338608D02*
X67475596Y-93314799D01*
X67475596Y-93314799D02*
X67499405Y-93290989D01*
X67499405Y-93290989D02*
X67523215Y-93243370D01*
X67523215Y-93243370D02*
X67523215Y-93148132D01*
X67523215Y-93148132D02*
X67499405Y-93100513D01*
X67499405Y-93100513D02*
X67475596Y-93076703D01*
X67475596Y-93076703D02*
X67427977Y-93052894D01*
X65331666Y-54618609D02*
X65165000Y-54380514D01*
X65045952Y-54618609D02*
X65045952Y-54118609D01*
X65045952Y-54118609D02*
X65236428Y-54118609D01*
X65236428Y-54118609D02*
X65284047Y-54142419D01*
X65284047Y-54142419D02*
X65307857Y-54166228D01*
X65307857Y-54166228D02*
X65331666Y-54213847D01*
X65331666Y-54213847D02*
X65331666Y-54285276D01*
X65331666Y-54285276D02*
X65307857Y-54332895D01*
X65307857Y-54332895D02*
X65284047Y-54356704D01*
X65284047Y-54356704D02*
X65236428Y-54380514D01*
X65236428Y-54380514D02*
X65045952Y-54380514D01*
X65522143Y-54166228D02*
X65545952Y-54142419D01*
X65545952Y-54142419D02*
X65593571Y-54118609D01*
X65593571Y-54118609D02*
X65712619Y-54118609D01*
X65712619Y-54118609D02*
X65760238Y-54142419D01*
X65760238Y-54142419D02*
X65784047Y-54166228D01*
X65784047Y-54166228D02*
X65807857Y-54213847D01*
X65807857Y-54213847D02*
X65807857Y-54261466D01*
X65807857Y-54261466D02*
X65784047Y-54332895D01*
X65784047Y-54332895D02*
X65498333Y-54618609D01*
X65498333Y-54618609D02*
X65807857Y-54618609D01*
X67356666Y-57895989D02*
X67332857Y-57919799D01*
X67332857Y-57919799D02*
X67261428Y-57943608D01*
X67261428Y-57943608D02*
X67213809Y-57943608D01*
X67213809Y-57943608D02*
X67142381Y-57919799D01*
X67142381Y-57919799D02*
X67094762Y-57872179D01*
X67094762Y-57872179D02*
X67070952Y-57824560D01*
X67070952Y-57824560D02*
X67047143Y-57729322D01*
X67047143Y-57729322D02*
X67047143Y-57657894D01*
X67047143Y-57657894D02*
X67070952Y-57562656D01*
X67070952Y-57562656D02*
X67094762Y-57515037D01*
X67094762Y-57515037D02*
X67142381Y-57467418D01*
X67142381Y-57467418D02*
X67213809Y-57443608D01*
X67213809Y-57443608D02*
X67261428Y-57443608D01*
X67261428Y-57443608D02*
X67332857Y-57467418D01*
X67332857Y-57467418D02*
X67356666Y-57491227D01*
X67547143Y-57491227D02*
X67570952Y-57467418D01*
X67570952Y-57467418D02*
X67618571Y-57443608D01*
X67618571Y-57443608D02*
X67737619Y-57443608D01*
X67737619Y-57443608D02*
X67785238Y-57467418D01*
X67785238Y-57467418D02*
X67809047Y-57491227D01*
X67809047Y-57491227D02*
X67832857Y-57538846D01*
X67832857Y-57538846D02*
X67832857Y-57586465D01*
X67832857Y-57586465D02*
X67809047Y-57657894D01*
X67809047Y-57657894D02*
X67523333Y-57943608D01*
X67523333Y-57943608D02*
X67832857Y-57943608D01*
X71756666Y-63293610D02*
X71590000Y-63055515D01*
X71470952Y-63293610D02*
X71470952Y-62793610D01*
X71470952Y-62793610D02*
X71661428Y-62793610D01*
X71661428Y-62793610D02*
X71709047Y-62817420D01*
X71709047Y-62817420D02*
X71732857Y-62841229D01*
X71732857Y-62841229D02*
X71756666Y-62888848D01*
X71756666Y-62888848D02*
X71756666Y-62960277D01*
X71756666Y-62960277D02*
X71732857Y-63007896D01*
X71732857Y-63007896D02*
X71709047Y-63031705D01*
X71709047Y-63031705D02*
X71661428Y-63055515D01*
X71661428Y-63055515D02*
X71470952Y-63055515D01*
X72185238Y-62960277D02*
X72185238Y-63293610D01*
X72066190Y-62769801D02*
X71947143Y-63126943D01*
X71947143Y-63126943D02*
X72256666Y-63126943D01*
X72017380Y-52670990D02*
X71993571Y-52694800D01*
X71993571Y-52694800D02*
X71922142Y-52718609D01*
X71922142Y-52718609D02*
X71874523Y-52718609D01*
X71874523Y-52718609D02*
X71803095Y-52694800D01*
X71803095Y-52694800D02*
X71755476Y-52647180D01*
X71755476Y-52647180D02*
X71731666Y-52599561D01*
X71731666Y-52599561D02*
X71707857Y-52504323D01*
X71707857Y-52504323D02*
X71707857Y-52432895D01*
X71707857Y-52432895D02*
X71731666Y-52337657D01*
X71731666Y-52337657D02*
X71755476Y-52290038D01*
X71755476Y-52290038D02*
X71803095Y-52242419D01*
X71803095Y-52242419D02*
X71874523Y-52218609D01*
X71874523Y-52218609D02*
X71922142Y-52218609D01*
X71922142Y-52218609D02*
X71993571Y-52242419D01*
X71993571Y-52242419D02*
X72017380Y-52266228D01*
X72231666Y-52718609D02*
X72231666Y-52218609D01*
X72231666Y-52409085D02*
X72279285Y-52385276D01*
X72279285Y-52385276D02*
X72374523Y-52385276D01*
X72374523Y-52385276D02*
X72422142Y-52409085D01*
X72422142Y-52409085D02*
X72445952Y-52432895D01*
X72445952Y-52432895D02*
X72469761Y-52480514D01*
X72469761Y-52480514D02*
X72469761Y-52623371D01*
X72469761Y-52623371D02*
X72445952Y-52670990D01*
X72445952Y-52670990D02*
X72422142Y-52694800D01*
X72422142Y-52694800D02*
X72374523Y-52718609D01*
X72374523Y-52718609D02*
X72279285Y-52718609D01*
X72279285Y-52718609D02*
X72231666Y-52694800D01*
X72945952Y-52718609D02*
X72660238Y-52718609D01*
X72803095Y-52718609D02*
X72803095Y-52218609D01*
X72803095Y-52218609D02*
X72755476Y-52290038D01*
X72755476Y-52290038D02*
X72707857Y-52337657D01*
X72707857Y-52337657D02*
X72660238Y-52361466D01*
X73422142Y-52718609D02*
X73136428Y-52718609D01*
X73279285Y-52718609D02*
X73279285Y-52218609D01*
X73279285Y-52218609D02*
X73231666Y-52290038D01*
X73231666Y-52290038D02*
X73184047Y-52337657D01*
X73184047Y-52337657D02*
X73136428Y-52361466D01*
X75310270Y-138033490D02*
X75286461Y-138057300D01*
X75286461Y-138057300D02*
X75215032Y-138081109D01*
X75215032Y-138081109D02*
X75167413Y-138081109D01*
X75167413Y-138081109D02*
X75095985Y-138057300D01*
X75095985Y-138057300D02*
X75048366Y-138009680D01*
X75048366Y-138009680D02*
X75024556Y-137962061D01*
X75024556Y-137962061D02*
X75000747Y-137866823D01*
X75000747Y-137866823D02*
X75000747Y-137795395D01*
X75000747Y-137795395D02*
X75024556Y-137700157D01*
X75024556Y-137700157D02*
X75048366Y-137652538D01*
X75048366Y-137652538D02*
X75095985Y-137604919D01*
X75095985Y-137604919D02*
X75167413Y-137581109D01*
X75167413Y-137581109D02*
X75215032Y-137581109D01*
X75215032Y-137581109D02*
X75286461Y-137604919D01*
X75286461Y-137604919D02*
X75310270Y-137628728D01*
X75786461Y-138081109D02*
X75500747Y-138081109D01*
X75643604Y-138081109D02*
X75643604Y-137581109D01*
X75643604Y-137581109D02*
X75595985Y-137652538D01*
X75595985Y-137652538D02*
X75548366Y-137700157D01*
X75548366Y-137700157D02*
X75500747Y-137723966D01*
X70794713Y-127521429D02*
X70556618Y-127688095D01*
X70794713Y-127807143D02*
X70294713Y-127807143D01*
X70294713Y-127807143D02*
X70294713Y-127616667D01*
X70294713Y-127616667D02*
X70318523Y-127569048D01*
X70318523Y-127569048D02*
X70342332Y-127545238D01*
X70342332Y-127545238D02*
X70389951Y-127521429D01*
X70389951Y-127521429D02*
X70461380Y-127521429D01*
X70461380Y-127521429D02*
X70508999Y-127545238D01*
X70508999Y-127545238D02*
X70532808Y-127569048D01*
X70532808Y-127569048D02*
X70556618Y-127616667D01*
X70556618Y-127616667D02*
X70556618Y-127807143D01*
X70794713Y-127045238D02*
X70794713Y-127330952D01*
X70794713Y-127188095D02*
X70294713Y-127188095D01*
X70294713Y-127188095D02*
X70366142Y-127235714D01*
X70366142Y-127235714D02*
X70413761Y-127283333D01*
X70413761Y-127283333D02*
X70437570Y-127330952D01*
X70508999Y-126759524D02*
X70485189Y-126807143D01*
X70485189Y-126807143D02*
X70461380Y-126830953D01*
X70461380Y-126830953D02*
X70413761Y-126854762D01*
X70413761Y-126854762D02*
X70389951Y-126854762D01*
X70389951Y-126854762D02*
X70342332Y-126830953D01*
X70342332Y-126830953D02*
X70318523Y-126807143D01*
X70318523Y-126807143D02*
X70294713Y-126759524D01*
X70294713Y-126759524D02*
X70294713Y-126664286D01*
X70294713Y-126664286D02*
X70318523Y-126616667D01*
X70318523Y-126616667D02*
X70342332Y-126592858D01*
X70342332Y-126592858D02*
X70389951Y-126569048D01*
X70389951Y-126569048D02*
X70413761Y-126569048D01*
X70413761Y-126569048D02*
X70461380Y-126592858D01*
X70461380Y-126592858D02*
X70485189Y-126616667D01*
X70485189Y-126616667D02*
X70508999Y-126664286D01*
X70508999Y-126664286D02*
X70508999Y-126759524D01*
X70508999Y-126759524D02*
X70532808Y-126807143D01*
X70532808Y-126807143D02*
X70556618Y-126830953D01*
X70556618Y-126830953D02*
X70604237Y-126854762D01*
X70604237Y-126854762D02*
X70699475Y-126854762D01*
X70699475Y-126854762D02*
X70747094Y-126830953D01*
X70747094Y-126830953D02*
X70770904Y-126807143D01*
X70770904Y-126807143D02*
X70794713Y-126759524D01*
X70794713Y-126759524D02*
X70794713Y-126664286D01*
X70794713Y-126664286D02*
X70770904Y-126616667D01*
X70770904Y-126616667D02*
X70747094Y-126592858D01*
X70747094Y-126592858D02*
X70699475Y-126569048D01*
X70699475Y-126569048D02*
X70604237Y-126569048D01*
X70604237Y-126569048D02*
X70556618Y-126592858D01*
X70556618Y-126592858D02*
X70532808Y-126616667D01*
X70532808Y-126616667D02*
X70508999Y-126664286D01*
X64659675Y-137178490D02*
X64635866Y-137202300D01*
X64635866Y-137202300D02*
X64564437Y-137226109D01*
X64564437Y-137226109D02*
X64516818Y-137226109D01*
X64516818Y-137226109D02*
X64445390Y-137202300D01*
X64445390Y-137202300D02*
X64397771Y-137154680D01*
X64397771Y-137154680D02*
X64373961Y-137107061D01*
X64373961Y-137107061D02*
X64350152Y-137011823D01*
X64350152Y-137011823D02*
X64350152Y-136940395D01*
X64350152Y-136940395D02*
X64373961Y-136845157D01*
X64373961Y-136845157D02*
X64397771Y-136797538D01*
X64397771Y-136797538D02*
X64445390Y-136749919D01*
X64445390Y-136749919D02*
X64516818Y-136726109D01*
X64516818Y-136726109D02*
X64564437Y-136726109D01*
X64564437Y-136726109D02*
X64635866Y-136749919D01*
X64635866Y-136749919D02*
X64659675Y-136773728D01*
X65135866Y-137226109D02*
X64850152Y-137226109D01*
X64993009Y-137226109D02*
X64993009Y-136726109D01*
X64993009Y-136726109D02*
X64945390Y-136797538D01*
X64945390Y-136797538D02*
X64897771Y-136845157D01*
X64897771Y-136845157D02*
X64850152Y-136868966D01*
X65612056Y-137226109D02*
X65326342Y-137226109D01*
X65469199Y-137226109D02*
X65469199Y-136726109D01*
X65469199Y-136726109D02*
X65421580Y-136797538D01*
X65421580Y-136797538D02*
X65373961Y-136845157D01*
X65373961Y-136845157D02*
X65326342Y-136868966D01*
X112009675Y-127753490D02*
X111985866Y-127777300D01*
X111985866Y-127777300D02*
X111914437Y-127801109D01*
X111914437Y-127801109D02*
X111866818Y-127801109D01*
X111866818Y-127801109D02*
X111795390Y-127777300D01*
X111795390Y-127777300D02*
X111747771Y-127729680D01*
X111747771Y-127729680D02*
X111723961Y-127682061D01*
X111723961Y-127682061D02*
X111700152Y-127586823D01*
X111700152Y-127586823D02*
X111700152Y-127515395D01*
X111700152Y-127515395D02*
X111723961Y-127420157D01*
X111723961Y-127420157D02*
X111747771Y-127372538D01*
X111747771Y-127372538D02*
X111795390Y-127324919D01*
X111795390Y-127324919D02*
X111866818Y-127301109D01*
X111866818Y-127301109D02*
X111914437Y-127301109D01*
X111914437Y-127301109D02*
X111985866Y-127324919D01*
X111985866Y-127324919D02*
X112009675Y-127348728D01*
X112200152Y-127348728D02*
X112223961Y-127324919D01*
X112223961Y-127324919D02*
X112271580Y-127301109D01*
X112271580Y-127301109D02*
X112390628Y-127301109D01*
X112390628Y-127301109D02*
X112438247Y-127324919D01*
X112438247Y-127324919D02*
X112462056Y-127348728D01*
X112462056Y-127348728D02*
X112485866Y-127396347D01*
X112485866Y-127396347D02*
X112485866Y-127443966D01*
X112485866Y-127443966D02*
X112462056Y-127515395D01*
X112462056Y-127515395D02*
X112176342Y-127801109D01*
X112176342Y-127801109D02*
X112485866Y-127801109D01*
X112914437Y-127467776D02*
X112914437Y-127801109D01*
X112795389Y-127277300D02*
X112676342Y-127634442D01*
X112676342Y-127634442D02*
X112985865Y-127634442D01*
X106148891Y-88378571D02*
X106386986Y-88211905D01*
X106148891Y-88092857D02*
X106648891Y-88092857D01*
X106648891Y-88092857D02*
X106648891Y-88283333D01*
X106648891Y-88283333D02*
X106625081Y-88330952D01*
X106625081Y-88330952D02*
X106601272Y-88354762D01*
X106601272Y-88354762D02*
X106553653Y-88378571D01*
X106553653Y-88378571D02*
X106482224Y-88378571D01*
X106482224Y-88378571D02*
X106434605Y-88354762D01*
X106434605Y-88354762D02*
X106410796Y-88330952D01*
X106410796Y-88330952D02*
X106386986Y-88283333D01*
X106386986Y-88283333D02*
X106386986Y-88092857D01*
X106148891Y-88854762D02*
X106148891Y-88569048D01*
X106148891Y-88711905D02*
X106648891Y-88711905D01*
X106648891Y-88711905D02*
X106577462Y-88664286D01*
X106577462Y-88664286D02*
X106529843Y-88616667D01*
X106529843Y-88616667D02*
X106506034Y-88569048D01*
X106148891Y-89092857D02*
X106148891Y-89188095D01*
X106148891Y-89188095D02*
X106172701Y-89235714D01*
X106172701Y-89235714D02*
X106196510Y-89259523D01*
X106196510Y-89259523D02*
X106267939Y-89307142D01*
X106267939Y-89307142D02*
X106363177Y-89330952D01*
X106363177Y-89330952D02*
X106553653Y-89330952D01*
X106553653Y-89330952D02*
X106601272Y-89307142D01*
X106601272Y-89307142D02*
X106625081Y-89283333D01*
X106625081Y-89283333D02*
X106648891Y-89235714D01*
X106648891Y-89235714D02*
X106648891Y-89140476D01*
X106648891Y-89140476D02*
X106625081Y-89092857D01*
X106625081Y-89092857D02*
X106601272Y-89069047D01*
X106601272Y-89069047D02*
X106553653Y-89045238D01*
X106553653Y-89045238D02*
X106434605Y-89045238D01*
X106434605Y-89045238D02*
X106386986Y-89069047D01*
X106386986Y-89069047D02*
X106363177Y-89092857D01*
X106363177Y-89092857D02*
X106339367Y-89140476D01*
X106339367Y-89140476D02*
X106339367Y-89235714D01*
X106339367Y-89235714D02*
X106363177Y-89283333D01*
X106363177Y-89283333D02*
X106386986Y-89307142D01*
X106386986Y-89307142D02*
X106434605Y-89330952D01*
X99380952Y-97201109D02*
X99380952Y-97605871D01*
X99380952Y-97605871D02*
X99404762Y-97653490D01*
X99404762Y-97653490D02*
X99428571Y-97677300D01*
X99428571Y-97677300D02*
X99476190Y-97701109D01*
X99476190Y-97701109D02*
X99571428Y-97701109D01*
X99571428Y-97701109D02*
X99619047Y-97677300D01*
X99619047Y-97677300D02*
X99642857Y-97653490D01*
X99642857Y-97653490D02*
X99666666Y-97605871D01*
X99666666Y-97605871D02*
X99666666Y-97201109D01*
X100166667Y-97701109D02*
X99880953Y-97701109D01*
X100023810Y-97701109D02*
X100023810Y-97201109D01*
X100023810Y-97201109D02*
X99976191Y-97272538D01*
X99976191Y-97272538D02*
X99928572Y-97320157D01*
X99928572Y-97320157D02*
X99880953Y-97343966D01*
X100333333Y-97201109D02*
X100666666Y-97201109D01*
X100666666Y-97201109D02*
X100452381Y-97701109D01*
X73729994Y-125278571D02*
X73968089Y-125111905D01*
X73729994Y-124992857D02*
X74229994Y-124992857D01*
X74229994Y-124992857D02*
X74229994Y-125183333D01*
X74229994Y-125183333D02*
X74206184Y-125230952D01*
X74206184Y-125230952D02*
X74182375Y-125254762D01*
X74182375Y-125254762D02*
X74134756Y-125278571D01*
X74134756Y-125278571D02*
X74063327Y-125278571D01*
X74063327Y-125278571D02*
X74015708Y-125254762D01*
X74015708Y-125254762D02*
X73991899Y-125230952D01*
X73991899Y-125230952D02*
X73968089Y-125183333D01*
X73968089Y-125183333D02*
X73968089Y-124992857D01*
X73729994Y-125754762D02*
X73729994Y-125469048D01*
X73729994Y-125611905D02*
X74229994Y-125611905D01*
X74229994Y-125611905D02*
X74158565Y-125564286D01*
X74158565Y-125564286D02*
X74110946Y-125516667D01*
X74110946Y-125516667D02*
X74087137Y-125469048D01*
X74063327Y-126183333D02*
X73729994Y-126183333D01*
X74253804Y-126064285D02*
X73896661Y-125945238D01*
X73896661Y-125945238D02*
X73896661Y-126254761D01*
X64281666Y-60645989D02*
X64257857Y-60669799D01*
X64257857Y-60669799D02*
X64186428Y-60693608D01*
X64186428Y-60693608D02*
X64138809Y-60693608D01*
X64138809Y-60693608D02*
X64067381Y-60669799D01*
X64067381Y-60669799D02*
X64019762Y-60622179D01*
X64019762Y-60622179D02*
X63995952Y-60574560D01*
X63995952Y-60574560D02*
X63972143Y-60479322D01*
X63972143Y-60479322D02*
X63972143Y-60407894D01*
X63972143Y-60407894D02*
X63995952Y-60312656D01*
X63995952Y-60312656D02*
X64019762Y-60265037D01*
X64019762Y-60265037D02*
X64067381Y-60217418D01*
X64067381Y-60217418D02*
X64138809Y-60193608D01*
X64138809Y-60193608D02*
X64186428Y-60193608D01*
X64186428Y-60193608D02*
X64257857Y-60217418D01*
X64257857Y-60217418D02*
X64281666Y-60241227D01*
X64757857Y-60693608D02*
X64472143Y-60693608D01*
X64615000Y-60693608D02*
X64615000Y-60193608D01*
X64615000Y-60193608D02*
X64567381Y-60265037D01*
X64567381Y-60265037D02*
X64519762Y-60312656D01*
X64519762Y-60312656D02*
X64472143Y-60336465D01*
X66618452Y-77513609D02*
X66618452Y-77918371D01*
X66618452Y-77918371D02*
X66642262Y-77965990D01*
X66642262Y-77965990D02*
X66666071Y-77989800D01*
X66666071Y-77989800D02*
X66713690Y-78013609D01*
X66713690Y-78013609D02*
X66808928Y-78013609D01*
X66808928Y-78013609D02*
X66856547Y-77989800D01*
X66856547Y-77989800D02*
X66880357Y-77965990D01*
X66880357Y-77965990D02*
X66904166Y-77918371D01*
X66904166Y-77918371D02*
X66904166Y-77513609D01*
X67404167Y-78013609D02*
X67118453Y-78013609D01*
X67261310Y-78013609D02*
X67261310Y-77513609D01*
X67261310Y-77513609D02*
X67213691Y-77585038D01*
X67213691Y-77585038D02*
X67166072Y-77632657D01*
X67166072Y-77632657D02*
X67118453Y-77656466D01*
X67713690Y-77513609D02*
X67761309Y-77513609D01*
X67761309Y-77513609D02*
X67808928Y-77537419D01*
X67808928Y-77537419D02*
X67832738Y-77561228D01*
X67832738Y-77561228D02*
X67856547Y-77608847D01*
X67856547Y-77608847D02*
X67880357Y-77704085D01*
X67880357Y-77704085D02*
X67880357Y-77823133D01*
X67880357Y-77823133D02*
X67856547Y-77918371D01*
X67856547Y-77918371D02*
X67832738Y-77965990D01*
X67832738Y-77965990D02*
X67808928Y-77989800D01*
X67808928Y-77989800D02*
X67761309Y-78013609D01*
X67761309Y-78013609D02*
X67713690Y-78013609D01*
X67713690Y-78013609D02*
X67666071Y-77989800D01*
X67666071Y-77989800D02*
X67642262Y-77965990D01*
X67642262Y-77965990D02*
X67618452Y-77918371D01*
X67618452Y-77918371D02*
X67594643Y-77823133D01*
X67594643Y-77823133D02*
X67594643Y-77704085D01*
X67594643Y-77704085D02*
X67618452Y-77608847D01*
X67618452Y-77608847D02*
X67642262Y-77561228D01*
X67642262Y-77561228D02*
X67666071Y-77537419D01*
X67666071Y-77537419D02*
X67713690Y-77513609D01*
X87066666Y-49003490D02*
X87042857Y-49027300D01*
X87042857Y-49027300D02*
X86971428Y-49051109D01*
X86971428Y-49051109D02*
X86923809Y-49051109D01*
X86923809Y-49051109D02*
X86852381Y-49027300D01*
X86852381Y-49027300D02*
X86804762Y-48979680D01*
X86804762Y-48979680D02*
X86780952Y-48932061D01*
X86780952Y-48932061D02*
X86757143Y-48836823D01*
X86757143Y-48836823D02*
X86757143Y-48765395D01*
X86757143Y-48765395D02*
X86780952Y-48670157D01*
X86780952Y-48670157D02*
X86804762Y-48622538D01*
X86804762Y-48622538D02*
X86852381Y-48574919D01*
X86852381Y-48574919D02*
X86923809Y-48551109D01*
X86923809Y-48551109D02*
X86971428Y-48551109D01*
X86971428Y-48551109D02*
X87042857Y-48574919D01*
X87042857Y-48574919D02*
X87066666Y-48598728D01*
X87519047Y-48551109D02*
X87280952Y-48551109D01*
X87280952Y-48551109D02*
X87257143Y-48789204D01*
X87257143Y-48789204D02*
X87280952Y-48765395D01*
X87280952Y-48765395D02*
X87328571Y-48741585D01*
X87328571Y-48741585D02*
X87447619Y-48741585D01*
X87447619Y-48741585D02*
X87495238Y-48765395D01*
X87495238Y-48765395D02*
X87519047Y-48789204D01*
X87519047Y-48789204D02*
X87542857Y-48836823D01*
X87542857Y-48836823D02*
X87542857Y-48955871D01*
X87542857Y-48955871D02*
X87519047Y-49003490D01*
X87519047Y-49003490D02*
X87495238Y-49027300D01*
X87495238Y-49027300D02*
X87447619Y-49051109D01*
X87447619Y-49051109D02*
X87328571Y-49051109D01*
X87328571Y-49051109D02*
X87280952Y-49027300D01*
X87280952Y-49027300D02*
X87257143Y-49003490D01*
X93586310Y-66838608D02*
X93419644Y-66600513D01*
X93300596Y-66838608D02*
X93300596Y-66338608D01*
X93300596Y-66338608D02*
X93491072Y-66338608D01*
X93491072Y-66338608D02*
X93538691Y-66362418D01*
X93538691Y-66362418D02*
X93562501Y-66386227D01*
X93562501Y-66386227D02*
X93586310Y-66433846D01*
X93586310Y-66433846D02*
X93586310Y-66505275D01*
X93586310Y-66505275D02*
X93562501Y-66552894D01*
X93562501Y-66552894D02*
X93538691Y-66576703D01*
X93538691Y-66576703D02*
X93491072Y-66600513D01*
X93491072Y-66600513D02*
X93300596Y-66600513D01*
X93729168Y-66505275D02*
X93919644Y-66505275D01*
X93800596Y-66838608D02*
X93800596Y-66410037D01*
X93800596Y-66410037D02*
X93824406Y-66362418D01*
X93824406Y-66362418D02*
X93872025Y-66338608D01*
X93872025Y-66338608D02*
X93919644Y-66338608D01*
X94110120Y-66838608D02*
X94205358Y-66838608D01*
X94205358Y-66838608D02*
X94252977Y-66814799D01*
X94252977Y-66814799D02*
X94276786Y-66790989D01*
X94276786Y-66790989D02*
X94324405Y-66719560D01*
X94324405Y-66719560D02*
X94348215Y-66624322D01*
X94348215Y-66624322D02*
X94348215Y-66433846D01*
X94348215Y-66433846D02*
X94324405Y-66386227D01*
X94324405Y-66386227D02*
X94300596Y-66362418D01*
X94300596Y-66362418D02*
X94252977Y-66338608D01*
X94252977Y-66338608D02*
X94157739Y-66338608D01*
X94157739Y-66338608D02*
X94110120Y-66362418D01*
X94110120Y-66362418D02*
X94086310Y-66386227D01*
X94086310Y-66386227D02*
X94062501Y-66433846D01*
X94062501Y-66433846D02*
X94062501Y-66552894D01*
X94062501Y-66552894D02*
X94086310Y-66600513D01*
X94086310Y-66600513D02*
X94110120Y-66624322D01*
X94110120Y-66624322D02*
X94157739Y-66648132D01*
X94157739Y-66648132D02*
X94252977Y-66648132D01*
X94252977Y-66648132D02*
X94300596Y-66624322D01*
X94300596Y-66624322D02*
X94324405Y-66600513D01*
X94324405Y-66600513D02*
X94348215Y-66552894D01*
X108284674Y-119773490D02*
X108260865Y-119797300D01*
X108260865Y-119797300D02*
X108189436Y-119821109D01*
X108189436Y-119821109D02*
X108141817Y-119821109D01*
X108141817Y-119821109D02*
X108070389Y-119797300D01*
X108070389Y-119797300D02*
X108022770Y-119749680D01*
X108022770Y-119749680D02*
X107998960Y-119702061D01*
X107998960Y-119702061D02*
X107975151Y-119606823D01*
X107975151Y-119606823D02*
X107975151Y-119535395D01*
X107975151Y-119535395D02*
X107998960Y-119440157D01*
X107998960Y-119440157D02*
X108022770Y-119392538D01*
X108022770Y-119392538D02*
X108070389Y-119344919D01*
X108070389Y-119344919D02*
X108141817Y-119321109D01*
X108141817Y-119321109D02*
X108189436Y-119321109D01*
X108189436Y-119321109D02*
X108260865Y-119344919D01*
X108260865Y-119344919D02*
X108284674Y-119368728D01*
X108475151Y-119368728D02*
X108498960Y-119344919D01*
X108498960Y-119344919D02*
X108546579Y-119321109D01*
X108546579Y-119321109D02*
X108665627Y-119321109D01*
X108665627Y-119321109D02*
X108713246Y-119344919D01*
X108713246Y-119344919D02*
X108737055Y-119368728D01*
X108737055Y-119368728D02*
X108760865Y-119416347D01*
X108760865Y-119416347D02*
X108760865Y-119463966D01*
X108760865Y-119463966D02*
X108737055Y-119535395D01*
X108737055Y-119535395D02*
X108451341Y-119821109D01*
X108451341Y-119821109D02*
X108760865Y-119821109D01*
X108927531Y-119321109D02*
X109237055Y-119321109D01*
X109237055Y-119321109D02*
X109070388Y-119511585D01*
X109070388Y-119511585D02*
X109141817Y-119511585D01*
X109141817Y-119511585D02*
X109189436Y-119535395D01*
X109189436Y-119535395D02*
X109213245Y-119559204D01*
X109213245Y-119559204D02*
X109237055Y-119606823D01*
X109237055Y-119606823D02*
X109237055Y-119725871D01*
X109237055Y-119725871D02*
X109213245Y-119773490D01*
X109213245Y-119773490D02*
X109189436Y-119797300D01*
X109189436Y-119797300D02*
X109141817Y-119821109D01*
X109141817Y-119821109D02*
X108998960Y-119821109D01*
X108998960Y-119821109D02*
X108951341Y-119797300D01*
X108951341Y-119797300D02*
X108927531Y-119773490D01*
X105138610Y-77058927D02*
X104900515Y-77225593D01*
X105138610Y-77344641D02*
X104638610Y-77344641D01*
X104638610Y-77344641D02*
X104638610Y-77154165D01*
X104638610Y-77154165D02*
X104662420Y-77106546D01*
X104662420Y-77106546D02*
X104686229Y-77082736D01*
X104686229Y-77082736D02*
X104733848Y-77058927D01*
X104733848Y-77058927D02*
X104805277Y-77058927D01*
X104805277Y-77058927D02*
X104852896Y-77082736D01*
X104852896Y-77082736D02*
X104876705Y-77106546D01*
X104876705Y-77106546D02*
X104900515Y-77154165D01*
X104900515Y-77154165D02*
X104900515Y-77344641D01*
X105138610Y-76582736D02*
X105138610Y-76868450D01*
X105138610Y-76725593D02*
X104638610Y-76725593D01*
X104638610Y-76725593D02*
X104710039Y-76773212D01*
X104710039Y-76773212D02*
X104757658Y-76820831D01*
X104757658Y-76820831D02*
X104781467Y-76868450D01*
X104686229Y-76392260D02*
X104662420Y-76368451D01*
X104662420Y-76368451D02*
X104638610Y-76320832D01*
X104638610Y-76320832D02*
X104638610Y-76201784D01*
X104638610Y-76201784D02*
X104662420Y-76154165D01*
X104662420Y-76154165D02*
X104686229Y-76130356D01*
X104686229Y-76130356D02*
X104733848Y-76106546D01*
X104733848Y-76106546D02*
X104781467Y-76106546D01*
X104781467Y-76106546D02*
X104852896Y-76130356D01*
X104852896Y-76130356D02*
X105138610Y-76416070D01*
X105138610Y-76416070D02*
X105138610Y-76106546D01*
X59951109Y-75571428D02*
X59713014Y-75738094D01*
X59951109Y-75857142D02*
X59451109Y-75857142D01*
X59451109Y-75857142D02*
X59451109Y-75666666D01*
X59451109Y-75666666D02*
X59474919Y-75619047D01*
X59474919Y-75619047D02*
X59498728Y-75595237D01*
X59498728Y-75595237D02*
X59546347Y-75571428D01*
X59546347Y-75571428D02*
X59617776Y-75571428D01*
X59617776Y-75571428D02*
X59665395Y-75595237D01*
X59665395Y-75595237D02*
X59689204Y-75619047D01*
X59689204Y-75619047D02*
X59713014Y-75666666D01*
X59713014Y-75666666D02*
X59713014Y-75857142D01*
X59951109Y-75095237D02*
X59951109Y-75380951D01*
X59951109Y-75238094D02*
X59451109Y-75238094D01*
X59451109Y-75238094D02*
X59522538Y-75285713D01*
X59522538Y-75285713D02*
X59570157Y-75333332D01*
X59570157Y-75333332D02*
X59593966Y-75380951D01*
X59451109Y-74785714D02*
X59451109Y-74738095D01*
X59451109Y-74738095D02*
X59474919Y-74690476D01*
X59474919Y-74690476D02*
X59498728Y-74666666D01*
X59498728Y-74666666D02*
X59546347Y-74642857D01*
X59546347Y-74642857D02*
X59641585Y-74619047D01*
X59641585Y-74619047D02*
X59760633Y-74619047D01*
X59760633Y-74619047D02*
X59855871Y-74642857D01*
X59855871Y-74642857D02*
X59903490Y-74666666D01*
X59903490Y-74666666D02*
X59927300Y-74690476D01*
X59927300Y-74690476D02*
X59951109Y-74738095D01*
X59951109Y-74738095D02*
X59951109Y-74785714D01*
X59951109Y-74785714D02*
X59927300Y-74833333D01*
X59927300Y-74833333D02*
X59903490Y-74857142D01*
X59903490Y-74857142D02*
X59855871Y-74880952D01*
X59855871Y-74880952D02*
X59760633Y-74904761D01*
X59760633Y-74904761D02*
X59641585Y-74904761D01*
X59641585Y-74904761D02*
X59546347Y-74880952D01*
X59546347Y-74880952D02*
X59498728Y-74857142D01*
X59498728Y-74857142D02*
X59474919Y-74833333D01*
X59474919Y-74833333D02*
X59451109Y-74785714D01*
X101291666Y-40186109D02*
X101125000Y-39948014D01*
X101005952Y-40186109D02*
X101005952Y-39686109D01*
X101005952Y-39686109D02*
X101196428Y-39686109D01*
X101196428Y-39686109D02*
X101244047Y-39709919D01*
X101244047Y-39709919D02*
X101267857Y-39733728D01*
X101267857Y-39733728D02*
X101291666Y-39781347D01*
X101291666Y-39781347D02*
X101291666Y-39852776D01*
X101291666Y-39852776D02*
X101267857Y-39900395D01*
X101267857Y-39900395D02*
X101244047Y-39924204D01*
X101244047Y-39924204D02*
X101196428Y-39948014D01*
X101196428Y-39948014D02*
X101005952Y-39948014D01*
X101720238Y-39686109D02*
X101625000Y-39686109D01*
X101625000Y-39686109D02*
X101577381Y-39709919D01*
X101577381Y-39709919D02*
X101553571Y-39733728D01*
X101553571Y-39733728D02*
X101505952Y-39805157D01*
X101505952Y-39805157D02*
X101482143Y-39900395D01*
X101482143Y-39900395D02*
X101482143Y-40090871D01*
X101482143Y-40090871D02*
X101505952Y-40138490D01*
X101505952Y-40138490D02*
X101529762Y-40162300D01*
X101529762Y-40162300D02*
X101577381Y-40186109D01*
X101577381Y-40186109D02*
X101672619Y-40186109D01*
X101672619Y-40186109D02*
X101720238Y-40162300D01*
X101720238Y-40162300D02*
X101744047Y-40138490D01*
X101744047Y-40138490D02*
X101767857Y-40090871D01*
X101767857Y-40090871D02*
X101767857Y-39971823D01*
X101767857Y-39971823D02*
X101744047Y-39924204D01*
X101744047Y-39924204D02*
X101720238Y-39900395D01*
X101720238Y-39900395D02*
X101672619Y-39876585D01*
X101672619Y-39876585D02*
X101577381Y-39876585D01*
X101577381Y-39876585D02*
X101529762Y-39900395D01*
X101529762Y-39900395D02*
X101505952Y-39924204D01*
X101505952Y-39924204D02*
X101482143Y-39971823D01*
X115041666Y-94476109D02*
X114875000Y-94238014D01*
X114755952Y-94476109D02*
X114755952Y-93976109D01*
X114755952Y-93976109D02*
X114946428Y-93976109D01*
X114946428Y-93976109D02*
X114994047Y-93999919D01*
X114994047Y-93999919D02*
X115017857Y-94023728D01*
X115017857Y-94023728D02*
X115041666Y-94071347D01*
X115041666Y-94071347D02*
X115041666Y-94142776D01*
X115041666Y-94142776D02*
X115017857Y-94190395D01*
X115017857Y-94190395D02*
X114994047Y-94214204D01*
X114994047Y-94214204D02*
X114946428Y-94238014D01*
X114946428Y-94238014D02*
X114755952Y-94238014D01*
X115517857Y-94476109D02*
X115232143Y-94476109D01*
X115375000Y-94476109D02*
X115375000Y-93976109D01*
X115375000Y-93976109D02*
X115327381Y-94047538D01*
X115327381Y-94047538D02*
X115279762Y-94095157D01*
X115279762Y-94095157D02*
X115232143Y-94118966D01*
X76598809Y-55576109D02*
X76432143Y-55338014D01*
X76313095Y-55576109D02*
X76313095Y-55076109D01*
X76313095Y-55076109D02*
X76503571Y-55076109D01*
X76503571Y-55076109D02*
X76551190Y-55099919D01*
X76551190Y-55099919D02*
X76575000Y-55123728D01*
X76575000Y-55123728D02*
X76598809Y-55171347D01*
X76598809Y-55171347D02*
X76598809Y-55242776D01*
X76598809Y-55242776D02*
X76575000Y-55290395D01*
X76575000Y-55290395D02*
X76551190Y-55314204D01*
X76551190Y-55314204D02*
X76503571Y-55338014D01*
X76503571Y-55338014D02*
X76313095Y-55338014D01*
X76741667Y-55242776D02*
X76932143Y-55242776D01*
X76813095Y-55576109D02*
X76813095Y-55147538D01*
X76813095Y-55147538D02*
X76836905Y-55099919D01*
X76836905Y-55099919D02*
X76884524Y-55076109D01*
X76884524Y-55076109D02*
X76932143Y-55076109D01*
X77051190Y-55076109D02*
X77360714Y-55076109D01*
X77360714Y-55076109D02*
X77194047Y-55266585D01*
X77194047Y-55266585D02*
X77265476Y-55266585D01*
X77265476Y-55266585D02*
X77313095Y-55290395D01*
X77313095Y-55290395D02*
X77336904Y-55314204D01*
X77336904Y-55314204D02*
X77360714Y-55361823D01*
X77360714Y-55361823D02*
X77360714Y-55480871D01*
X77360714Y-55480871D02*
X77336904Y-55528490D01*
X77336904Y-55528490D02*
X77313095Y-55552300D01*
X77313095Y-55552300D02*
X77265476Y-55576109D01*
X77265476Y-55576109D02*
X77122619Y-55576109D01*
X77122619Y-55576109D02*
X77075000Y-55552300D01*
X77075000Y-55552300D02*
X77051190Y-55528490D01*
X68775151Y-131363609D02*
X68775151Y-131768371D01*
X68775151Y-131768371D02*
X68798961Y-131815990D01*
X68798961Y-131815990D02*
X68822770Y-131839800D01*
X68822770Y-131839800D02*
X68870389Y-131863609D01*
X68870389Y-131863609D02*
X68965627Y-131863609D01*
X68965627Y-131863609D02*
X69013246Y-131839800D01*
X69013246Y-131839800D02*
X69037056Y-131815990D01*
X69037056Y-131815990D02*
X69060865Y-131768371D01*
X69060865Y-131768371D02*
X69060865Y-131363609D01*
X69370390Y-131577895D02*
X69322771Y-131554085D01*
X69322771Y-131554085D02*
X69298961Y-131530276D01*
X69298961Y-131530276D02*
X69275152Y-131482657D01*
X69275152Y-131482657D02*
X69275152Y-131458847D01*
X69275152Y-131458847D02*
X69298961Y-131411228D01*
X69298961Y-131411228D02*
X69322771Y-131387419D01*
X69322771Y-131387419D02*
X69370390Y-131363609D01*
X69370390Y-131363609D02*
X69465628Y-131363609D01*
X69465628Y-131363609D02*
X69513247Y-131387419D01*
X69513247Y-131387419D02*
X69537056Y-131411228D01*
X69537056Y-131411228D02*
X69560866Y-131458847D01*
X69560866Y-131458847D02*
X69560866Y-131482657D01*
X69560866Y-131482657D02*
X69537056Y-131530276D01*
X69537056Y-131530276D02*
X69513247Y-131554085D01*
X69513247Y-131554085D02*
X69465628Y-131577895D01*
X69465628Y-131577895D02*
X69370390Y-131577895D01*
X69370390Y-131577895D02*
X69322771Y-131601704D01*
X69322771Y-131601704D02*
X69298961Y-131625514D01*
X69298961Y-131625514D02*
X69275152Y-131673133D01*
X69275152Y-131673133D02*
X69275152Y-131768371D01*
X69275152Y-131768371D02*
X69298961Y-131815990D01*
X69298961Y-131815990D02*
X69322771Y-131839800D01*
X69322771Y-131839800D02*
X69370390Y-131863609D01*
X69370390Y-131863609D02*
X69465628Y-131863609D01*
X69465628Y-131863609D02*
X69513247Y-131839800D01*
X69513247Y-131839800D02*
X69537056Y-131815990D01*
X69537056Y-131815990D02*
X69560866Y-131768371D01*
X69560866Y-131768371D02*
X69560866Y-131673133D01*
X69560866Y-131673133D02*
X69537056Y-131625514D01*
X69537056Y-131625514D02*
X69513247Y-131601704D01*
X69513247Y-131601704D02*
X69465628Y-131577895D01*
X54716071Y-97298490D02*
X54692262Y-97322300D01*
X54692262Y-97322300D02*
X54620833Y-97346109D01*
X54620833Y-97346109D02*
X54573214Y-97346109D01*
X54573214Y-97346109D02*
X54501786Y-97322300D01*
X54501786Y-97322300D02*
X54454167Y-97274680D01*
X54454167Y-97274680D02*
X54430357Y-97227061D01*
X54430357Y-97227061D02*
X54406548Y-97131823D01*
X54406548Y-97131823D02*
X54406548Y-97060395D01*
X54406548Y-97060395D02*
X54430357Y-96965157D01*
X54430357Y-96965157D02*
X54454167Y-96917538D01*
X54454167Y-96917538D02*
X54501786Y-96869919D01*
X54501786Y-96869919D02*
X54573214Y-96846109D01*
X54573214Y-96846109D02*
X54620833Y-96846109D01*
X54620833Y-96846109D02*
X54692262Y-96869919D01*
X54692262Y-96869919D02*
X54716071Y-96893728D01*
X55192262Y-97346109D02*
X54906548Y-97346109D01*
X55049405Y-97346109D02*
X55049405Y-96846109D01*
X55049405Y-96846109D02*
X55001786Y-96917538D01*
X55001786Y-96917538D02*
X54954167Y-96965157D01*
X54954167Y-96965157D02*
X54906548Y-96988966D01*
X55620833Y-96846109D02*
X55525595Y-96846109D01*
X55525595Y-96846109D02*
X55477976Y-96869919D01*
X55477976Y-96869919D02*
X55454166Y-96893728D01*
X55454166Y-96893728D02*
X55406547Y-96965157D01*
X55406547Y-96965157D02*
X55382738Y-97060395D01*
X55382738Y-97060395D02*
X55382738Y-97250871D01*
X55382738Y-97250871D02*
X55406547Y-97298490D01*
X55406547Y-97298490D02*
X55430357Y-97322300D01*
X55430357Y-97322300D02*
X55477976Y-97346109D01*
X55477976Y-97346109D02*
X55573214Y-97346109D01*
X55573214Y-97346109D02*
X55620833Y-97322300D01*
X55620833Y-97322300D02*
X55644642Y-97298490D01*
X55644642Y-97298490D02*
X55668452Y-97250871D01*
X55668452Y-97250871D02*
X55668452Y-97131823D01*
X55668452Y-97131823D02*
X55644642Y-97084204D01*
X55644642Y-97084204D02*
X55620833Y-97060395D01*
X55620833Y-97060395D02*
X55573214Y-97036585D01*
X55573214Y-97036585D02*
X55477976Y-97036585D01*
X55477976Y-97036585D02*
X55430357Y-97060395D01*
X55430357Y-97060395D02*
X55406547Y-97084204D01*
X55406547Y-97084204D02*
X55382738Y-97131823D01*
X106159010Y-96673213D02*
X106135201Y-96649404D01*
X106135201Y-96649404D02*
X106111391Y-96577975D01*
X106111391Y-96577975D02*
X106111391Y-96530356D01*
X106111391Y-96530356D02*
X106135201Y-96458928D01*
X106135201Y-96458928D02*
X106182820Y-96411309D01*
X106182820Y-96411309D02*
X106230439Y-96387499D01*
X106230439Y-96387499D02*
X106325677Y-96363690D01*
X106325677Y-96363690D02*
X106397105Y-96363690D01*
X106397105Y-96363690D02*
X106492343Y-96387499D01*
X106492343Y-96387499D02*
X106539962Y-96411309D01*
X106539962Y-96411309D02*
X106587581Y-96458928D01*
X106587581Y-96458928D02*
X106611391Y-96530356D01*
X106611391Y-96530356D02*
X106611391Y-96577975D01*
X106611391Y-96577975D02*
X106587581Y-96649404D01*
X106587581Y-96649404D02*
X106563772Y-96673213D01*
X106444724Y-96816071D02*
X106444724Y-97006547D01*
X106111391Y-96887499D02*
X106539962Y-96887499D01*
X106539962Y-96887499D02*
X106587581Y-96911309D01*
X106587581Y-96911309D02*
X106611391Y-96958928D01*
X106611391Y-96958928D02*
X106611391Y-97006547D01*
X106111391Y-97435118D02*
X106111391Y-97149404D01*
X106111391Y-97292261D02*
X106611391Y-97292261D01*
X106611391Y-97292261D02*
X106539962Y-97244642D01*
X106539962Y-97244642D02*
X106492343Y-97197023D01*
X106492343Y-97197023D02*
X106468534Y-97149404D01*
X106611391Y-97744641D02*
X106611391Y-97792260D01*
X106611391Y-97792260D02*
X106587581Y-97839879D01*
X106587581Y-97839879D02*
X106563772Y-97863689D01*
X106563772Y-97863689D02*
X106516153Y-97887498D01*
X106516153Y-97887498D02*
X106420915Y-97911308D01*
X106420915Y-97911308D02*
X106301867Y-97911308D01*
X106301867Y-97911308D02*
X106206629Y-97887498D01*
X106206629Y-97887498D02*
X106159010Y-97863689D01*
X106159010Y-97863689D02*
X106135201Y-97839879D01*
X106135201Y-97839879D02*
X106111391Y-97792260D01*
X106111391Y-97792260D02*
X106111391Y-97744641D01*
X106111391Y-97744641D02*
X106135201Y-97697022D01*
X106135201Y-97697022D02*
X106159010Y-97673213D01*
X106159010Y-97673213D02*
X106206629Y-97649403D01*
X106206629Y-97649403D02*
X106301867Y-97625594D01*
X106301867Y-97625594D02*
X106420915Y-97625594D01*
X106420915Y-97625594D02*
X106516153Y-97649403D01*
X106516153Y-97649403D02*
X106563772Y-97673213D01*
X106563772Y-97673213D02*
X106587581Y-97697022D01*
X106587581Y-97697022D02*
X106611391Y-97744641D01*
X65968453Y-84213608D02*
X65968453Y-84618370D01*
X65968453Y-84618370D02*
X65992263Y-84665989D01*
X65992263Y-84665989D02*
X66016072Y-84689799D01*
X66016072Y-84689799D02*
X66063691Y-84713608D01*
X66063691Y-84713608D02*
X66158929Y-84713608D01*
X66158929Y-84713608D02*
X66206548Y-84689799D01*
X66206548Y-84689799D02*
X66230358Y-84665989D01*
X66230358Y-84665989D02*
X66254167Y-84618370D01*
X66254167Y-84618370D02*
X66254167Y-84213608D01*
X66754168Y-84713608D02*
X66468454Y-84713608D01*
X66611311Y-84713608D02*
X66611311Y-84213608D01*
X66611311Y-84213608D02*
X66563692Y-84285037D01*
X66563692Y-84285037D02*
X66516073Y-84332656D01*
X66516073Y-84332656D02*
X66468454Y-84356465D01*
X67182739Y-84380275D02*
X67182739Y-84713608D01*
X67063691Y-84189799D02*
X66944644Y-84546941D01*
X66944644Y-84546941D02*
X67254167Y-84546941D01*
X98138610Y-77613689D02*
X97900515Y-77780355D01*
X98138610Y-77899403D02*
X97638610Y-77899403D01*
X97638610Y-77899403D02*
X97638610Y-77708927D01*
X97638610Y-77708927D02*
X97662420Y-77661308D01*
X97662420Y-77661308D02*
X97686229Y-77637498D01*
X97686229Y-77637498D02*
X97733848Y-77613689D01*
X97733848Y-77613689D02*
X97805277Y-77613689D01*
X97805277Y-77613689D02*
X97852896Y-77637498D01*
X97852896Y-77637498D02*
X97876705Y-77661308D01*
X97876705Y-77661308D02*
X97900515Y-77708927D01*
X97900515Y-77708927D02*
X97900515Y-77899403D01*
X97805277Y-77470831D02*
X97805277Y-77280355D01*
X98138610Y-77399403D02*
X97710039Y-77399403D01*
X97710039Y-77399403D02*
X97662420Y-77375593D01*
X97662420Y-77375593D02*
X97638610Y-77327974D01*
X97638610Y-77327974D02*
X97638610Y-77280355D01*
X97638610Y-77161308D02*
X97638610Y-76827975D01*
X97638610Y-76827975D02*
X98138610Y-77042260D01*
X83788809Y-56168609D02*
X83622143Y-55930514D01*
X83503095Y-56168609D02*
X83503095Y-55668609D01*
X83503095Y-55668609D02*
X83693571Y-55668609D01*
X83693571Y-55668609D02*
X83741190Y-55692419D01*
X83741190Y-55692419D02*
X83765000Y-55716228D01*
X83765000Y-55716228D02*
X83788809Y-55763847D01*
X83788809Y-55763847D02*
X83788809Y-55835276D01*
X83788809Y-55835276D02*
X83765000Y-55882895D01*
X83765000Y-55882895D02*
X83741190Y-55906704D01*
X83741190Y-55906704D02*
X83693571Y-55930514D01*
X83693571Y-55930514D02*
X83503095Y-55930514D01*
X83931667Y-55835276D02*
X84122143Y-55835276D01*
X84003095Y-56168609D02*
X84003095Y-55740038D01*
X84003095Y-55740038D02*
X84026905Y-55692419D01*
X84026905Y-55692419D02*
X84074524Y-55668609D01*
X84074524Y-55668609D02*
X84122143Y-55668609D01*
X84550714Y-56168609D02*
X84265000Y-56168609D01*
X84407857Y-56168609D02*
X84407857Y-55668609D01*
X84407857Y-55668609D02*
X84360238Y-55740038D01*
X84360238Y-55740038D02*
X84312619Y-55787657D01*
X84312619Y-55787657D02*
X84265000Y-55811466D01*
X67261309Y-80465988D02*
X67237500Y-80489798D01*
X67237500Y-80489798D02*
X67166071Y-80513607D01*
X67166071Y-80513607D02*
X67118452Y-80513607D01*
X67118452Y-80513607D02*
X67047024Y-80489798D01*
X67047024Y-80489798D02*
X66999405Y-80442178D01*
X66999405Y-80442178D02*
X66975595Y-80394559D01*
X66975595Y-80394559D02*
X66951786Y-80299321D01*
X66951786Y-80299321D02*
X66951786Y-80227893D01*
X66951786Y-80227893D02*
X66975595Y-80132655D01*
X66975595Y-80132655D02*
X66999405Y-80085036D01*
X66999405Y-80085036D02*
X67047024Y-80037417D01*
X67047024Y-80037417D02*
X67118452Y-80013607D01*
X67118452Y-80013607D02*
X67166071Y-80013607D01*
X67166071Y-80013607D02*
X67237500Y-80037417D01*
X67237500Y-80037417D02*
X67261309Y-80061226D01*
X67404167Y-80180274D02*
X67594643Y-80180274D01*
X67475595Y-80513607D02*
X67475595Y-80085036D01*
X67475595Y-80085036D02*
X67499405Y-80037417D01*
X67499405Y-80037417D02*
X67547024Y-80013607D01*
X67547024Y-80013607D02*
X67594643Y-80013607D01*
X67713690Y-80013607D02*
X68023214Y-80013607D01*
X68023214Y-80013607D02*
X67856547Y-80204083D01*
X67856547Y-80204083D02*
X67927976Y-80204083D01*
X67927976Y-80204083D02*
X67975595Y-80227893D01*
X67975595Y-80227893D02*
X67999404Y-80251702D01*
X67999404Y-80251702D02*
X68023214Y-80299321D01*
X68023214Y-80299321D02*
X68023214Y-80418369D01*
X68023214Y-80418369D02*
X67999404Y-80465988D01*
X67999404Y-80465988D02*
X67975595Y-80489798D01*
X67975595Y-80489798D02*
X67927976Y-80513607D01*
X67927976Y-80513607D02*
X67785119Y-80513607D01*
X67785119Y-80513607D02*
X67737500Y-80489798D01*
X67737500Y-80489798D02*
X67713690Y-80465988D01*
X97234010Y-85036308D02*
X97210201Y-85012499D01*
X97210201Y-85012499D02*
X97186391Y-84941070D01*
X97186391Y-84941070D02*
X97186391Y-84893451D01*
X97186391Y-84893451D02*
X97210201Y-84822023D01*
X97210201Y-84822023D02*
X97257820Y-84774404D01*
X97257820Y-84774404D02*
X97305439Y-84750594D01*
X97305439Y-84750594D02*
X97400677Y-84726785D01*
X97400677Y-84726785D02*
X97472105Y-84726785D01*
X97472105Y-84726785D02*
X97567343Y-84750594D01*
X97567343Y-84750594D02*
X97614962Y-84774404D01*
X97614962Y-84774404D02*
X97662581Y-84822023D01*
X97662581Y-84822023D02*
X97686391Y-84893451D01*
X97686391Y-84893451D02*
X97686391Y-84941070D01*
X97686391Y-84941070D02*
X97662581Y-85012499D01*
X97662581Y-85012499D02*
X97638772Y-85036308D01*
X97519724Y-85179166D02*
X97519724Y-85369642D01*
X97186391Y-85250594D02*
X97614962Y-85250594D01*
X97614962Y-85250594D02*
X97662581Y-85274404D01*
X97662581Y-85274404D02*
X97686391Y-85322023D01*
X97686391Y-85322023D02*
X97686391Y-85369642D01*
X97186391Y-85560118D02*
X97186391Y-85655356D01*
X97186391Y-85655356D02*
X97210201Y-85702975D01*
X97210201Y-85702975D02*
X97234010Y-85726784D01*
X97234010Y-85726784D02*
X97305439Y-85774403D01*
X97305439Y-85774403D02*
X97400677Y-85798213D01*
X97400677Y-85798213D02*
X97591153Y-85798213D01*
X97591153Y-85798213D02*
X97638772Y-85774403D01*
X97638772Y-85774403D02*
X97662581Y-85750594D01*
X97662581Y-85750594D02*
X97686391Y-85702975D01*
X97686391Y-85702975D02*
X97686391Y-85607737D01*
X97686391Y-85607737D02*
X97662581Y-85560118D01*
X97662581Y-85560118D02*
X97638772Y-85536308D01*
X97638772Y-85536308D02*
X97591153Y-85512499D01*
X97591153Y-85512499D02*
X97472105Y-85512499D01*
X97472105Y-85512499D02*
X97424486Y-85536308D01*
X97424486Y-85536308D02*
X97400677Y-85560118D01*
X97400677Y-85560118D02*
X97376867Y-85607737D01*
X97376867Y-85607737D02*
X97376867Y-85702975D01*
X97376867Y-85702975D02*
X97400677Y-85750594D01*
X97400677Y-85750594D02*
X97424486Y-85774403D01*
X97424486Y-85774403D02*
X97472105Y-85798213D01*
D11*
X102213095Y-51804819D02*
X102213095Y-52614342D01*
X102213095Y-52614342D02*
X102260714Y-52709580D01*
X102260714Y-52709580D02*
X102308333Y-52757200D01*
X102308333Y-52757200D02*
X102403571Y-52804819D01*
X102403571Y-52804819D02*
X102594047Y-52804819D01*
X102594047Y-52804819D02*
X102689285Y-52757200D01*
X102689285Y-52757200D02*
X102736904Y-52709580D01*
X102736904Y-52709580D02*
X102784523Y-52614342D01*
X102784523Y-52614342D02*
X102784523Y-51804819D01*
X103165476Y-51804819D02*
X103832142Y-51804819D01*
X103832142Y-51804819D02*
X103403571Y-52804819D01*
D10*
X91394047Y-48176109D02*
X91394047Y-48580871D01*
X91394047Y-48580871D02*
X91417857Y-48628490D01*
X91417857Y-48628490D02*
X91441666Y-48652300D01*
X91441666Y-48652300D02*
X91489285Y-48676109D01*
X91489285Y-48676109D02*
X91584523Y-48676109D01*
X91584523Y-48676109D02*
X91632142Y-48652300D01*
X91632142Y-48652300D02*
X91655952Y-48628490D01*
X91655952Y-48628490D02*
X91679761Y-48580871D01*
X91679761Y-48580871D02*
X91679761Y-48176109D01*
X92155952Y-48176109D02*
X91917857Y-48176109D01*
X91917857Y-48176109D02*
X91894048Y-48414204D01*
X91894048Y-48414204D02*
X91917857Y-48390395D01*
X91917857Y-48390395D02*
X91965476Y-48366585D01*
X91965476Y-48366585D02*
X92084524Y-48366585D01*
X92084524Y-48366585D02*
X92132143Y-48390395D01*
X92132143Y-48390395D02*
X92155952Y-48414204D01*
X92155952Y-48414204D02*
X92179762Y-48461823D01*
X92179762Y-48461823D02*
X92179762Y-48580871D01*
X92179762Y-48580871D02*
X92155952Y-48628490D01*
X92155952Y-48628490D02*
X92132143Y-48652300D01*
X92132143Y-48652300D02*
X92084524Y-48676109D01*
X92084524Y-48676109D02*
X91965476Y-48676109D01*
X91965476Y-48676109D02*
X91917857Y-48652300D01*
X91917857Y-48652300D02*
X91894048Y-48628490D01*
X59709675Y-119451109D02*
X59543009Y-119213014D01*
X59423961Y-119451109D02*
X59423961Y-118951109D01*
X59423961Y-118951109D02*
X59614437Y-118951109D01*
X59614437Y-118951109D02*
X59662056Y-118974919D01*
X59662056Y-118974919D02*
X59685866Y-118998728D01*
X59685866Y-118998728D02*
X59709675Y-119046347D01*
X59709675Y-119046347D02*
X59709675Y-119117776D01*
X59709675Y-119117776D02*
X59685866Y-119165395D01*
X59685866Y-119165395D02*
X59662056Y-119189204D01*
X59662056Y-119189204D02*
X59614437Y-119213014D01*
X59614437Y-119213014D02*
X59423961Y-119213014D01*
X60185866Y-119451109D02*
X59900152Y-119451109D01*
X60043009Y-119451109D02*
X60043009Y-118951109D01*
X60043009Y-118951109D02*
X59995390Y-119022538D01*
X59995390Y-119022538D02*
X59947771Y-119070157D01*
X59947771Y-119070157D02*
X59900152Y-119093966D01*
X60352532Y-118951109D02*
X60685865Y-118951109D01*
X60685865Y-118951109D02*
X60471580Y-119451109D01*
X64498891Y-71036307D02*
X64736986Y-70869641D01*
X64498891Y-70750593D02*
X64998891Y-70750593D01*
X64998891Y-70750593D02*
X64998891Y-70941069D01*
X64998891Y-70941069D02*
X64975081Y-70988688D01*
X64975081Y-70988688D02*
X64951272Y-71012498D01*
X64951272Y-71012498D02*
X64903653Y-71036307D01*
X64903653Y-71036307D02*
X64832224Y-71036307D01*
X64832224Y-71036307D02*
X64784605Y-71012498D01*
X64784605Y-71012498D02*
X64760796Y-70988688D01*
X64760796Y-70988688D02*
X64736986Y-70941069D01*
X64736986Y-70941069D02*
X64736986Y-70750593D01*
X64832224Y-71179165D02*
X64832224Y-71369641D01*
X64498891Y-71250593D02*
X64927462Y-71250593D01*
X64927462Y-71250593D02*
X64975081Y-71274403D01*
X64975081Y-71274403D02*
X64998891Y-71322022D01*
X64998891Y-71322022D02*
X64998891Y-71369641D01*
X64998891Y-71750593D02*
X64998891Y-71655355D01*
X64998891Y-71655355D02*
X64975081Y-71607736D01*
X64975081Y-71607736D02*
X64951272Y-71583926D01*
X64951272Y-71583926D02*
X64879843Y-71536307D01*
X64879843Y-71536307D02*
X64784605Y-71512498D01*
X64784605Y-71512498D02*
X64594129Y-71512498D01*
X64594129Y-71512498D02*
X64546510Y-71536307D01*
X64546510Y-71536307D02*
X64522701Y-71560117D01*
X64522701Y-71560117D02*
X64498891Y-71607736D01*
X64498891Y-71607736D02*
X64498891Y-71702974D01*
X64498891Y-71702974D02*
X64522701Y-71750593D01*
X64522701Y-71750593D02*
X64546510Y-71774402D01*
X64546510Y-71774402D02*
X64594129Y-71798212D01*
X64594129Y-71798212D02*
X64713177Y-71798212D01*
X64713177Y-71798212D02*
X64760796Y-71774402D01*
X64760796Y-71774402D02*
X64784605Y-71750593D01*
X64784605Y-71750593D02*
X64808415Y-71702974D01*
X64808415Y-71702974D02*
X64808415Y-71607736D01*
X64808415Y-71607736D02*
X64784605Y-71560117D01*
X64784605Y-71560117D02*
X64760796Y-71536307D01*
X64760796Y-71536307D02*
X64713177Y-71512498D01*
X106548890Y-91560713D02*
X106786985Y-91394047D01*
X106548890Y-91274999D02*
X107048890Y-91274999D01*
X107048890Y-91274999D02*
X107048890Y-91465475D01*
X107048890Y-91465475D02*
X107025080Y-91513094D01*
X107025080Y-91513094D02*
X107001271Y-91536904D01*
X107001271Y-91536904D02*
X106953652Y-91560713D01*
X106953652Y-91560713D02*
X106882223Y-91560713D01*
X106882223Y-91560713D02*
X106834604Y-91536904D01*
X106834604Y-91536904D02*
X106810795Y-91513094D01*
X106810795Y-91513094D02*
X106786985Y-91465475D01*
X106786985Y-91465475D02*
X106786985Y-91274999D01*
X106882223Y-91703571D02*
X106882223Y-91894047D01*
X106548890Y-91774999D02*
X106977461Y-91774999D01*
X106977461Y-91774999D02*
X107025080Y-91798809D01*
X107025080Y-91798809D02*
X107048890Y-91846428D01*
X107048890Y-91846428D02*
X107048890Y-91894047D01*
X106548890Y-92322618D02*
X106548890Y-92036904D01*
X106548890Y-92179761D02*
X107048890Y-92179761D01*
X107048890Y-92179761D02*
X106977461Y-92132142D01*
X106977461Y-92132142D02*
X106929842Y-92084523D01*
X106929842Y-92084523D02*
X106906033Y-92036904D01*
X107048890Y-92774998D02*
X107048890Y-92536903D01*
X107048890Y-92536903D02*
X106810795Y-92513094D01*
X106810795Y-92513094D02*
X106834604Y-92536903D01*
X106834604Y-92536903D02*
X106858414Y-92584522D01*
X106858414Y-92584522D02*
X106858414Y-92703570D01*
X106858414Y-92703570D02*
X106834604Y-92751189D01*
X106834604Y-92751189D02*
X106810795Y-92774998D01*
X106810795Y-92774998D02*
X106763176Y-92798808D01*
X106763176Y-92798808D02*
X106644128Y-92798808D01*
X106644128Y-92798808D02*
X106596509Y-92774998D01*
X106596509Y-92774998D02*
X106572700Y-92751189D01*
X106572700Y-92751189D02*
X106548890Y-92703570D01*
X106548890Y-92703570D02*
X106548890Y-92584522D01*
X106548890Y-92584522D02*
X106572700Y-92536903D01*
X106572700Y-92536903D02*
X106596509Y-92513094D01*
X108616109Y-74871428D02*
X108378014Y-75038094D01*
X108616109Y-75157142D02*
X108116109Y-75157142D01*
X108116109Y-75157142D02*
X108116109Y-74966666D01*
X108116109Y-74966666D02*
X108139919Y-74919047D01*
X108139919Y-74919047D02*
X108163728Y-74895237D01*
X108163728Y-74895237D02*
X108211347Y-74871428D01*
X108211347Y-74871428D02*
X108282776Y-74871428D01*
X108282776Y-74871428D02*
X108330395Y-74895237D01*
X108330395Y-74895237D02*
X108354204Y-74919047D01*
X108354204Y-74919047D02*
X108378014Y-74966666D01*
X108378014Y-74966666D02*
X108378014Y-75157142D01*
X108616109Y-74395237D02*
X108616109Y-74680951D01*
X108616109Y-74538094D02*
X108116109Y-74538094D01*
X108116109Y-74538094D02*
X108187538Y-74585713D01*
X108187538Y-74585713D02*
X108235157Y-74633332D01*
X108235157Y-74633332D02*
X108258966Y-74680951D01*
X108116109Y-74228571D02*
X108116109Y-73895238D01*
X108116109Y-73895238D02*
X108616109Y-74109523D01*
D11*
X102213095Y-57804819D02*
X102213095Y-58614342D01*
X102213095Y-58614342D02*
X102260714Y-58709580D01*
X102260714Y-58709580D02*
X102308333Y-58757200D01*
X102308333Y-58757200D02*
X102403571Y-58804819D01*
X102403571Y-58804819D02*
X102594047Y-58804819D01*
X102594047Y-58804819D02*
X102689285Y-58757200D01*
X102689285Y-58757200D02*
X102736904Y-58709580D01*
X102736904Y-58709580D02*
X102784523Y-58614342D01*
X102784523Y-58614342D02*
X102784523Y-57804819D01*
X103403571Y-58233390D02*
X103308333Y-58185771D01*
X103308333Y-58185771D02*
X103260714Y-58138152D01*
X103260714Y-58138152D02*
X103213095Y-58042914D01*
X103213095Y-58042914D02*
X103213095Y-57995295D01*
X103213095Y-57995295D02*
X103260714Y-57900057D01*
X103260714Y-57900057D02*
X103308333Y-57852438D01*
X103308333Y-57852438D02*
X103403571Y-57804819D01*
X103403571Y-57804819D02*
X103594047Y-57804819D01*
X103594047Y-57804819D02*
X103689285Y-57852438D01*
X103689285Y-57852438D02*
X103736904Y-57900057D01*
X103736904Y-57900057D02*
X103784523Y-57995295D01*
X103784523Y-57995295D02*
X103784523Y-58042914D01*
X103784523Y-58042914D02*
X103736904Y-58138152D01*
X103736904Y-58138152D02*
X103689285Y-58185771D01*
X103689285Y-58185771D02*
X103594047Y-58233390D01*
X103594047Y-58233390D02*
X103403571Y-58233390D01*
X103403571Y-58233390D02*
X103308333Y-58281009D01*
X103308333Y-58281009D02*
X103260714Y-58328628D01*
X103260714Y-58328628D02*
X103213095Y-58423866D01*
X103213095Y-58423866D02*
X103213095Y-58614342D01*
X103213095Y-58614342D02*
X103260714Y-58709580D01*
X103260714Y-58709580D02*
X103308333Y-58757200D01*
X103308333Y-58757200D02*
X103403571Y-58804819D01*
X103403571Y-58804819D02*
X103594047Y-58804819D01*
X103594047Y-58804819D02*
X103689285Y-58757200D01*
X103689285Y-58757200D02*
X103736904Y-58709580D01*
X103736904Y-58709580D02*
X103784523Y-58614342D01*
X103784523Y-58614342D02*
X103784523Y-58423866D01*
X103784523Y-58423866D02*
X103736904Y-58328628D01*
X103736904Y-58328628D02*
X103689285Y-58281009D01*
X103689285Y-58281009D02*
X103594047Y-58233390D01*
D10*
X77680476Y-60270991D02*
X77656667Y-60294801D01*
X77656667Y-60294801D02*
X77585238Y-60318610D01*
X77585238Y-60318610D02*
X77537619Y-60318610D01*
X77537619Y-60318610D02*
X77466191Y-60294801D01*
X77466191Y-60294801D02*
X77418572Y-60247181D01*
X77418572Y-60247181D02*
X77394762Y-60199562D01*
X77394762Y-60199562D02*
X77370953Y-60104324D01*
X77370953Y-60104324D02*
X77370953Y-60032896D01*
X77370953Y-60032896D02*
X77394762Y-59937658D01*
X77394762Y-59937658D02*
X77418572Y-59890039D01*
X77418572Y-59890039D02*
X77466191Y-59842420D01*
X77466191Y-59842420D02*
X77537619Y-59818610D01*
X77537619Y-59818610D02*
X77585238Y-59818610D01*
X77585238Y-59818610D02*
X77656667Y-59842420D01*
X77656667Y-59842420D02*
X77680476Y-59866229D01*
X77894762Y-60318610D02*
X77894762Y-59818610D01*
X77894762Y-60009086D02*
X77942381Y-59985277D01*
X77942381Y-59985277D02*
X78037619Y-59985277D01*
X78037619Y-59985277D02*
X78085238Y-60009086D01*
X78085238Y-60009086D02*
X78109048Y-60032896D01*
X78109048Y-60032896D02*
X78132857Y-60080515D01*
X78132857Y-60080515D02*
X78132857Y-60223372D01*
X78132857Y-60223372D02*
X78109048Y-60270991D01*
X78109048Y-60270991D02*
X78085238Y-60294801D01*
X78085238Y-60294801D02*
X78037619Y-60318610D01*
X78037619Y-60318610D02*
X77942381Y-60318610D01*
X77942381Y-60318610D02*
X77894762Y-60294801D01*
X78323334Y-59866229D02*
X78347143Y-59842420D01*
X78347143Y-59842420D02*
X78394762Y-59818610D01*
X78394762Y-59818610D02*
X78513810Y-59818610D01*
X78513810Y-59818610D02*
X78561429Y-59842420D01*
X78561429Y-59842420D02*
X78585238Y-59866229D01*
X78585238Y-59866229D02*
X78609048Y-59913848D01*
X78609048Y-59913848D02*
X78609048Y-59961467D01*
X78609048Y-59961467D02*
X78585238Y-60032896D01*
X78585238Y-60032896D02*
X78299524Y-60318610D01*
X78299524Y-60318610D02*
X78609048Y-60318610D01*
D11*
X62685923Y-127763094D02*
X61685923Y-127763094D01*
X61685923Y-127763094D02*
X61685923Y-127524999D01*
X61685923Y-127524999D02*
X61733542Y-127382142D01*
X61733542Y-127382142D02*
X61828780Y-127286904D01*
X61828780Y-127286904D02*
X61924018Y-127239285D01*
X61924018Y-127239285D02*
X62114494Y-127191666D01*
X62114494Y-127191666D02*
X62257351Y-127191666D01*
X62257351Y-127191666D02*
X62447827Y-127239285D01*
X62447827Y-127239285D02*
X62543065Y-127286904D01*
X62543065Y-127286904D02*
X62638304Y-127382142D01*
X62638304Y-127382142D02*
X62685923Y-127524999D01*
X62685923Y-127524999D02*
X62685923Y-127763094D01*
X62114494Y-126620237D02*
X62066875Y-126715475D01*
X62066875Y-126715475D02*
X62019256Y-126763094D01*
X62019256Y-126763094D02*
X61924018Y-126810713D01*
X61924018Y-126810713D02*
X61876399Y-126810713D01*
X61876399Y-126810713D02*
X61781161Y-126763094D01*
X61781161Y-126763094D02*
X61733542Y-126715475D01*
X61733542Y-126715475D02*
X61685923Y-126620237D01*
X61685923Y-126620237D02*
X61685923Y-126429761D01*
X61685923Y-126429761D02*
X61733542Y-126334523D01*
X61733542Y-126334523D02*
X61781161Y-126286904D01*
X61781161Y-126286904D02*
X61876399Y-126239285D01*
X61876399Y-126239285D02*
X61924018Y-126239285D01*
X61924018Y-126239285D02*
X62019256Y-126286904D01*
X62019256Y-126286904D02*
X62066875Y-126334523D01*
X62066875Y-126334523D02*
X62114494Y-126429761D01*
X62114494Y-126429761D02*
X62114494Y-126620237D01*
X62114494Y-126620237D02*
X62162113Y-126715475D01*
X62162113Y-126715475D02*
X62209732Y-126763094D01*
X62209732Y-126763094D02*
X62304970Y-126810713D01*
X62304970Y-126810713D02*
X62495446Y-126810713D01*
X62495446Y-126810713D02*
X62590684Y-126763094D01*
X62590684Y-126763094D02*
X62638304Y-126715475D01*
X62638304Y-126715475D02*
X62685923Y-126620237D01*
X62685923Y-126620237D02*
X62685923Y-126429761D01*
X62685923Y-126429761D02*
X62638304Y-126334523D01*
X62638304Y-126334523D02*
X62590684Y-126286904D01*
X62590684Y-126286904D02*
X62495446Y-126239285D01*
X62495446Y-126239285D02*
X62304970Y-126239285D01*
X62304970Y-126239285D02*
X62209732Y-126286904D01*
X62209732Y-126286904D02*
X62162113Y-126334523D01*
X62162113Y-126334523D02*
X62114494Y-126429761D01*
D10*
X72977380Y-100840991D02*
X72953571Y-100864801D01*
X72953571Y-100864801D02*
X72882142Y-100888610D01*
X72882142Y-100888610D02*
X72834523Y-100888610D01*
X72834523Y-100888610D02*
X72763095Y-100864801D01*
X72763095Y-100864801D02*
X72715476Y-100817181D01*
X72715476Y-100817181D02*
X72691666Y-100769562D01*
X72691666Y-100769562D02*
X72667857Y-100674324D01*
X72667857Y-100674324D02*
X72667857Y-100602896D01*
X72667857Y-100602896D02*
X72691666Y-100507658D01*
X72691666Y-100507658D02*
X72715476Y-100460039D01*
X72715476Y-100460039D02*
X72763095Y-100412420D01*
X72763095Y-100412420D02*
X72834523Y-100388610D01*
X72834523Y-100388610D02*
X72882142Y-100388610D01*
X72882142Y-100388610D02*
X72953571Y-100412420D01*
X72953571Y-100412420D02*
X72977380Y-100436229D01*
X73191666Y-100888610D02*
X73191666Y-100388610D01*
X73191666Y-100579086D02*
X73239285Y-100555277D01*
X73239285Y-100555277D02*
X73334523Y-100555277D01*
X73334523Y-100555277D02*
X73382142Y-100579086D01*
X73382142Y-100579086D02*
X73405952Y-100602896D01*
X73405952Y-100602896D02*
X73429761Y-100650515D01*
X73429761Y-100650515D02*
X73429761Y-100793372D01*
X73429761Y-100793372D02*
X73405952Y-100840991D01*
X73405952Y-100840991D02*
X73382142Y-100864801D01*
X73382142Y-100864801D02*
X73334523Y-100888610D01*
X73334523Y-100888610D02*
X73239285Y-100888610D01*
X73239285Y-100888610D02*
X73191666Y-100864801D01*
X73905952Y-100888610D02*
X73620238Y-100888610D01*
X73763095Y-100888610D02*
X73763095Y-100388610D01*
X73763095Y-100388610D02*
X73715476Y-100460039D01*
X73715476Y-100460039D02*
X73667857Y-100507658D01*
X73667857Y-100507658D02*
X73620238Y-100531467D01*
X74144047Y-100888610D02*
X74239285Y-100888610D01*
X74239285Y-100888610D02*
X74286904Y-100864801D01*
X74286904Y-100864801D02*
X74310713Y-100840991D01*
X74310713Y-100840991D02*
X74358332Y-100769562D01*
X74358332Y-100769562D02*
X74382142Y-100674324D01*
X74382142Y-100674324D02*
X74382142Y-100483848D01*
X74382142Y-100483848D02*
X74358332Y-100436229D01*
X74358332Y-100436229D02*
X74334523Y-100412420D01*
X74334523Y-100412420D02*
X74286904Y-100388610D01*
X74286904Y-100388610D02*
X74191666Y-100388610D01*
X74191666Y-100388610D02*
X74144047Y-100412420D01*
X74144047Y-100412420D02*
X74120237Y-100436229D01*
X74120237Y-100436229D02*
X74096428Y-100483848D01*
X74096428Y-100483848D02*
X74096428Y-100602896D01*
X74096428Y-100602896D02*
X74120237Y-100650515D01*
X74120237Y-100650515D02*
X74144047Y-100674324D01*
X74144047Y-100674324D02*
X74191666Y-100698134D01*
X74191666Y-100698134D02*
X74286904Y-100698134D01*
X74286904Y-100698134D02*
X74334523Y-100674324D01*
X74334523Y-100674324D02*
X74358332Y-100650515D01*
X74358332Y-100650515D02*
X74382142Y-100602896D01*
X96389882Y-93865989D02*
X96366073Y-93889799D01*
X96366073Y-93889799D02*
X96294644Y-93913608D01*
X96294644Y-93913608D02*
X96247025Y-93913608D01*
X96247025Y-93913608D02*
X96175597Y-93889799D01*
X96175597Y-93889799D02*
X96127978Y-93842179D01*
X96127978Y-93842179D02*
X96104168Y-93794560D01*
X96104168Y-93794560D02*
X96080359Y-93699322D01*
X96080359Y-93699322D02*
X96080359Y-93627894D01*
X96080359Y-93627894D02*
X96104168Y-93532656D01*
X96104168Y-93532656D02*
X96127978Y-93485037D01*
X96127978Y-93485037D02*
X96175597Y-93437418D01*
X96175597Y-93437418D02*
X96247025Y-93413608D01*
X96247025Y-93413608D02*
X96294644Y-93413608D01*
X96294644Y-93413608D02*
X96366073Y-93437418D01*
X96366073Y-93437418D02*
X96389882Y-93461227D01*
X96604168Y-93913608D02*
X96604168Y-93413608D01*
X96604168Y-93604084D02*
X96651787Y-93580275D01*
X96651787Y-93580275D02*
X96747025Y-93580275D01*
X96747025Y-93580275D02*
X96794644Y-93604084D01*
X96794644Y-93604084D02*
X96818454Y-93627894D01*
X96818454Y-93627894D02*
X96842263Y-93675513D01*
X96842263Y-93675513D02*
X96842263Y-93818370D01*
X96842263Y-93818370D02*
X96818454Y-93865989D01*
X96818454Y-93865989D02*
X96794644Y-93889799D01*
X96794644Y-93889799D02*
X96747025Y-93913608D01*
X96747025Y-93913608D02*
X96651787Y-93913608D01*
X96651787Y-93913608D02*
X96604168Y-93889799D01*
X97032740Y-93461227D02*
X97056549Y-93437418D01*
X97056549Y-93437418D02*
X97104168Y-93413608D01*
X97104168Y-93413608D02*
X97223216Y-93413608D01*
X97223216Y-93413608D02*
X97270835Y-93437418D01*
X97270835Y-93437418D02*
X97294644Y-93461227D01*
X97294644Y-93461227D02*
X97318454Y-93508846D01*
X97318454Y-93508846D02*
X97318454Y-93556465D01*
X97318454Y-93556465D02*
X97294644Y-93627894D01*
X97294644Y-93627894D02*
X97008930Y-93913608D01*
X97008930Y-93913608D02*
X97318454Y-93913608D01*
X97794644Y-93913608D02*
X97508930Y-93913608D01*
X97651787Y-93913608D02*
X97651787Y-93413608D01*
X97651787Y-93413608D02*
X97604168Y-93485037D01*
X97604168Y-93485037D02*
X97556549Y-93532656D01*
X97556549Y-93532656D02*
X97508930Y-93556465D01*
X101952381Y-84553490D02*
X101928572Y-84577300D01*
X101928572Y-84577300D02*
X101857143Y-84601109D01*
X101857143Y-84601109D02*
X101809524Y-84601109D01*
X101809524Y-84601109D02*
X101738096Y-84577300D01*
X101738096Y-84577300D02*
X101690477Y-84529680D01*
X101690477Y-84529680D02*
X101666667Y-84482061D01*
X101666667Y-84482061D02*
X101642858Y-84386823D01*
X101642858Y-84386823D02*
X101642858Y-84315395D01*
X101642858Y-84315395D02*
X101666667Y-84220157D01*
X101666667Y-84220157D02*
X101690477Y-84172538D01*
X101690477Y-84172538D02*
X101738096Y-84124919D01*
X101738096Y-84124919D02*
X101809524Y-84101109D01*
X101809524Y-84101109D02*
X101857143Y-84101109D01*
X101857143Y-84101109D02*
X101928572Y-84124919D01*
X101928572Y-84124919D02*
X101952381Y-84148728D01*
X102166667Y-84601109D02*
X102166667Y-84101109D01*
X102166667Y-84291585D02*
X102214286Y-84267776D01*
X102214286Y-84267776D02*
X102309524Y-84267776D01*
X102309524Y-84267776D02*
X102357143Y-84291585D01*
X102357143Y-84291585D02*
X102380953Y-84315395D01*
X102380953Y-84315395D02*
X102404762Y-84363014D01*
X102404762Y-84363014D02*
X102404762Y-84505871D01*
X102404762Y-84505871D02*
X102380953Y-84553490D01*
X102380953Y-84553490D02*
X102357143Y-84577300D01*
X102357143Y-84577300D02*
X102309524Y-84601109D01*
X102309524Y-84601109D02*
X102214286Y-84601109D01*
X102214286Y-84601109D02*
X102166667Y-84577300D01*
X102880953Y-84601109D02*
X102595239Y-84601109D01*
X102738096Y-84601109D02*
X102738096Y-84101109D01*
X102738096Y-84101109D02*
X102690477Y-84172538D01*
X102690477Y-84172538D02*
X102642858Y-84220157D01*
X102642858Y-84220157D02*
X102595239Y-84243966D01*
X103047619Y-84101109D02*
X103380952Y-84101109D01*
X103380952Y-84101109D02*
X103166667Y-84601109D01*
X74243571Y-52093609D02*
X74076905Y-51855514D01*
X73957857Y-52093609D02*
X73957857Y-51593609D01*
X73957857Y-51593609D02*
X74148333Y-51593609D01*
X74148333Y-51593609D02*
X74195952Y-51617419D01*
X74195952Y-51617419D02*
X74219762Y-51641228D01*
X74219762Y-51641228D02*
X74243571Y-51688847D01*
X74243571Y-51688847D02*
X74243571Y-51760276D01*
X74243571Y-51760276D02*
X74219762Y-51807895D01*
X74219762Y-51807895D02*
X74195952Y-51831704D01*
X74195952Y-51831704D02*
X74148333Y-51855514D01*
X74148333Y-51855514D02*
X73957857Y-51855514D01*
X74719762Y-52093609D02*
X74434048Y-52093609D01*
X74576905Y-52093609D02*
X74576905Y-51593609D01*
X74576905Y-51593609D02*
X74529286Y-51665038D01*
X74529286Y-51665038D02*
X74481667Y-51712657D01*
X74481667Y-51712657D02*
X74434048Y-51736466D01*
X75172142Y-51593609D02*
X74934047Y-51593609D01*
X74934047Y-51593609D02*
X74910238Y-51831704D01*
X74910238Y-51831704D02*
X74934047Y-51807895D01*
X74934047Y-51807895D02*
X74981666Y-51784085D01*
X74981666Y-51784085D02*
X75100714Y-51784085D01*
X75100714Y-51784085D02*
X75148333Y-51807895D01*
X75148333Y-51807895D02*
X75172142Y-51831704D01*
X75172142Y-51831704D02*
X75195952Y-51879323D01*
X75195952Y-51879323D02*
X75195952Y-51998371D01*
X75195952Y-51998371D02*
X75172142Y-52045990D01*
X75172142Y-52045990D02*
X75148333Y-52069800D01*
X75148333Y-52069800D02*
X75100714Y-52093609D01*
X75100714Y-52093609D02*
X74981666Y-52093609D01*
X74981666Y-52093609D02*
X74934047Y-52069800D01*
X74934047Y-52069800D02*
X74910238Y-52045990D01*
X73306666Y-55643609D02*
X73140000Y-55405514D01*
X73020952Y-55643609D02*
X73020952Y-55143609D01*
X73020952Y-55143609D02*
X73211428Y-55143609D01*
X73211428Y-55143609D02*
X73259047Y-55167419D01*
X73259047Y-55167419D02*
X73282857Y-55191228D01*
X73282857Y-55191228D02*
X73306666Y-55238847D01*
X73306666Y-55238847D02*
X73306666Y-55310276D01*
X73306666Y-55310276D02*
X73282857Y-55357895D01*
X73282857Y-55357895D02*
X73259047Y-55381704D01*
X73259047Y-55381704D02*
X73211428Y-55405514D01*
X73211428Y-55405514D02*
X73020952Y-55405514D01*
X73544762Y-55643609D02*
X73640000Y-55643609D01*
X73640000Y-55643609D02*
X73687619Y-55619800D01*
X73687619Y-55619800D02*
X73711428Y-55595990D01*
X73711428Y-55595990D02*
X73759047Y-55524561D01*
X73759047Y-55524561D02*
X73782857Y-55429323D01*
X73782857Y-55429323D02*
X73782857Y-55238847D01*
X73782857Y-55238847D02*
X73759047Y-55191228D01*
X73759047Y-55191228D02*
X73735238Y-55167419D01*
X73735238Y-55167419D02*
X73687619Y-55143609D01*
X73687619Y-55143609D02*
X73592381Y-55143609D01*
X73592381Y-55143609D02*
X73544762Y-55167419D01*
X73544762Y-55167419D02*
X73520952Y-55191228D01*
X73520952Y-55191228D02*
X73497143Y-55238847D01*
X73497143Y-55238847D02*
X73497143Y-55357895D01*
X73497143Y-55357895D02*
X73520952Y-55405514D01*
X73520952Y-55405514D02*
X73544762Y-55429323D01*
X73544762Y-55429323D02*
X73592381Y-55453133D01*
X73592381Y-55453133D02*
X73687619Y-55453133D01*
X73687619Y-55453133D02*
X73735238Y-55429323D01*
X73735238Y-55429323D02*
X73759047Y-55405514D01*
X73759047Y-55405514D02*
X73782857Y-55357895D01*
X85648809Y-55128490D02*
X85625000Y-55152300D01*
X85625000Y-55152300D02*
X85553571Y-55176109D01*
X85553571Y-55176109D02*
X85505952Y-55176109D01*
X85505952Y-55176109D02*
X85434524Y-55152300D01*
X85434524Y-55152300D02*
X85386905Y-55104680D01*
X85386905Y-55104680D02*
X85363095Y-55057061D01*
X85363095Y-55057061D02*
X85339286Y-54961823D01*
X85339286Y-54961823D02*
X85339286Y-54890395D01*
X85339286Y-54890395D02*
X85363095Y-54795157D01*
X85363095Y-54795157D02*
X85386905Y-54747538D01*
X85386905Y-54747538D02*
X85434524Y-54699919D01*
X85434524Y-54699919D02*
X85505952Y-54676109D01*
X85505952Y-54676109D02*
X85553571Y-54676109D01*
X85553571Y-54676109D02*
X85625000Y-54699919D01*
X85625000Y-54699919D02*
X85648809Y-54723728D01*
X85791667Y-54842776D02*
X85982143Y-54842776D01*
X85863095Y-55176109D02*
X85863095Y-54747538D01*
X85863095Y-54747538D02*
X85886905Y-54699919D01*
X85886905Y-54699919D02*
X85934524Y-54676109D01*
X85934524Y-54676109D02*
X85982143Y-54676109D01*
X86410714Y-55176109D02*
X86125000Y-55176109D01*
X86267857Y-55176109D02*
X86267857Y-54676109D01*
X86267857Y-54676109D02*
X86220238Y-54747538D01*
X86220238Y-54747538D02*
X86172619Y-54795157D01*
X86172619Y-54795157D02*
X86125000Y-54818966D01*
X97337056Y-123251108D02*
X97337056Y-122751108D01*
X97337056Y-122751108D02*
X97456104Y-122751108D01*
X97456104Y-122751108D02*
X97527532Y-122774918D01*
X97527532Y-122774918D02*
X97575151Y-122822537D01*
X97575151Y-122822537D02*
X97598961Y-122870156D01*
X97598961Y-122870156D02*
X97622770Y-122965394D01*
X97622770Y-122965394D02*
X97622770Y-123036822D01*
X97622770Y-123036822D02*
X97598961Y-123132060D01*
X97598961Y-123132060D02*
X97575151Y-123179679D01*
X97575151Y-123179679D02*
X97527532Y-123227299D01*
X97527532Y-123227299D02*
X97456104Y-123251108D01*
X97456104Y-123251108D02*
X97337056Y-123251108D01*
X98098961Y-123251108D02*
X97813247Y-123251108D01*
X97956104Y-123251108D02*
X97956104Y-122751108D01*
X97956104Y-122751108D02*
X97908485Y-122822537D01*
X97908485Y-122822537D02*
X97860866Y-122870156D01*
X97860866Y-122870156D02*
X97813247Y-122893965D01*
X99591666Y-64928490D02*
X99567857Y-64952300D01*
X99567857Y-64952300D02*
X99496428Y-64976109D01*
X99496428Y-64976109D02*
X99448809Y-64976109D01*
X99448809Y-64976109D02*
X99377381Y-64952300D01*
X99377381Y-64952300D02*
X99329762Y-64904680D01*
X99329762Y-64904680D02*
X99305952Y-64857061D01*
X99305952Y-64857061D02*
X99282143Y-64761823D01*
X99282143Y-64761823D02*
X99282143Y-64690395D01*
X99282143Y-64690395D02*
X99305952Y-64595157D01*
X99305952Y-64595157D02*
X99329762Y-64547538D01*
X99329762Y-64547538D02*
X99377381Y-64499919D01*
X99377381Y-64499919D02*
X99448809Y-64476109D01*
X99448809Y-64476109D02*
X99496428Y-64476109D01*
X99496428Y-64476109D02*
X99567857Y-64499919D01*
X99567857Y-64499919D02*
X99591666Y-64523728D01*
X99877381Y-64690395D02*
X99829762Y-64666585D01*
X99829762Y-64666585D02*
X99805952Y-64642776D01*
X99805952Y-64642776D02*
X99782143Y-64595157D01*
X99782143Y-64595157D02*
X99782143Y-64571347D01*
X99782143Y-64571347D02*
X99805952Y-64523728D01*
X99805952Y-64523728D02*
X99829762Y-64499919D01*
X99829762Y-64499919D02*
X99877381Y-64476109D01*
X99877381Y-64476109D02*
X99972619Y-64476109D01*
X99972619Y-64476109D02*
X100020238Y-64499919D01*
X100020238Y-64499919D02*
X100044047Y-64523728D01*
X100044047Y-64523728D02*
X100067857Y-64571347D01*
X100067857Y-64571347D02*
X100067857Y-64595157D01*
X100067857Y-64595157D02*
X100044047Y-64642776D01*
X100044047Y-64642776D02*
X100020238Y-64666585D01*
X100020238Y-64666585D02*
X99972619Y-64690395D01*
X99972619Y-64690395D02*
X99877381Y-64690395D01*
X99877381Y-64690395D02*
X99829762Y-64714204D01*
X99829762Y-64714204D02*
X99805952Y-64738014D01*
X99805952Y-64738014D02*
X99782143Y-64785633D01*
X99782143Y-64785633D02*
X99782143Y-64880871D01*
X99782143Y-64880871D02*
X99805952Y-64928490D01*
X99805952Y-64928490D02*
X99829762Y-64952300D01*
X99829762Y-64952300D02*
X99877381Y-64976109D01*
X99877381Y-64976109D02*
X99972619Y-64976109D01*
X99972619Y-64976109D02*
X100020238Y-64952300D01*
X100020238Y-64952300D02*
X100044047Y-64928490D01*
X100044047Y-64928490D02*
X100067857Y-64880871D01*
X100067857Y-64880871D02*
X100067857Y-64785633D01*
X100067857Y-64785633D02*
X100044047Y-64738014D01*
X100044047Y-64738014D02*
X100020238Y-64714204D01*
X100020238Y-64714204D02*
X99972619Y-64690395D01*
X64066072Y-74888608D02*
X63899406Y-74650513D01*
X63780358Y-74888608D02*
X63780358Y-74388608D01*
X63780358Y-74388608D02*
X63970834Y-74388608D01*
X63970834Y-74388608D02*
X64018453Y-74412418D01*
X64018453Y-74412418D02*
X64042263Y-74436227D01*
X64042263Y-74436227D02*
X64066072Y-74483846D01*
X64066072Y-74483846D02*
X64066072Y-74555275D01*
X64066072Y-74555275D02*
X64042263Y-74602894D01*
X64042263Y-74602894D02*
X64018453Y-74626703D01*
X64018453Y-74626703D02*
X63970834Y-74650513D01*
X63970834Y-74650513D02*
X63780358Y-74650513D01*
X64542263Y-74888608D02*
X64256549Y-74888608D01*
X64399406Y-74888608D02*
X64399406Y-74388608D01*
X64399406Y-74388608D02*
X64351787Y-74460037D01*
X64351787Y-74460037D02*
X64304168Y-74507656D01*
X64304168Y-74507656D02*
X64256549Y-74531465D01*
X65018453Y-74888608D02*
X64732739Y-74888608D01*
X64875596Y-74888608D02*
X64875596Y-74388608D01*
X64875596Y-74388608D02*
X64827977Y-74460037D01*
X64827977Y-74460037D02*
X64780358Y-74507656D01*
X64780358Y-74507656D02*
X64732739Y-74531465D01*
X68114882Y-82140989D02*
X68091073Y-82164799D01*
X68091073Y-82164799D02*
X68019644Y-82188608D01*
X68019644Y-82188608D02*
X67972025Y-82188608D01*
X67972025Y-82188608D02*
X67900597Y-82164799D01*
X67900597Y-82164799D02*
X67852978Y-82117179D01*
X67852978Y-82117179D02*
X67829168Y-82069560D01*
X67829168Y-82069560D02*
X67805359Y-81974322D01*
X67805359Y-81974322D02*
X67805359Y-81902894D01*
X67805359Y-81902894D02*
X67829168Y-81807656D01*
X67829168Y-81807656D02*
X67852978Y-81760037D01*
X67852978Y-81760037D02*
X67900597Y-81712418D01*
X67900597Y-81712418D02*
X67972025Y-81688608D01*
X67972025Y-81688608D02*
X68019644Y-81688608D01*
X68019644Y-81688608D02*
X68091073Y-81712418D01*
X68091073Y-81712418D02*
X68114882Y-81736227D01*
X68329168Y-82188608D02*
X68329168Y-81688608D01*
X68329168Y-81879084D02*
X68376787Y-81855275D01*
X68376787Y-81855275D02*
X68472025Y-81855275D01*
X68472025Y-81855275D02*
X68519644Y-81879084D01*
X68519644Y-81879084D02*
X68543454Y-81902894D01*
X68543454Y-81902894D02*
X68567263Y-81950513D01*
X68567263Y-81950513D02*
X68567263Y-82093370D01*
X68567263Y-82093370D02*
X68543454Y-82140989D01*
X68543454Y-82140989D02*
X68519644Y-82164799D01*
X68519644Y-82164799D02*
X68472025Y-82188608D01*
X68472025Y-82188608D02*
X68376787Y-82188608D01*
X68376787Y-82188608D02*
X68329168Y-82164799D01*
X68757740Y-81736227D02*
X68781549Y-81712418D01*
X68781549Y-81712418D02*
X68829168Y-81688608D01*
X68829168Y-81688608D02*
X68948216Y-81688608D01*
X68948216Y-81688608D02*
X68995835Y-81712418D01*
X68995835Y-81712418D02*
X69019644Y-81736227D01*
X69019644Y-81736227D02*
X69043454Y-81783846D01*
X69043454Y-81783846D02*
X69043454Y-81831465D01*
X69043454Y-81831465D02*
X69019644Y-81902894D01*
X69019644Y-81902894D02*
X68733930Y-82188608D01*
X68733930Y-82188608D02*
X69043454Y-82188608D01*
X69352977Y-81688608D02*
X69400596Y-81688608D01*
X69400596Y-81688608D02*
X69448215Y-81712418D01*
X69448215Y-81712418D02*
X69472025Y-81736227D01*
X69472025Y-81736227D02*
X69495834Y-81783846D01*
X69495834Y-81783846D02*
X69519644Y-81879084D01*
X69519644Y-81879084D02*
X69519644Y-81998132D01*
X69519644Y-81998132D02*
X69495834Y-82093370D01*
X69495834Y-82093370D02*
X69472025Y-82140989D01*
X69472025Y-82140989D02*
X69448215Y-82164799D01*
X69448215Y-82164799D02*
X69400596Y-82188608D01*
X69400596Y-82188608D02*
X69352977Y-82188608D01*
X69352977Y-82188608D02*
X69305358Y-82164799D01*
X69305358Y-82164799D02*
X69281549Y-82140989D01*
X69281549Y-82140989D02*
X69257739Y-82093370D01*
X69257739Y-82093370D02*
X69233930Y-81998132D01*
X69233930Y-81998132D02*
X69233930Y-81879084D01*
X69233930Y-81879084D02*
X69257739Y-81783846D01*
X69257739Y-81783846D02*
X69281549Y-81736227D01*
X69281549Y-81736227D02*
X69305358Y-81712418D01*
X69305358Y-81712418D02*
X69352977Y-81688608D01*
D12*
X69658767Y-90227499D02*
X69366233Y-90227499D01*
X69658767Y-91247499D02*
X69366233Y-91247499D01*
X87815000Y-57853733D02*
X87815000Y-58146267D01*
X88835000Y-57853733D02*
X88835000Y-58146267D01*
X70142224Y-77914999D02*
X69632776Y-77914999D01*
X70142224Y-78959999D02*
X69632776Y-78959999D01*
X89565000Y-60300000D02*
X89565000Y-57300000D01*
X92785000Y-60300000D02*
X92785000Y-57300000D01*
X89875000Y-61330000D02*
X89395000Y-60850000D01*
X89875000Y-60850000D01*
X89875000Y-61330000D01*
G36*
X89875000Y-61330000D02*
G01*
X89395000Y-60850000D01*
X89875000Y-60850000D01*
X89875000Y-61330000D01*
G37*
X108280104Y-126975000D02*
X108280104Y-123975000D01*
X111500104Y-126975000D02*
X111500104Y-123975000D01*
X108530104Y-127795000D02*
X108050104Y-127315000D01*
X108530104Y-127315000D01*
X108530104Y-127795000D01*
G36*
X108530104Y-127795000D02*
G01*
X108050104Y-127315000D01*
X108530104Y-127315000D01*
X108530104Y-127795000D01*
G37*
X92656104Y-126960000D02*
X94456104Y-126960000D01*
X93656104Y-123740000D02*
X92856104Y-123740000D01*
X93656104Y-123740000D02*
X94456104Y-123740000D01*
X92356103Y-123790000D02*
X92116104Y-123460000D01*
X92596104Y-123460000D01*
X92356103Y-123790000D01*
G36*
X92356103Y-123790000D02*
G01*
X92116104Y-123460000D01*
X92596104Y-123460000D01*
X92356103Y-123790000D01*
G37*
X64581104Y-126802499D02*
X63781104Y-126802500D01*
X64581104Y-126802499D02*
X65381104Y-126802500D01*
X64581104Y-129922501D02*
X63781104Y-129922500D01*
X64581104Y-129922501D02*
X65381104Y-129922500D01*
X66121104Y-130202500D02*
X65641104Y-130202500D01*
X65881104Y-129872500D01*
X66121104Y-130202500D01*
G36*
X66121104Y-130202500D02*
G01*
X65641104Y-130202500D01*
X65881104Y-129872500D01*
X66121104Y-130202500D01*
G37*
X99812500Y-88502500D02*
X99012500Y-88502500D01*
X99812500Y-88502500D02*
X100612500Y-88502500D01*
X99812500Y-91622500D02*
X99012500Y-91622500D01*
X99812500Y-91622500D02*
X101612500Y-91622500D01*
X65639999Y-90042223D02*
X65639999Y-89532775D01*
X66684999Y-90042223D02*
X66684999Y-89532775D01*
X64506104Y-120652499D02*
X63706104Y-120652500D01*
X64506104Y-120652499D02*
X65306104Y-120652500D01*
X64506104Y-123772501D02*
X63706104Y-123772500D01*
X64506104Y-123772501D02*
X65306104Y-123772500D01*
X66046104Y-124052500D02*
X65566104Y-124052500D01*
X65806104Y-123722500D01*
X66046104Y-124052500D01*
G36*
X66046104Y-124052500D02*
G01*
X65566104Y-124052500D01*
X65806104Y-123722500D01*
X66046104Y-124052500D01*
G37*
X69741233Y-72477499D02*
X70033767Y-72477499D01*
X69741233Y-73497499D02*
X70033767Y-73497499D01*
X97934838Y-125565000D02*
X98227372Y-125565000D01*
X97934838Y-126585000D02*
X98227372Y-126585000D01*
X62690001Y-68633766D02*
X62690001Y-68341232D01*
X63710001Y-68633766D02*
X63710001Y-68341232D01*
X69421103Y-122537500D02*
X69421104Y-121737500D01*
X69421103Y-122537500D02*
X69421104Y-123337500D01*
X72541105Y-122537500D02*
X72541104Y-121737500D01*
X72541105Y-122537500D02*
X72541104Y-123337500D01*
X72821104Y-121477500D02*
X72491104Y-121237500D01*
X72821104Y-120997500D01*
X72821104Y-121477500D01*
G36*
X72821104Y-121477500D02*
G01*
X72491104Y-121237500D01*
X72821104Y-120997500D01*
X72821104Y-121477500D01*
G37*
X102765000Y-44490000D02*
X99765000Y-44490000D01*
X102765000Y-47710000D02*
X99765000Y-47710000D01*
X103315000Y-47880000D02*
X103315000Y-47400000D01*
X103795000Y-47400000D01*
X103315000Y-47880000D01*
G36*
X103315000Y-47880000D02*
G01*
X103315000Y-47400000D01*
X103795000Y-47400000D01*
X103315000Y-47880000D01*
G37*
X99507776Y-86739999D02*
X100017224Y-86739999D01*
X99507776Y-87784999D02*
X100017224Y-87784999D01*
X108739870Y-122146250D02*
X108447336Y-122146250D01*
X108739870Y-123166250D02*
X108447336Y-123166250D01*
X101629724Y-42767500D02*
X101120276Y-42767500D01*
X101629724Y-43812500D02*
X101120276Y-43812500D01*
X112874050Y-138402500D02*
X113383498Y-138402500D01*
X112874050Y-139447500D02*
X113383498Y-139447500D01*
X68792500Y-58412776D02*
X68792500Y-58922224D01*
X69837500Y-58412776D02*
X69837500Y-58922224D01*
X114146267Y-98040000D02*
X113853733Y-98040000D01*
X114146267Y-99060000D02*
X113853733Y-99060000D01*
X106928733Y-49915000D02*
X107221267Y-49915000D01*
X106928733Y-50935000D02*
X107221267Y-50935000D01*
X96794852Y-121689999D02*
X97317356Y-121689999D01*
X96794852Y-123109999D02*
X97317356Y-123109999D01*
X109609837Y-129524000D02*
X109902371Y-129524000D01*
X109609837Y-130544000D02*
X109902371Y-130544000D01*
X93377372Y-121915000D02*
X93084838Y-121915000D01*
X93377372Y-122935000D02*
X93084838Y-122935000D01*
X102627500Y-70741231D02*
X102627500Y-71033765D01*
X103647500Y-70741231D02*
X103647500Y-71033765D01*
X98921267Y-59140000D02*
X98628733Y-59140000D01*
X98921267Y-60160000D02*
X98628733Y-60160000D01*
X96590002Y-97308766D02*
X96590002Y-97016232D01*
X97610002Y-97308766D02*
X97610002Y-97016232D01*
X74702500Y-57171233D02*
X74702500Y-57463767D01*
X75722500Y-57171233D02*
X75722500Y-57463767D01*
X100628733Y-48340000D02*
X100921267Y-48340000D01*
X100628733Y-49360000D02*
X100921267Y-49360000D01*
X99953734Y-75127499D02*
X100246268Y-75127499D01*
X99953734Y-76147499D02*
X100246268Y-76147499D01*
X62067500Y-57975276D02*
X62067500Y-58484724D01*
X63112500Y-57975276D02*
X63112500Y-58484724D01*
X94927500Y-70733766D02*
X94927500Y-70441232D01*
X95947500Y-70733766D02*
X95947500Y-70441232D01*
X68500000Y-99397499D02*
X71450000Y-99397499D01*
X70300000Y-96177499D02*
X68500000Y-96177499D01*
X98627501Y-69737499D02*
X98627501Y-71537499D01*
X101847501Y-71537499D02*
X101847501Y-68587499D01*
X89544517Y-125226773D02*
X89544517Y-125736221D01*
X90589517Y-125226773D02*
X90589517Y-125736221D01*
X72552500Y-94117223D02*
X72552500Y-93607775D01*
X73597500Y-94117223D02*
X73597500Y-93607775D01*
X55446104Y-126878733D02*
X55446104Y-127171267D01*
X56466104Y-126878733D02*
X56466104Y-127171267D01*
X110177500Y-50579724D02*
X110177500Y-50070276D01*
X111222500Y-50579724D02*
X111222500Y-50070276D01*
X102577500Y-97145275D02*
X102577500Y-97654723D01*
X103622500Y-97145275D02*
X103622500Y-97654723D01*
X96715000Y-70842222D02*
X96715000Y-70332774D01*
X97760000Y-70842222D02*
X97760000Y-70332774D01*
X85119724Y-60445000D02*
X84610276Y-60445000D01*
X85119724Y-61490000D02*
X84610276Y-61490000D01*
X102952500Y-92342223D02*
X102952500Y-91832775D01*
X103997500Y-92342223D02*
X103997500Y-91832775D01*
X117769851Y-137832018D02*
G75*
G02*
X117710332Y-139900000I1151253J-1067982D01*
G01*
X99121267Y-53240000D02*
X98828733Y-53240000D01*
X99121267Y-54260000D02*
X98828733Y-54260000D01*
X89440001Y-43658768D02*
X89440001Y-43366234D01*
X90460001Y-43658768D02*
X90460001Y-43366234D01*
X71545276Y-65539999D02*
X72054724Y-65539999D01*
X71545276Y-66584999D02*
X72054724Y-66584999D01*
X69195276Y-94314999D02*
X69704724Y-94314999D01*
X69195276Y-95359999D02*
X69704724Y-95359999D01*
X100150002Y-78727499D02*
X99350002Y-78727499D01*
X100150002Y-78727499D02*
X100950002Y-78727499D01*
X100150002Y-81847499D02*
X99350002Y-81847499D01*
X100150002Y-81847499D02*
X101950002Y-81847499D01*
X66340000Y-67637499D02*
X66340000Y-69437499D01*
X69560000Y-69437499D02*
X69560000Y-66487499D01*
X98665000Y-56946267D02*
X98665000Y-56653733D01*
X99685000Y-56946267D02*
X99685000Y-56653733D01*
X96679724Y-55477500D02*
X96170276Y-55477500D01*
X96679724Y-56522500D02*
X96170276Y-56522500D01*
X94365000Y-50703733D02*
X94365000Y-50996267D01*
X95385000Y-50703733D02*
X95385000Y-50996267D01*
X96579724Y-61277500D02*
X96070276Y-61277500D01*
X96579724Y-62322500D02*
X96070276Y-62322500D01*
X56061104Y-113645000D02*
X56061104Y-116305000D01*
X58661103Y-113645000D02*
X56061104Y-113645000D01*
X58661103Y-113645000D02*
X58661103Y-116305000D01*
X58661103Y-116305000D02*
X56061104Y-116305000D01*
X59931104Y-113645000D02*
X61261104Y-113645000D01*
X61261104Y-113645000D02*
X61261104Y-114975000D01*
X82167500Y-55557499D02*
X79167500Y-55557499D01*
X82167500Y-58777499D02*
X79167500Y-58777499D01*
X82717500Y-58947499D02*
X82717500Y-58467499D01*
X83197500Y-58467499D01*
X82717500Y-58947499D01*
G36*
X82717500Y-58947499D02*
G01*
X82717500Y-58467499D01*
X83197500Y-58467499D01*
X82717500Y-58947499D01*
G37*
X69717224Y-88364999D02*
X69207776Y-88364999D01*
X69717224Y-89409999D02*
X69207776Y-89409999D01*
X112971104Y-121146267D02*
X112971104Y-120853733D01*
X113991104Y-121146267D02*
X113991104Y-120853733D01*
X70755000Y-58813767D02*
X70755000Y-58521233D01*
X71775000Y-58813767D02*
X71775000Y-58521233D01*
X51713122Y-115933923D02*
G75*
G02*
X53781104Y-115993442I1067982J1151253D01*
G01*
X70340000Y-68641233D02*
X70340000Y-68933767D01*
X71360000Y-68641233D02*
X71360000Y-68933767D01*
X60981104Y-135040000D02*
X60981104Y-139050000D01*
X62981104Y-135040000D02*
X60981104Y-135040000D01*
X62981104Y-135040000D02*
X62981104Y-139050000D01*
X69303734Y-92527499D02*
X69596268Y-92527499D01*
X69303734Y-93547499D02*
X69596268Y-93547499D01*
X65060276Y-55007500D02*
X65569724Y-55007500D01*
X65060276Y-56052500D02*
X65569724Y-56052500D01*
X65655000Y-58083732D02*
X65655000Y-58376266D01*
X66675000Y-58083732D02*
X66675000Y-58376266D01*
X71960276Y-61095001D02*
X72469724Y-61095001D01*
X71960276Y-62140001D02*
X72469724Y-62140001D01*
X73168732Y-53807500D02*
X73461266Y-53807500D01*
X73168732Y-54827500D02*
X73461266Y-54827500D01*
X75539871Y-135915000D02*
X75247337Y-135915000D01*
X75539871Y-136935000D02*
X75247337Y-136935000D01*
X61302500Y-89629724D02*
X61302500Y-89120276D01*
X62347500Y-89629724D02*
X62347500Y-89120276D01*
X68846104Y-127654724D02*
X68846104Y-127145276D01*
X69891104Y-127654724D02*
X69891104Y-127145276D01*
X65259837Y-135277500D02*
X65552371Y-135277500D01*
X65259837Y-136297500D02*
X65552371Y-136297500D01*
X109622337Y-127799000D02*
X109914871Y-127799000D01*
X109622337Y-128819000D02*
X109914871Y-128819000D01*
X107102500Y-88954724D02*
X107102500Y-88445276D01*
X108147500Y-88954724D02*
X108147500Y-88445276D01*
X98390000Y-96512499D02*
X98390000Y-99462499D01*
X101610000Y-98312499D02*
X101610000Y-96512499D01*
X73308604Y-122645276D02*
X73308604Y-123154724D01*
X74353604Y-122645276D02*
X74353604Y-123154724D01*
X63855000Y-58083733D02*
X63855000Y-58376267D01*
X64875000Y-58083733D02*
X64875000Y-58376267D01*
X69887500Y-74027500D02*
X68087500Y-74027500D01*
X69887500Y-74027500D02*
X70687500Y-74027500D01*
X69887500Y-77147500D02*
X69087500Y-77147500D01*
X69887500Y-77147500D02*
X70687500Y-77147500D01*
X88065000Y-49803733D02*
X88065000Y-50096267D01*
X89085000Y-49803733D02*
X89085000Y-50096267D01*
X94754725Y-67314999D02*
X94245277Y-67314999D01*
X94754725Y-68359999D02*
X94245277Y-68359999D01*
X108459836Y-120515000D02*
X108752370Y-120515000D01*
X108459836Y-121535000D02*
X108752370Y-121535000D01*
X102927501Y-76332775D02*
X102927501Y-76842223D01*
X103972501Y-76332775D02*
X103972501Y-76842223D01*
X57902500Y-75504724D02*
X57902500Y-74995276D01*
X58947500Y-75504724D02*
X58947500Y-74995276D01*
X101120276Y-40867500D02*
X101629724Y-40867500D01*
X101120276Y-41912500D02*
X101629724Y-41912500D01*
X117220276Y-93702500D02*
X117729724Y-93702500D01*
X117220276Y-94747500D02*
X117729724Y-94747500D01*
X76540000Y-57112776D02*
X76540000Y-57622224D01*
X77585000Y-57112776D02*
X77585000Y-57622224D01*
X65781104Y-134047500D02*
X64981104Y-134047500D01*
X65781104Y-134047500D02*
X66581104Y-134047500D01*
X66781104Y-130827500D02*
X64981104Y-130827500D01*
X67321104Y-134327500D02*
X66841104Y-134327500D01*
X67081105Y-133997500D01*
X67321104Y-134327500D01*
G36*
X67321104Y-134327500D02*
G01*
X66841104Y-134327500D01*
X67081105Y-133997500D01*
X67321104Y-134327500D01*
G37*
X54891233Y-98040000D02*
X55183767Y-98040000D01*
X54891233Y-99060000D02*
X55183767Y-99060000D01*
X104390000Y-97253732D02*
X104390000Y-97546266D01*
X105410000Y-97253732D02*
X105410000Y-97546266D01*
X133002500Y-50520276D02*
X133002500Y-51029724D01*
X134047500Y-50520276D02*
X134047500Y-51029724D01*
X69462500Y-84527499D02*
X67662500Y-84527499D01*
X69462500Y-84527499D02*
X70262500Y-84527499D01*
X69462500Y-87647499D02*
X68662500Y-87647499D01*
X69462500Y-87647499D02*
X70262500Y-87647499D01*
X99895278Y-76964999D02*
X100404726Y-76964999D01*
X99895278Y-78009999D02*
X100404726Y-78009999D01*
X83440000Y-58372224D02*
X83440000Y-57862776D01*
X84485000Y-58372224D02*
X84485000Y-57862776D01*
X165502500Y-50520276D02*
X165502500Y-51029724D01*
X166547500Y-50520276D02*
X166547500Y-51029724D01*
X70033767Y-79777498D02*
X69741233Y-79777498D01*
X70033767Y-80797498D02*
X69741233Y-80797498D01*
X99616234Y-84852499D02*
X99908768Y-84852499D01*
X99616234Y-85872499D02*
X99908768Y-85872499D01*
X101475000Y-53190000D02*
X104475000Y-53190000D01*
X101475000Y-56410000D02*
X104475000Y-56410000D01*
X100925000Y-53500000D02*
X100445000Y-53500000D01*
X100925000Y-53020000D01*
X100925000Y-53500000D01*
G36*
X100925000Y-53500000D02*
G01*
X100445000Y-53500000D01*
X100925000Y-53020000D01*
X100925000Y-53500000D01*
G37*
X91775000Y-49290000D02*
X89975000Y-49290000D01*
X91775000Y-49290000D02*
X92575000Y-49290000D01*
X91775000Y-52410000D02*
X90975000Y-52410000D01*
X91775000Y-52410000D02*
X92575000Y-52410000D01*
X60135828Y-117427500D02*
X59626380Y-117427500D01*
X60135828Y-118472500D02*
X59626380Y-118472500D01*
X51681104Y-132610000D02*
X53381104Y-132610000D01*
X51681104Y-141950000D02*
X53381104Y-141950000D01*
X64477501Y-68742222D02*
X64477501Y-68232774D01*
X65522501Y-68742222D02*
X65522501Y-68232774D01*
X104952500Y-92329723D02*
X104952500Y-91820275D01*
X105997500Y-92329723D02*
X105997500Y-91820275D01*
X109177500Y-74779724D02*
X109177500Y-74270276D01*
X110222500Y-74779724D02*
X110222500Y-74270276D01*
X101475000Y-59190000D02*
X104475000Y-59190000D01*
X101475000Y-62410000D02*
X104475000Y-62410000D01*
X100925000Y-59500000D02*
X100445000Y-59500000D01*
X100925000Y-59020000D01*
X100925000Y-59500000D01*
G36*
X100925000Y-59500000D02*
G01*
X100445000Y-59500000D01*
X100925000Y-59020000D01*
X100925000Y-59500000D01*
G37*
X80608767Y-59357500D02*
X80316233Y-59357500D01*
X80608767Y-60377500D02*
X80316233Y-60377500D01*
X58621104Y-123865000D02*
X58621104Y-128925000D01*
X61341104Y-123865000D02*
X58621104Y-123865000D01*
X61341104Y-123865000D02*
X61341104Y-128925000D01*
X69496267Y-100090000D02*
X69203733Y-100090000D01*
X69496267Y-101110000D02*
X69203733Y-101110000D01*
X99946268Y-92302499D02*
X99653734Y-92302499D01*
X99946268Y-93322499D02*
X99653734Y-93322499D01*
X99946268Y-82677499D02*
X99653734Y-82677499D01*
X99946268Y-83697499D02*
X99653734Y-83697499D01*
X75542500Y-53012776D02*
X75542500Y-53522224D01*
X76587500Y-53012776D02*
X76587500Y-53522224D01*
X72842500Y-57062776D02*
X72842500Y-57572224D01*
X73887500Y-57062776D02*
X73887500Y-57572224D01*
X85202500Y-58113767D02*
X85202500Y-57821233D01*
X86222500Y-58113767D02*
X86222500Y-57821233D01*
X96446104Y-123724998D02*
X96446104Y-124925000D01*
X98406104Y-123724999D02*
X96446104Y-123724998D01*
X98406104Y-124924999D02*
X96446104Y-124925000D01*
X98665000Y-62796267D02*
X98665000Y-62503733D01*
X99685000Y-62796267D02*
X99685000Y-62503733D01*
X65377500Y-74332775D02*
X65377500Y-74842223D01*
X66422500Y-74332775D02*
X66422500Y-74842223D01*
X69666232Y-82677498D02*
X69958766Y-82677498D01*
X69666232Y-83697498D02*
X69958766Y-83697498D01*
M02*
