%TF.GenerationSoftware,KiCad,Pcbnew,8.0.5*%
%TF.CreationDate,2024-10-27T12:05:12-04:00*%
%TF.ProjectId,Combined_Rev2_Board,436f6d62-696e-4656-945f-526576325f42,rev?*%
%TF.SameCoordinates,Original*%
%TF.FileFunction,Paste,Top*%
%TF.FilePolarity,Positive*%
%FSLAX46Y46*%
G04 Gerber Fmt 4.6, Leading zero omitted, Abs format (unit mm)*
G04 Created by KiCad (PCBNEW 8.0.5) date 2024-10-27 12:05:12*
%MOMM*%
%LPD*%
G01*
G04 APERTURE LIST*
G04 Aperture macros list*
%AMRoundRect*
0 Rectangle with rounded corners*
0 $1 Rounding radius*
0 $2 $3 $4 $5 $6 $7 $8 $9 X,Y pos of 4 corners*
0 Add a 4 corners polygon primitive as box body*
4,1,4,$2,$3,$4,$5,$6,$7,$8,$9,$2,$3,0*
0 Add four circle primitives for the rounded corners*
1,1,$1+$1,$2,$3*
1,1,$1+$1,$4,$5*
1,1,$1+$1,$6,$7*
1,1,$1+$1,$8,$9*
0 Add four rect primitives between the rounded corners*
20,1,$1+$1,$2,$3,$4,$5,0*
20,1,$1+$1,$4,$5,$6,$7,0*
20,1,$1+$1,$6,$7,$8,$9,0*
20,1,$1+$1,$8,$9,$2,$3,0*%
G04 Aperture macros list end*
%ADD10RoundRect,0.142500X0.177500X-0.142500X0.177500X0.142500X-0.177500X0.142500X-0.177500X-0.142500X0*%
%ADD11RoundRect,0.062500X0.062500X-0.365000X0.062500X0.365000X-0.062500X0.365000X-0.062500X-0.365000X0*%
%ADD12RoundRect,0.142500X0.142500X0.177500X-0.142500X0.177500X-0.142500X-0.177500X0.142500X-0.177500X0*%
%ADD13RoundRect,0.062500X0.365000X0.062500X-0.365000X0.062500X-0.365000X-0.062500X0.365000X-0.062500X0*%
%ADD14RoundRect,0.125000X-0.125000X-0.195000X0.125000X-0.195000X0.125000X0.195000X-0.125000X0.195000X0*%
%ADD15RoundRect,0.062500X-0.365000X-0.062500X0.365000X-0.062500X0.365000X0.062500X-0.365000X0.062500X0*%
%ADD16RoundRect,0.237500X0.300000X0.237500X-0.300000X0.237500X-0.300000X-0.237500X0.300000X-0.237500X0*%
%ADD17RoundRect,0.237500X-0.237500X0.300000X-0.237500X-0.300000X0.237500X-0.300000X0.237500X0.300000X0*%
%ADD18RoundRect,0.237500X0.250000X0.237500X-0.250000X0.237500X-0.250000X-0.237500X0.250000X-0.237500X0*%
%ADD19R,0.730000X0.660000*%
%ADD20R,0.450000X0.630000*%
%ADD21RoundRect,0.162500X-0.617500X-0.162500X0.617500X-0.162500X0.617500X0.162500X-0.617500X0.162500X0*%
%ADD22RoundRect,0.150000X0.512500X0.150000X-0.512500X0.150000X-0.512500X-0.150000X0.512500X-0.150000X0*%
%ADD23RoundRect,0.237500X0.237500X-0.250000X0.237500X0.250000X-0.237500X0.250000X-0.237500X-0.250000X0*%
%ADD24RoundRect,0.237500X-0.300000X-0.237500X0.300000X-0.237500X0.300000X0.237500X-0.300000X0.237500X0*%
%ADD25RoundRect,0.237500X0.237500X-0.300000X0.237500X0.300000X-0.237500X0.300000X-0.237500X-0.300000X0*%
%ADD26RoundRect,0.150000X-0.150000X0.512500X-0.150000X-0.512500X0.150000X-0.512500X0.150000X0.512500X0*%
%ADD27RoundRect,0.237500X-0.250000X-0.237500X0.250000X-0.237500X0.250000X0.237500X-0.250000X0.237500X0*%
%ADD28RoundRect,0.237500X-0.237500X0.250000X-0.237500X-0.250000X0.237500X-0.250000X0.237500X0.250000X0*%
%ADD29RoundRect,0.250000X-0.325000X-0.450000X0.325000X-0.450000X0.325000X0.450000X-0.325000X0.450000X0*%
%ADD30R,1.560000X0.650000*%
%ADD31R,0.650000X1.560000*%
%ADD32RoundRect,0.225000X-0.375000X0.225000X-0.375000X-0.225000X0.375000X-0.225000X0.375000X0.225000X0*%
%ADD33RoundRect,0.150000X-0.512500X-0.150000X0.512500X-0.150000X0.512500X0.150000X-0.512500X0.150000X0*%
%ADD34RoundRect,0.162500X0.617500X0.162500X-0.617500X0.162500X-0.617500X-0.162500X0.617500X-0.162500X0*%
%ADD35RoundRect,0.175000X-0.425000X0.175000X-0.425000X-0.175000X0.425000X-0.175000X0.425000X0.175000X0*%
%ADD36RoundRect,0.190000X0.410000X-0.190000X0.410000X0.190000X-0.410000X0.190000X-0.410000X-0.190000X0*%
%ADD37RoundRect,0.200000X0.400000X-0.200000X0.400000X0.200000X-0.400000X0.200000X-0.400000X-0.200000X0*%
%ADD38RoundRect,0.175000X0.425000X-0.175000X0.425000X0.175000X-0.425000X0.175000X-0.425000X-0.175000X0*%
%ADD39RoundRect,0.190000X-0.410000X0.190000X-0.410000X-0.190000X0.410000X-0.190000X0.410000X0.190000X0*%
%ADD40RoundRect,0.200000X-0.400000X0.200000X-0.400000X-0.200000X0.400000X-0.200000X0.400000X0.200000X0*%
%ADD41O,1.700000X1.100000*%
%ADD42RoundRect,0.250000X-0.800000X0.450000X-0.800000X-0.450000X0.800000X-0.450000X0.800000X0.450000X0*%
%ADD43RoundRect,0.150000X0.150000X0.200000X-0.150000X0.200000X-0.150000X-0.200000X0.150000X-0.200000X0*%
G04 APERTURE END LIST*
D10*
X90385000Y-59165000D03*
X91175000Y-59165000D03*
X91965000Y-59165000D03*
X90385000Y-58435000D03*
X91175000Y-58435000D03*
X91965000Y-58435000D03*
D11*
X90175000Y-60247500D03*
X90675000Y-60247500D03*
X91175000Y-60247500D03*
X91675000Y-60247500D03*
X92175000Y-60247500D03*
X92175000Y-57352500D03*
X91675000Y-57352500D03*
X91175000Y-57352500D03*
X90675000Y-57352500D03*
X90175000Y-57352500D03*
D12*
X101630000Y-46890000D03*
X101630000Y-46100000D03*
X101630000Y-45310000D03*
X100900000Y-46890000D03*
X100900000Y-46100000D03*
X100900000Y-45310000D03*
D13*
X102712500Y-47100000D03*
X102712500Y-46600000D03*
X102712500Y-46100000D03*
X102712500Y-45600000D03*
X102712500Y-45100000D03*
X99817500Y-45100000D03*
X99817500Y-45600000D03*
X99817500Y-46100000D03*
X99817500Y-46600000D03*
X99817500Y-47100000D03*
D12*
X81032500Y-57957499D03*
X81032500Y-57167499D03*
X81032500Y-56377499D03*
X80302500Y-57957499D03*
X80302500Y-57167499D03*
X80302500Y-56377499D03*
D13*
X82115000Y-58167499D03*
X82115000Y-57667499D03*
X82115000Y-57167499D03*
X82115000Y-56667499D03*
X82115000Y-56167499D03*
X79220000Y-56167499D03*
X79220000Y-56667499D03*
X79220000Y-57167499D03*
X79220000Y-57667499D03*
X79220000Y-58167499D03*
D14*
X103375000Y-61600000D03*
X102565000Y-61610000D03*
X103375000Y-60800000D03*
X102565000Y-60810000D03*
X103375000Y-60000000D03*
X102565000Y-60010000D03*
D15*
X101527500Y-59800000D03*
X101527500Y-60300000D03*
X101527500Y-60800000D03*
X101527500Y-61300000D03*
X101527500Y-61800000D03*
X104422500Y-61800000D03*
X104422500Y-61300000D03*
X104422500Y-60800000D03*
X104422500Y-60300000D03*
X104422500Y-59800000D03*
D14*
X103325000Y-55600000D03*
X102625000Y-55610000D03*
X103325000Y-54800000D03*
X102625000Y-54810000D03*
X103325000Y-54000000D03*
X102625000Y-54010000D03*
D15*
X101527500Y-53800000D03*
X101527500Y-54300000D03*
X101527500Y-54800000D03*
X101527500Y-55300000D03*
X101527500Y-55800000D03*
X104422500Y-55800000D03*
X104422500Y-55300000D03*
X104422500Y-54800000D03*
X104422500Y-54300000D03*
X104422500Y-53800000D03*
D16*
X70375000Y-90737499D03*
X68650000Y-90737499D03*
D17*
X88325000Y-57137500D03*
X88325000Y-58862500D03*
D18*
X70800000Y-78437499D03*
X68975000Y-78437499D03*
D19*
X109024104Y-125900000D03*
X110756104Y-125900000D03*
X109890104Y-125899999D03*
X109890104Y-125050001D03*
X109024104Y-125050000D03*
X110756104Y-125050000D03*
D20*
X108940104Y-126815001D03*
X109890104Y-126815000D03*
X110840104Y-126815001D03*
X110840104Y-124134999D03*
X109890104Y-124135000D03*
X108940104Y-124134999D03*
D21*
X92206104Y-124400000D03*
X92206104Y-125350000D03*
X92206104Y-126300000D03*
X94906104Y-126300000D03*
X94906104Y-125350000D03*
X94906104Y-124400000D03*
D22*
X65718604Y-129312499D03*
X65718604Y-127412501D03*
X63443604Y-128362500D03*
X100950000Y-91012500D03*
X100950000Y-90062500D03*
X100950000Y-89112500D03*
X98675000Y-89112500D03*
X98675000Y-90062500D03*
X98675000Y-91012500D03*
D23*
X66162499Y-90699999D03*
X66162499Y-88874999D03*
D22*
X65643604Y-123162499D03*
X65643604Y-121262501D03*
X63368604Y-122212500D03*
D24*
X69025000Y-72987499D03*
X70750000Y-72987499D03*
X97218604Y-126075000D03*
X98943606Y-126075000D03*
D25*
X63200001Y-69349999D03*
X63200001Y-67624999D03*
D26*
X71931103Y-121400000D03*
X70981104Y-121400000D03*
X70031105Y-121400000D03*
X70031105Y-123675000D03*
X71931103Y-123675000D03*
D27*
X98850000Y-87262499D03*
X100675000Y-87262499D03*
D16*
X109456104Y-122656250D03*
X107731102Y-122656250D03*
D18*
X102287500Y-43290000D03*
X100462500Y-43290000D03*
D27*
X112216274Y-138925000D03*
X114041274Y-138925000D03*
D28*
X69315000Y-57755000D03*
X69315000Y-59580000D03*
D16*
X114862501Y-98550000D03*
X113137499Y-98550000D03*
X107937501Y-50425000D03*
X106212499Y-50425000D03*
D29*
X96031105Y-122399999D03*
X98081103Y-122399999D03*
D24*
X108893603Y-130034000D03*
X110618605Y-130034000D03*
D16*
X94093606Y-122425000D03*
X92368604Y-122425000D03*
D17*
X103137500Y-70024998D03*
X103137500Y-71749998D03*
D16*
X99637500Y-59650000D03*
X97912500Y-59650000D03*
D25*
X97100002Y-98024999D03*
X97100002Y-96299999D03*
D17*
X75212500Y-56454999D03*
X75212500Y-58180001D03*
D24*
X99912500Y-48850000D03*
X101637500Y-48850000D03*
X99237501Y-75637499D03*
X100962501Y-75637499D03*
D28*
X62590000Y-57317500D03*
X62590000Y-59142500D03*
D25*
X95437500Y-71449999D03*
X95437500Y-69724999D03*
D30*
X70750000Y-98737499D03*
X70750000Y-97787499D03*
X70750000Y-96837499D03*
X68050000Y-96837499D03*
X68050000Y-97787499D03*
X68050000Y-98737499D03*
D31*
X101187501Y-69287499D03*
X100237501Y-69287499D03*
X99287501Y-69287499D03*
X99287501Y-71987499D03*
X100237501Y-71987499D03*
X101187501Y-71987499D03*
D28*
X90067017Y-124568997D03*
X90067017Y-126393997D03*
D23*
X73075000Y-94774999D03*
X73075000Y-92949999D03*
D17*
X55956104Y-126162499D03*
X55956104Y-127887501D03*
D23*
X110700000Y-51237500D03*
X110700000Y-49412500D03*
D28*
X103100000Y-96487499D03*
X103100000Y-98312499D03*
D23*
X97237500Y-71499998D03*
X97237500Y-69674998D03*
D18*
X85777500Y-60967500D03*
X83952500Y-60967500D03*
D23*
X103475000Y-92999999D03*
X103475000Y-91174999D03*
D16*
X99837500Y-53750000D03*
X98112500Y-53750000D03*
D25*
X89950001Y-44375002D03*
X89950001Y-42650000D03*
D27*
X70887500Y-66062499D03*
X72712500Y-66062499D03*
X68537500Y-94837499D03*
X70362500Y-94837499D03*
D22*
X101287502Y-81237499D03*
X101287502Y-80287499D03*
X101287502Y-79337499D03*
X99012502Y-79337499D03*
X99012502Y-80287499D03*
X99012502Y-81237499D03*
D31*
X68900000Y-67187499D03*
X67950000Y-67187499D03*
X67000000Y-67187499D03*
X67000000Y-69887499D03*
X67950000Y-69887499D03*
X68900000Y-69887499D03*
D25*
X99175000Y-57662500D03*
X99175000Y-55937500D03*
D18*
X97337500Y-56000000D03*
X95512500Y-56000000D03*
D17*
X94875000Y-49987500D03*
X94875000Y-51712500D03*
D18*
X97237500Y-61800000D03*
X95412500Y-61800000D03*
X70375000Y-88887499D03*
X68550000Y-88887499D03*
D25*
X113481104Y-121862501D03*
X113481104Y-120137499D03*
X71265000Y-59530001D03*
X71265000Y-57804999D03*
D17*
X70850000Y-67925000D03*
X70850000Y-69650000D03*
D32*
X61981104Y-135750000D03*
X61981104Y-139050000D03*
D24*
X68587501Y-93037499D03*
X70312501Y-93037499D03*
D27*
X64402500Y-55530000D03*
X66227500Y-55530000D03*
D17*
X66165000Y-57367498D03*
X66165000Y-59092500D03*
D27*
X71302500Y-61617501D03*
X73127500Y-61617501D03*
D24*
X72452498Y-54317500D03*
X74177500Y-54317500D03*
D16*
X76256105Y-136425000D03*
X74531103Y-136425000D03*
D23*
X61825000Y-90287500D03*
X61825000Y-88462500D03*
X69368604Y-128312500D03*
X69368604Y-126487500D03*
D24*
X64543604Y-135787500D03*
X66268604Y-135787500D03*
X108906103Y-128309000D03*
X110631105Y-128309000D03*
D23*
X107625000Y-89612500D03*
X107625000Y-87787500D03*
D31*
X99050000Y-98762499D03*
X100000000Y-98762499D03*
X100950000Y-98762499D03*
X100950000Y-96062499D03*
X100000000Y-96062499D03*
X99050000Y-96062499D03*
D28*
X73831104Y-121987500D03*
X73831104Y-123812500D03*
D17*
X64365000Y-57367499D03*
X64365000Y-59092501D03*
D33*
X68750000Y-74637500D03*
X68750000Y-75587500D03*
X68750000Y-76537500D03*
X71025000Y-76537500D03*
X71025000Y-75587500D03*
X71025000Y-74637500D03*
D17*
X88575000Y-49087500D03*
X88575000Y-50812500D03*
D18*
X95412501Y-67837499D03*
X93587501Y-67837499D03*
D24*
X107743602Y-121025000D03*
X109468604Y-121025000D03*
D28*
X103450001Y-75674999D03*
X103450001Y-77499999D03*
D23*
X58425000Y-76162500D03*
X58425000Y-74337500D03*
D27*
X100462500Y-41390000D03*
X102287500Y-41390000D03*
X116562500Y-94225000D03*
X118387500Y-94225000D03*
D28*
X77062500Y-56455000D03*
X77062500Y-58280000D03*
D34*
X67231104Y-133387500D03*
X67231104Y-132437500D03*
X67231104Y-131487500D03*
X64531104Y-131487500D03*
X64531104Y-133387500D03*
D24*
X54175000Y-98550000D03*
X55900000Y-98550000D03*
D17*
X104900000Y-96537499D03*
X104900000Y-98262499D03*
D28*
X133525000Y-49862500D03*
X133525000Y-51687500D03*
D33*
X68325000Y-85137499D03*
X68325000Y-86087499D03*
X68325000Y-87037499D03*
X70600000Y-87037499D03*
X70600000Y-86087499D03*
X70600000Y-85137499D03*
D27*
X99237502Y-77487499D03*
X101062502Y-77487499D03*
D23*
X83962500Y-59030000D03*
X83962500Y-57205000D03*
D28*
X166025000Y-49862500D03*
X166025000Y-51687500D03*
D16*
X70750000Y-80287498D03*
X69025000Y-80287498D03*
D24*
X98900001Y-85362499D03*
X100625001Y-85362499D03*
D33*
X90637500Y-49900000D03*
X90637500Y-50850000D03*
X90637500Y-51800000D03*
X92912500Y-51800000D03*
X92912500Y-49900000D03*
D18*
X60793604Y-117950000D03*
X58968604Y-117950000D03*
D35*
X54511103Y-136780000D03*
D36*
X54511104Y-138800000D03*
D37*
X54511104Y-140030000D03*
D38*
X54511103Y-137780000D03*
D39*
X54511104Y-135760000D03*
D40*
X54511104Y-134530000D03*
D41*
X54431104Y-132960000D03*
X50631104Y-132960000D03*
X54431104Y-141600000D03*
X50631104Y-141600000D03*
D23*
X65000001Y-69399998D03*
X65000001Y-67574998D03*
X105475000Y-92987499D03*
X105475000Y-91162499D03*
X109700000Y-75437500D03*
X109700000Y-73612500D03*
D16*
X81325001Y-59867500D03*
X79599999Y-59867500D03*
D42*
X59981104Y-124825000D03*
X59981104Y-129225000D03*
D16*
X70212501Y-100600000D03*
X68487499Y-100600000D03*
X100662501Y-92812499D03*
X98937501Y-92812499D03*
X100662501Y-83187499D03*
X98937501Y-83187499D03*
D28*
X76065000Y-52355000D03*
X76065000Y-54180000D03*
X73365000Y-56405000D03*
X73365000Y-58230000D03*
D25*
X85712500Y-58830001D03*
X85712500Y-57104999D03*
D43*
X97006104Y-124324999D03*
X98406104Y-124324999D03*
D25*
X99175000Y-63512500D03*
X99175000Y-61787500D03*
D28*
X65900000Y-73674999D03*
X65900000Y-75499999D03*
D24*
X68949999Y-83187498D03*
X70674999Y-83187498D03*
M02*
